<?xml version="1.0" encoding="utf-8"?>
<!-- Generator: Adobe Illustrator 26.5.0, SVG Export Plug-In . SVG Version: 6.00 Build 0)  -->
<svg version="1.1" id="logo" xmlns="http://www.w3.org/2000/svg" xmlns:xlink="http://www.w3.org/1999/xlink" x="0px" y="0px"
	 viewBox="0 0 227 43.4" style="enable-background:new 0 0 227 43.4;" xml:space="preserve">
<style type="text/css">
	.st0{fill:#002361;}
	.st1{clip-path:url(#SVGID_00000098942196516275306770000015549542881617817481_);fill:#002361;}
	.st2{clip-path:url(#SVGID_00000074407889119018086200000005822275252637249157_);fill:#002361;}
	.st3{clip-path:url(#SVGID_00000176013161596594275840000013874109302563694482_);fill:#002361;}
	.st4{clip-path:url(#SVGID_00000178203113049461691680000004211471348498536861_);fill:#002361;}
	.st5{clip-path:url(#SVGID_00000136395250249532052530000009499323646148740266_);fill:#002361;}
	.st6{clip-path:url(#SVGID_00000039112463603273540930000006191044576019864996_);fill:#002361;}
	.st7{clip-path:url(#SVGID_00000053514259645392916090000002939122764484424628_);fill:#002361;}
	.st8{clip-path:url(#SVGID_00000029004505455885516080000006922725395058394301_);fill:#002361;}
	.st9{clip-path:url(#SVGID_00000157270294289964516040000015415038655498321568_);fill:#002361;}
	.st10{clip-path:url(#SVGID_00000130647021458236263170000008650473703453706646_);fill:#002361;}
	.st11{clip-path:url(#SVGID_00000014604006093410354980000004750863407404400822_);fill:#002361;}
	.st12{clip-path:url(#SVGID_00000158750022245608588460000010096753130177060526_);fill:#002361;}
	.st13{clip-path:url(#SVGID_00000142177050351503655310000002966211664453983934_);fill:#002361;}
	.st14{clip-path:url(#SVGID_00000063629651291455846040000007861326839861971389_);fill:#002361;}
	.st15{clip-path:url(#SVGID_00000028299754831842348310000014390693346441762735_);fill:#002361;}
	.st16{clip-path:url(#SVGID_00000053520635623454505610000009221771920985645206_);fill:#002361;}
	.st17{clip-path:url(#SVGID_00000171678273362735558860000006130410931739583136_);fill:#002361;}
	.st18{clip-path:url(#SVGID_00000166674593983747023850000016950170978009240510_);fill:#002361;}
	.st19{clip-path:url(#SVGID_00000038379939131864845500000009308247261698256011_);fill:#002361;}
	.st20{clip-path:url(#SVGID_00000000211541513865865010000016166682341306445457_);fill:#002361;}
	.st21{clip-path:url(#SVGID_00000011753133563272511600000006927167532469645701_);fill:#002361;}
	.st22{clip-path:url(#SVGID_00000028285127381974374520000017564581382122068633_);fill:#002361;}
	.st23{clip-path:url(#SVGID_00000066503254665212043600000004397711737471415699_);fill:#002361;}
	.st24{clip-path:url(#SVGID_00000013885565789574941010000007459384495798867364_);fill:#002361;}
	.st25{clip-path:url(#SVGID_00000152245082367735519600000000719391807136517542_);fill:#002361;}
	.st26{clip-path:url(#SVGID_00000158748103154372908610000009151421667760315327_);fill:#002361;}
	.st27{clip-path:url(#SVGID_00000101064173362120048750000006995170535524414875_);fill:#002361;}
	.st28{clip-path:url(#SVGID_00000122689003751837888050000000687663867120755345_);fill:#002361;}
	.st29{clip-path:url(#SVGID_00000149366832265507850310000007625213607062757777_);fill:#002361;}
	.st30{clip-path:url(#SVGID_00000097479062308793704160000013980890116768070333_);fill:#002361;}
	.st31{clip-path:url(#SVGID_00000008120582053798309390000008094238746179925686_);fill:#002361;}
	.st32{clip-path:url(#SVGID_00000101798221332131861650000002803226192915604371_);fill:#002361;}
	.st33{clip-path:url(#SVGID_00000126285595861136273790000005027611273977733768_);fill:#002361;}
	.st34{clip-path:url(#SVGID_00000084526741124290017990000008372982632751574423_);fill:#002361;}
	.st35{clip-path:url(#SVGID_00000011735564764662217950000002267548739620566938_);fill:#002361;}
	.st36{clip-path:url(#SVGID_00000181777817314096479350000007424200154970280619_);fill:#002361;}
	.st37{clip-path:url(#SVGID_00000083808115266688858570000015739622559992807083_);fill:#002361;}
	.st38{clip-path:url(#SVGID_00000169529184860395825250000010947451581190060183_);fill:#002361;}
	.st39{clip-path:url(#SVGID_00000016791428523474409020000004264303399268704447_);fill:#002361;}
	.st40{clip-path:url(#SVGID_00000005961575997514792250000014764726929316051847_);fill:#002361;}
	.st41{clip-path:url(#SVGID_00000024000113846190745730000006568958055955798700_);fill:#002361;}
</style>
<g>
	<path class="st0" d="M80,34.7c0-0.8,0-2.2-0.2-2.6c-0.1-0.2-0.3-0.2-0.6-0.3l-0.3,0c-0.1-0.1-0.1-0.2,0-0.3c0.5,0,0.9,0,1.4,0
		c0.5,0,0.9,0,1.3,0c0.1,0.1,0.1,0.2,0,0.3l-0.3,0c-0.3,0-0.5,0.1-0.6,0.3c-0.2,0.4-0.2,1.8-0.2,2.5v1.4c0,1.1-0.2,2.2-0.9,3
		c-0.5,0.6-1.5,0.9-2.4,0.9c-0.9,0-1.7-0.2-2.3-0.7c-0.7-0.5-1-1.4-1-2.9v-2.9c0-1.3,0-1.5-0.7-1.6l-0.3,0c-0.1-0.1-0.1-0.3,0-0.3
		c0.6,0,1,0,1.5,0c0.5,0,0.9,0,1.5,0c0.1,0,0.1,0.2,0,0.3l-0.3,0C75,31.9,75,32.1,75,33.4v2.7c0,2,0.6,3.3,2.5,3.3
		c1.8,0,2.5-1.4,2.5-3.3V34.7z"/>
</g>
<g>
	<path class="st0" d="M96.2,37.6c0,0.4,0,1.8,0,2.2c0,0.1-0.1,0.1-0.2,0.1c-0.1-0.2-0.5-0.6-1.6-1.9l-2.9-3.3
		c-0.3-0.4-1.2-1.4-1.4-1.7h0c0,0.1-0.1,0.4-0.1,0.8v2.7c0,0.6,0,2.2,0.2,2.6c0.1,0.1,0.3,0.2,0.6,0.2l0.4,0c0.1,0.1,0.1,0.2,0,0.3
		c-0.6,0-1,0-1.4,0c-0.5,0-0.9,0-1.3,0c-0.1-0.1-0.1-0.2,0-0.3l0.3,0c0.3,0,0.5-0.1,0.5-0.2c0.2-0.4,0.2-2,0.2-2.6v-3.6
		c0-0.3,0-0.6-0.3-0.9c-0.2-0.2-0.5-0.3-0.8-0.3l-0.2,0c-0.1-0.1-0.1-0.3,0-0.3c0.5,0,1.2,0,1.4,0c0.2,0,0.4,0,0.6,0
		c0.2,0.6,1.7,2.3,2.1,2.7l1.2,1.4c0.9,1,1.5,1.6,2,2.2h0c0.1-0.1,0.1-0.3,0.1-0.5v-2.7c0-0.6,0-2.2-0.2-2.6
		c-0.1-0.1-0.3-0.2-0.8-0.2l-0.2,0c-0.1-0.1-0.1-0.3,0-0.3c0.6,0,1,0,1.5,0c0.5,0,0.9,0,1.3,0c0.1,0.1,0.1,0.2,0,0.3l-0.2,0
		c-0.4,0.1-0.6,0.2-0.7,0.3c-0.2,0.4-0.2,2-0.2,2.6L96.2,37.6L96.2,37.6z"/>
</g>
<g>
	<path class="st0" d="M105.4,33.5c0-1.3,0-1.5-0.8-1.6l-0.3,0c-0.1-0.1,0-0.3,0-0.3c0.6,0,1,0,1.6,0c0.5,0,0.9,0,1.5,0
		c0.1,0,0.1,0.3,0,0.3l-0.3,0c-0.7,0.1-0.8,0.3-0.8,1.6v4.4c0,1.3,0,1.5,0.8,1.6l0.3,0c0.1,0,0,0.3,0,0.3c-0.6,0-1,0-1.5,0
		c-0.5,0-0.9,0-1.6,0c-0.1,0-0.1-0.2,0-0.3l0.3,0c0.7-0.1,0.8-0.3,0.8-1.6V33.5z"/>
</g>
<g>
	<path class="st0" d="M115.4,32.9c-0.3-0.7-0.5-1-1-1l-0.2,0c-0.1-0.1-0.1-0.2,0-0.3c0.4,0,0.8,0,1.3,0c0.5,0,1,0,1.5,0
		c0.1,0.1,0.1,0.2,0,0.3l-0.2,0c-0.5,0.1-0.6,0.1-0.6,0.2c0,0.1,0.2,0.8,0.6,1.7c0.6,1.4,1.1,2.9,1.8,4.3c0.4-0.8,0.9-2.1,1.2-2.8
		c0.4-0.8,0.9-2.2,1.2-2.8c0.1-0.3,0.1-0.4,0.1-0.5c0-0.1-0.1-0.2-0.6-0.2l-0.2,0c-0.1-0.1-0.1-0.3,0-0.3c0.3,0,0.8,0,1.3,0
		c0.4,0,0.8,0,1.2,0c0.1,0.1,0.1,0.2,0,0.3l-0.4,0c-0.3,0-0.5,0.2-0.6,0.4c-0.3,0.6-0.8,1.6-1.4,2.8l-0.7,1.5
		c-0.5,1.1-1.1,2.6-1.3,3.2c0,0-0.1,0-0.1,0c-0.1,0-0.1,0-0.2,0c-0.1-0.5-0.4-1.1-0.6-1.6L115.4,32.9z"/>
</g>
<g>
	<path class="st0" d="M130.4,33.4c0-1.3,0-1.5-0.8-1.6l-0.2,0c-0.1-0.1,0-0.3,0-0.3c0.5,0,1,0,1.5,0h2.3c0.8,0,1.5,0,1.7,0
		c0.1,0.2,0.1,1.1,0.2,1.7c-0.1,0.1-0.2,0.1-0.3,0c-0.2-0.6-0.3-1-0.9-1.2c-0.3-0.1-0.7-0.1-1.2-0.1h-0.9c-0.4,0-0.4,0-0.4,0.5v2.5
		c0,0.3,0,0.3,0.4,0.3h0.7c0.5,0,0.9,0,1.1-0.1c0.2-0.1,0.2-0.1,0.3-0.4l0.1-0.5c0.1-0.1,0.3-0.1,0.3,0c0,0.3-0.1,0.8-0.1,1.3
		c0,0.4,0.1,0.9,0.1,1.2c-0.1,0.1-0.3,0.1-0.3,0l-0.1-0.5c0-0.2-0.1-0.4-0.4-0.5c-0.2-0.1-0.5-0.1-1-0.1h-0.7c-0.4,0-0.4,0-0.4,0.3
		v1.7c0,0.7,0,1.1,0.2,1.3c0.1,0.1,0.4,0.3,1.5,0.3c1,0,1.3,0,1.6-0.2c0.2-0.1,0.6-0.6,0.9-1.2c0.1-0.1,0.3,0,0.3,0.1
		c-0.1,0.4-0.4,1.4-0.6,1.7c-1.1,0-2.2,0-3.3,0h-1.1c-0.5,0-1,0-1.7,0c-0.1,0-0.1-0.2,0-0.3l0.4,0c0.7-0.1,0.8-0.2,0.8-1.5
		L130.4,33.4L130.4,33.4z"/>
</g>
<g>
	<path class="st0" d="M143.8,33.4c0-1.2,0-1.4-0.5-1.5l-0.4,0c-0.1-0.1-0.1-0.3,0-0.3c0.7-0.1,1.5-0.1,2.8-0.1
		c0.8,0,1.5,0.1,2.1,0.4c0.6,0.3,1,0.9,1,1.7c0,1.2-0.9,1.8-1.5,2.1c-0.1,0.1,0,0.2,0.1,0.3c1,1.6,1.6,2.6,2.5,3.3
		c0.2,0.2,0.5,0.3,0.9,0.3c0.1,0,0.1,0.1,0,0.2c-0.1,0-0.3,0.1-0.5,0.1c-1.1,0-1.7-0.3-2.6-1.6c-0.3-0.5-0.8-1.3-1.2-1.9
		c-0.2-0.3-0.4-0.4-0.9-0.4c-0.6,0-0.6,0-0.6,0.3v1.6c0,1.3,0,1.4,0.7,1.5l0.3,0c0.1,0.1,0.1,0.3,0,0.3c-0.6,0-1,0-1.5,0
		c-0.5,0-1,0-1.5,0c-0.1,0-0.1-0.2,0-0.3l0.3,0c0.7-0.1,0.7-0.2,0.7-1.5L143.8,33.4L143.8,33.4z M144.8,35.2c0,0.2,0,0.4,0,0.4
		c0,0,0.2,0.1,0.9,0.1c0.4,0,0.9,0,1.3-0.3c0.3-0.3,0.6-0.7,0.6-1.5c0-1-0.6-1.9-2-1.9c-0.8,0-0.8,0-0.8,0.4L144.8,35.2L144.8,35.2z
		"/>
</g>
<g>
	<path class="st0" d="M158.8,39.9c-1,0-1.7-0.3-1.9-0.5c-0.1-0.3-0.3-1.2-0.3-1.7c0.1-0.1,0.2-0.1,0.3,0c0.2,0.6,0.7,1.8,2.1,1.8
		c1,0,1.6-0.7,1.6-1.4c0-0.5-0.1-1.2-1-1.7l-1.2-0.8c-0.6-0.4-1.3-1.1-1.3-2.1c0-1.2,0.9-2.1,2.5-2.1c0.4,0,0.8,0.1,1.2,0.2
		c0.2,0.1,0.3,0.1,0.4,0.1c0.1,0.3,0.2,1,0.2,1.5c0,0.1-0.2,0.1-0.3,0c-0.2-0.6-0.5-1.4-1.7-1.4c-1.2,0-1.5,0.8-1.5,1.4
		c0,0.7,0.6,1.2,1.1,1.5l1,0.6c0.8,0.5,1.5,1.2,1.5,2.4C161.4,39,160.4,39.9,158.8,39.9"/>
</g>
<g>
	<path class="st0" d="M169.8,33.5c0-1.3,0-1.5-0.8-1.6l-0.3,0c-0.1-0.1,0-0.3,0-0.3c0.6,0,1,0,1.6,0c0.5,0,0.9,0,1.5,0
		c0.1,0,0.1,0.3,0,0.3l-0.3,0c-0.7,0.1-0.8,0.3-0.8,1.6v4.4c0,1.3,0,1.5,0.8,1.6l0.3,0c0.1,0,0.1,0.3,0,0.3c-0.6,0-1,0-1.5,0
		c-0.5,0-0.9,0-1.6,0c-0.1,0-0.1-0.2,0-0.3l0.3,0c0.7-0.1,0.8-0.3,0.8-1.6V33.5z"/>
</g>
<g>
	<path class="st0" d="M183.6,37.9c0,1.3,0,1.5,0.7,1.5l0.4,0c0.1,0,0,0.3,0,0.3c-0.7,0-1.1,0-1.6,0s-0.9,0-1.7,0
		c-0.1,0-0.1-0.2,0-0.3l0.4,0c0.7-0.1,0.8-0.2,0.8-1.5v-5.5c0-0.4,0-0.4-0.4-0.4h-0.7c-0.5,0-1.2,0-1.5,0.3
		c-0.3,0.3-0.4,0.5-0.6,0.9c-0.1,0.1-0.3,0-0.3-0.1c0.2-0.6,0.4-1.4,0.5-1.8c0,0,0.2,0,0.2,0c0.1,0.4,0.5,0.4,1.1,0.4h5
		c0.7,0,0.8,0,1-0.3c0.1,0,0.2,0,0.2,0c-0.1,0.5-0.2,1.5-0.2,1.9c0,0.1-0.3,0.1-0.3,0c0-0.3-0.1-0.8-0.3-0.9
		c-0.3-0.2-0.8-0.3-1.4-0.3H184c-0.4,0-0.4,0-0.4,0.4V37.9z"/>
</g>
<g>
	<path class="st0" d="M197.7,37.9c0,1.3,0.1,1.5,0.7,1.6l0.5,0c0.1,0.1,0,0.3,0,0.3c-0.8,0-1.2,0-1.7,0c-0.5,0-1,0-1.6,0
		c-0.1,0-0.1-0.2,0-0.3l0.4,0c0.7-0.1,0.7-0.2,0.7-1.6v-0.6c0-0.7,0-0.8-0.4-1.5l-1.5-2.9c-0.4-0.8-0.6-0.9-1-0.9l-0.3-0.1
		c-0.1-0.1-0.1-0.3,0-0.3c0.4,0,0.8,0,1.4,0c0.6,0,1,0,1.3,0c0.1,0,0.1,0.2,0,0.3l-0.2,0c-0.4,0.1-0.5,0.1-0.5,0.2
		c0,0.1,0.3,0.8,0.4,1c0.5,0.9,0.9,1.9,1.4,2.8c0.4-0.7,0.8-1.4,1.2-2.1c0.3-0.6,0.8-1.5,0.8-1.6c0-0.1-0.2-0.2-0.5-0.2l-0.2,0
		c-0.1-0.1-0.1-0.3,0-0.3c0.4,0,0.8,0,1.2,0c0.4,0,0.7,0,1.2,0c0.1,0.1,0.1,0.2,0,0.3l-0.3,0.1c-0.6,0.1-1,0.9-1.6,2l-0.8,1.3
		c-0.5,0.9-0.6,1.1-0.6,2V37.9z"/>
</g>
<g>
	<g>
		<defs>
			<rect id="SVGID_1_" width="40.3" height="43.4"/>
		</defs>
		<clipPath id="SVGID_00000023976071520532563620000006523717955092227748_">
			<use xlink:href="#SVGID_1_"  style="overflow:visible;"/>
		</clipPath>
		<path style="clip-path:url(#SVGID_00000023976071520532563620000006523717955092227748_);fill:#002361;" d="M21,43
			c1.1-0.6,2.3-1.4,3.7-2.4V28L21,25.6V43z"/>
	</g>
	<g>
		<defs>
			<rect id="SVGID_00000039128787702158593860000013886473471370929084_" width="40.3" height="43.4"/>
		</defs>
		<clipPath id="SVGID_00000171677316978570648500000015920126095229097357_">
			<use xlink:href="#SVGID_00000039128787702158593860000013886473471370929084_"  style="overflow:visible;"/>
		</clipPath>
		<path style="clip-path:url(#SVGID_00000171677316978570648500000015920126095229097357_);fill:#002361;" d="M21,16.9l3.7,2.5V13
			c-1.2-0.1-2.5-0.1-3.7-0.1V16.9z"/>
	</g>
	<g>
		<defs>
			<rect id="SVGID_00000079461393635490773270000003255220891589966511_" width="40.3" height="43.4"/>
		</defs>
		<clipPath id="SVGID_00000031916912621890675260000000676499198379847824_">
			<use xlink:href="#SVGID_00000079461393635490773270000003255220891589966511_"  style="overflow:visible;"/>
		</clipPath>
		<path style="clip-path:url(#SVGID_00000031916912621890675260000000676499198379847824_);fill:#002361;" d="M32.2,13.7
			c-1.2-0.2-2.5-0.3-3.7-0.4v8.6l3.7,2.5V13.7z"/>
	</g>
	<g>
		<defs>
			<rect id="SVGID_00000107584635237533460440000000939558240369618593_" width="40.3" height="43.4"/>
		</defs>
		<clipPath id="SVGID_00000127754958642951982850000009793312616865248147_">
			<use xlink:href="#SVGID_00000107584635237533460440000000939558240369618593_"  style="overflow:visible;"/>
		</clipPath>
		<path style="clip-path:url(#SVGID_00000127754958642951982850000009793312616865248147_);fill:#002361;" d="M28.5,30.5v6.8
			c1.3-1.2,2.5-2.7,3.7-4.3v0L28.5,30.5z"/>
	</g>
	<g>
		<defs>
			<rect id="SVGID_00000023980394127788896980000000041642853189034674_" width="40.3" height="43.4"/>
		</defs>
		<clipPath id="SVGID_00000070833213835941921630000015197037720086235311_">
			<use xlink:href="#SVGID_00000023980394127788896980000000041642853189034674_"  style="overflow:visible;"/>
		</clipPath>
		<path style="clip-path:url(#SVGID_00000070833213835941921630000015197037720086235311_);fill:#002361;" d="M32.2,33
			C32.2,33,32.2,33,32.2,33L32.2,33L32.2,33z"/>
	</g>
	<g>
		<defs>
			<rect id="SVGID_00000021097079404640454230000002380901166415314597_" width="40.3" height="43.4"/>
		</defs>
		<clipPath id="SVGID_00000025429828015136777860000000743014746062592161_">
			<use xlink:href="#SVGID_00000021097079404640454230000002380901166415314597_"  style="overflow:visible;"/>
		</clipPath>
		<path style="clip-path:url(#SVGID_00000025429828015136777860000000743014746062592161_);fill:#002361;" d="M35.9,14.3v12.6l0,0
			c1.6-3.4,2.9-7.3,3.7-11.9l-0.1,0C38.3,14.7,37.1,14.5,35.9,14.3"/>
	</g>
	<g>
		<defs>
			<rect id="SVGID_00000102510684597157748870000003245527392744980620_" width="40.3" height="43.4"/>
		</defs>
		<clipPath id="SVGID_00000111900815511118099730000001183977769644651672_">
			<use xlink:href="#SVGID_00000102510684597157748870000003245527392744980620_"  style="overflow:visible;"/>
		</clipPath>
		<polygon style="clip-path:url(#SVGID_00000111900815511118099730000001183977769644651672_);fill:#002361;" points="24.7,19.4 
			24.7,28.1 28.5,30.5 28.5,21.9 		"/>
	</g>
	<g>
		<defs>
			<rect id="SVGID_00000124149851369428739550000006644425705921679544_" width="40.3" height="43.4"/>
		</defs>
		<clipPath id="SVGID_00000105402350843308908640000003188034680728948105_">
			<use xlink:href="#SVGID_00000124149851369428739550000006644425705921679544_"  style="overflow:visible;"/>
		</clipPath>
		<path style="clip-path:url(#SVGID_00000105402350843308908640000003188034680728948105_);fill:#002361;" d="M32.2,24.3V33l0,0
			c1.3-1.8,2.6-3.9,3.7-6.2v0L32.2,24.3z"/>
	</g>
	<g>
		<defs>
			<rect id="SVGID_00000065773895370730998300000007218438464088909755_" width="40.3" height="43.4"/>
		</defs>
		<clipPath id="SVGID_00000060002332291509569980000000436385528973922748_">
			<use xlink:href="#SVGID_00000065773895370730998300000007218438464088909755_"  style="overflow:visible;"/>
		</clipPath>
		<path style="clip-path:url(#SVGID_00000060002332291509569980000000436385528973922748_);fill:#002361;" d="M35.9,26.8
			C35.9,26.8,35.9,26.8,35.9,26.8L35.9,26.8L35.9,26.8z"/>
	</g>
	<g>
		<defs>
			<rect id="SVGID_00000098186334252352019230000004918020795142916497_" width="40.3" height="43.4"/>
		</defs>
		<clipPath id="SVGID_00000160158930693556332790000002279461950168563890_">
			<use xlink:href="#SVGID_00000098186334252352019230000004918020795142916497_"  style="overflow:visible;"/>
		</clipPath>
		<path style="clip-path:url(#SVGID_00000160158930693556332790000002279461950168563890_);fill:#002361;" d="M12.8,28.6
			c1.1-0.3,2.1-0.9,2.8-1.7c-0.4-0.1-0.9-0.3-1.4-0.4C13.8,27.4,13.3,28.1,12.8,28.6"/>
	</g>
	<g>
		<defs>
			<rect id="SVGID_00000158021777144492894180000010362910949051931790_" width="40.3" height="43.4"/>
		</defs>
		<clipPath id="SVGID_00000099655529397286913280000004732454315622047146_">
			<use xlink:href="#SVGID_00000158021777144492894180000010362910949051931790_"  style="overflow:visible;"/>
		</clipPath>
		<path style="clip-path:url(#SVGID_00000099655529397286913280000004732454315622047146_);fill:#002361;" d="M6.9,26.9
			c0.7,0.8,1.7,1.4,2.8,1.7c-0.5-0.5-1-1.3-1.4-2.2C7.8,26.6,7.3,26.7,6.9,26.9"/>
	</g>
	<g>
		<defs>
			<rect id="SVGID_00000033344742210294592390000010846953280858228887_" width="40.3" height="43.4"/>
		</defs>
		<clipPath id="SVGID_00000051376238595282296600000015444437164399004836_">
			<use xlink:href="#SVGID_00000033344742210294592390000010846953280858228887_"  style="overflow:visible;"/>
		</clipPath>
		<path style="clip-path:url(#SVGID_00000051376238595282296600000015444437164399004836_);fill:#002361;" d="M10.7,17.8
			c-0.4,0.4-0.9,1.1-1.3,1.9c0.4,0.1,0.8,0.1,1.3,0.1V17.8z"/>
	</g>
	<g>
		<defs>
			<rect id="SVGID_00000018938977319549928560000009530433272846974385_" width="40.3" height="43.4"/>
		</defs>
		<clipPath id="SVGID_00000102537183502420974820000010701366610863322800_">
			<use xlink:href="#SVGID_00000018938977319549928560000009530433272846974385_"  style="overflow:visible;"/>
		</clipPath>
		<path style="clip-path:url(#SVGID_00000102537183502420974820000010701366610863322800_);fill:#002361;" d="M14.6,25.4
			c0.7,0.2,1.2,0.3,1.7,0.5c0.4-0.7,0.7-1.6,0.8-2.5h-2.2C14.9,24.2,14.8,24.9,14.6,25.4"/>
	</g>
	<g>
		<defs>
			<rect id="SVGID_00000079473094704493509480000008519032749397839530_" width="40.3" height="43.4"/>
		</defs>
		<clipPath id="SVGID_00000022522346351641408740000003928204889522796201_">
			<use xlink:href="#SVGID_00000079473094704493509480000008519032749397839530_"  style="overflow:visible;"/>
		</clipPath>
		<path style="clip-path:url(#SVGID_00000022522346351641408740000003928204889522796201_);fill:#002361;" d="M9.7,17.3
			c-1.1,0.3-2.1,0.9-2.8,1.7c0.4,0.1,0.9,0.3,1.4,0.4C8.8,18.6,9.3,17.9,9.7,17.3"/>
	</g>
	<g>
		<defs>
			<rect id="SVGID_00000139254668293366285210000013989709464045650347_" width="40.3" height="43.4"/>
		</defs>
		<clipPath id="SVGID_00000016060777525227556710000001093659868712515512_">
			<use xlink:href="#SVGID_00000139254668293366285210000013989709464045650347_"  style="overflow:visible;"/>
		</clipPath>
		<path style="clip-path:url(#SVGID_00000016060777525227556710000001093659868712515512_);fill:#002361;" d="M15.6,19.1
			c-0.7-0.8-1.7-1.4-2.8-1.7c0.5,0.5,1,1.3,1.4,2.2C14.8,19.4,15.2,19.2,15.6,19.1"/>
	</g>
	<g>
		<defs>
			<rect id="SVGID_00000157990297170178222160000008804436143046917014_" width="40.3" height="43.4"/>
		</defs>
		<clipPath id="SVGID_00000150817799899051949210000009564957796889070986_">
			<use xlink:href="#SVGID_00000157990297170178222160000008804436143046917014_"  style="overflow:visible;"/>
		</clipPath>
		<path style="clip-path:url(#SVGID_00000150817799899051949210000009564957796889070986_);fill:#002361;" d="M14.9,22.4h2.2
			c-0.1-0.9-0.4-1.7-0.8-2.5c-0.5,0.2-1,0.4-1.7,0.5C14.8,21.1,14.9,21.7,14.9,22.4"/>
	</g>
	<g>
		<defs>
			<rect id="SVGID_00000102533665069793374030000015745511976154725274_" width="40.3" height="43.4"/>
		</defs>
		<clipPath id="SVGID_00000142865483329851491690000004199719467920405376_">
			<use xlink:href="#SVGID_00000102533665069793374030000015745511976154725274_"  style="overflow:visible;"/>
		</clipPath>
		<path style="clip-path:url(#SVGID_00000142865483329851491690000004199719467920405376_);fill:#002361;" d="M11.8,28.1
			c0.4-0.4,0.9-1.1,1.3-1.9c-0.4-0.1-0.8-0.1-1.3-0.1V28.1z"/>
	</g>
	<g>
		<defs>
			<rect id="SVGID_00000109727386681499308670000007625546862015348889_" width="40.3" height="43.4"/>
		</defs>
		<clipPath id="SVGID_00000178176848155383606790000009018375555557618818_">
			<use xlink:href="#SVGID_00000109727386681499308670000007625546862015348889_"  style="overflow:visible;"/>
		</clipPath>
		<path style="clip-path:url(#SVGID_00000178176848155383606790000009018375555557618818_);fill:#002361;" d="M10.7,23.5h-2
			c0,0.6,0.2,1.2,0.3,1.7c0.5-0.1,1.1-0.1,1.7-0.2V23.5z"/>
	</g>
	<g>
		<defs>
			<rect id="SVGID_00000111159686459473873140000001173378765898354613_" width="40.3" height="43.4"/>
		</defs>
		<clipPath id="SVGID_00000034050843627216810560000010979460890064798907_">
			<use xlink:href="#SVGID_00000111159686459473873140000001173378765898354613_"  style="overflow:visible;"/>
		</clipPath>
		<path style="clip-path:url(#SVGID_00000034050843627216810560000010979460890064798907_);fill:#002361;" d="M11.8,25.1
			c0.6,0,1.2,0.1,1.7,0.2c0.2-0.5,0.3-1.1,0.3-1.7h-2V25.1z"/>
	</g>
	<g>
		<defs>
			<rect id="SVGID_00000060752508158914606860000012185874491727411634_" width="40.3" height="43.4"/>
		</defs>
		<clipPath id="SVGID_00000163764218267372465140000001885771636293200011_">
			<use xlink:href="#SVGID_00000060752508158914606860000012185874491727411634_"  style="overflow:visible;"/>
		</clipPath>
		<path style="clip-path:url(#SVGID_00000163764218267372465140000001885771636293200011_);fill:#002361;" d="M13.1,19.7
			c-0.4-0.8-0.9-1.4-1.3-1.9v2C12.3,19.8,12.7,19.8,13.1,19.7"/>
	</g>
	<g>
		<defs>
			<rect id="SVGID_00000021101875707111785490000013936085320149317783_" width="40.3" height="43.4"/>
		</defs>
		<clipPath id="SVGID_00000183940766759890654560000004301459697928695432_">
			<use xlink:href="#SVGID_00000021101875707111785490000013936085320149317783_"  style="overflow:visible;"/>
		</clipPath>
		<path style="clip-path:url(#SVGID_00000183940766759890654560000004301459697928695432_);fill:#002361;" d="M13.9,22.4
			c0-0.6-0.2-1.2-0.3-1.7c-0.5,0.1-1.1,0.1-1.7,0.2v1.6H13.9z"/>
	</g>
	<g>
		<defs>
			<rect id="SVGID_00000126290770233961506540000008384368061750747287_" width="40.3" height="43.4"/>
		</defs>
		<clipPath id="SVGID_00000105395090709948859930000002160113327793087119_">
			<use xlink:href="#SVGID_00000126290770233961506540000008384368061750747287_"  style="overflow:visible;"/>
		</clipPath>
		<path style="clip-path:url(#SVGID_00000105395090709948859930000002160113327793087119_);fill:#002361;" d="M9.5,26.3
			c0.4,0.8,0.9,1.4,1.3,1.9v-2C10.3,26.2,9.9,26.2,9.5,26.3"/>
	</g>
	<g>
		<defs>
			<rect id="SVGID_00000166651835173415175860000015870248682179233450_" width="40.3" height="43.4"/>
		</defs>
		<clipPath id="SVGID_00000159438992059005338290000007850806220573834145_">
			<use xlink:href="#SVGID_00000166651835173415175860000015870248682179233450_"  style="overflow:visible;"/>
		</clipPath>
		<path style="clip-path:url(#SVGID_00000159438992059005338290000007850806220573834145_);fill:#002361;" d="M8,20.5
			c-0.7-0.2-1.2-0.3-1.7-0.5c-0.4,0.7-0.7,1.6-0.8,2.5h2.2C7.7,21.7,7.8,21.1,8,20.5"/>
	</g>
	<g>
		<defs>
			<rect id="SVGID_00000103241133931554507380000011826018234438465667_" width="40.3" height="43.4"/>
		</defs>
		<clipPath id="SVGID_00000093171600523343840990000007159510251773121452_">
			<use xlink:href="#SVGID_00000103241133931554507380000011826018234438465667_"  style="overflow:visible;"/>
		</clipPath>
		<path style="clip-path:url(#SVGID_00000093171600523343840990000007159510251773121452_);fill:#002361;" d="M10.7,20.9
			c-0.6,0-1.2-0.1-1.7-0.2c-0.2,0.5-0.3,1.1-0.3,1.7h2V20.9z"/>
	</g>
	<g>
		<defs>
			<rect id="SVGID_00000161610841008777927940000003878940383676189864_" width="40.3" height="43.4"/>
		</defs>
		<clipPath id="SVGID_00000049911537418679298980000006689093123404024714_">
			<use xlink:href="#SVGID_00000161610841008777927940000003878940383676189864_"  style="overflow:visible;"/>
		</clipPath>
		<path style="clip-path:url(#SVGID_00000049911537418679298980000006689093123404024714_);fill:#002361;" d="M7.6,23.5H5.5
			c0.1,0.9,0.4,1.7,0.8,2.5c0.5-0.2,1-0.4,1.7-0.5C7.8,24.9,7.7,24.2,7.6,23.5"/>
	</g>
	<g>
		<defs>
			<rect id="SVGID_00000055705823995069339760000006238548141511195809_" width="40.3" height="43.4"/>
		</defs>
		<clipPath id="SVGID_00000139974294699225228690000016148942057959176095_">
			<use xlink:href="#SVGID_00000055705823995069339760000006238548141511195809_"  style="overflow:visible;"/>
		</clipPath>
		<path style="clip-path:url(#SVGID_00000139974294699225228690000016148942057959176095_);fill:#002361;" d="M0.7,15
			C3.4,31.9,14,40.1,19.2,43V12.9C13,13,6.8,13.7,0.8,14.9L0.7,15z M11.3,16.1c3.8,0,6.9,3.1,6.9,6.9c0,3.8-3.1,6.9-6.9,6.9
			c-3.8,0-6.9-3.1-6.9-6.9C4.3,19.2,7.5,16.1,11.3,16.1"/>
	</g>
	<g>
		<defs>
			<rect id="SVGID_00000173848096769774002020000017128588101814273195_" width="40.3" height="43.4"/>
		</defs>
		<clipPath id="SVGID_00000065033585087940953090000011203770757639333274_">
			<use xlink:href="#SVGID_00000173848096769774002020000017128588101814273195_"  style="overflow:visible;"/>
		</clipPath>
		<path style="clip-path:url(#SVGID_00000065033585087940953090000011203770757639333274_);fill:#002361;" d="M39.4,2L39.4,2
			c-6.2-1.3-12.7-2-19.3-2C13.5,0,7,0.7,0.8,2l0,0C0.3,2.2,0,2.6,0,3l0,3.5C0,8.8,0.1,11,0.4,13C6.9,11.7,13.5,11,20.1,11
			c6.6,0,13.3,0.7,19.7,2c0.2-2,0.4-4.2,0.4-6.5l0-3.5C40.2,2.5,39.9,2.1,39.4,2 M35.1,10.7c-4.8-0.9-10.4-1.2-15-1.2h0
			c-4.6,0-10.1,0.3-15,1.2c-0.2,0-0.3-0.1-0.2-0.3l3.2-7c0-0.1,2.1-1.1,2.1-1.1c2.6-0.5,6.9-0.3,9.9,0.8h0c3-1.1,7.3-1.3,9.9-0.8
			c0,0,2.1,1,2.1,1.1l3.2,7C35.4,10.6,35.3,10.7,35.1,10.7"/>
	</g>
	<g>
		<defs>
			<rect id="SVGID_00000021823567508925672030000011389898332548361615_" width="40.3" height="43.4"/>
		</defs>
		<clipPath id="SVGID_00000143617381867922929760000015221867479159326642_">
			<use xlink:href="#SVGID_00000021823567508925672030000011389898332548361615_"  style="overflow:visible;"/>
		</clipPath>
		<path style="clip-path:url(#SVGID_00000143617381867922929760000015221867479159326642_);fill:#002361;" d="M29.2,3.5L30.6,7
			c-3.1-0.4-5.7-0.2-9.5,1v0.3c3.6-0.1,8.2-0.3,11.9,0.5l-2-4.6L29.2,3.5z"/>
	</g>
	<g>
		<defs>
			<rect id="SVGID_00000155830375728762505470000001999847910919061937_" width="40.3" height="43.4"/>
		</defs>
		<clipPath id="SVGID_00000013189412183053355170000002532950047536751507_">
			<use xlink:href="#SVGID_00000155830375728762505470000001999847910919061937_"  style="overflow:visible;"/>
		</clipPath>
		<path style="clip-path:url(#SVGID_00000013189412183053355170000002532950047536751507_);fill:#002361;" d="M9.6,7L11,3.5L9.3,4.2
			l-2,4.6c3.7-0.8,8.3-0.6,11.9-0.5V8.1C15.3,6.8,12.8,6.6,9.6,7"/>
	</g>
</g>
<g>
	<g>
		<defs>
			<rect id="SVGID_00000110464385660227654600000014997154719462831022_" x="47" y="4.9" width="180" height="24.6"/>
		</defs>
		<clipPath id="SVGID_00000125576536386792511400000014716377272464210599_">
			<use xlink:href="#SVGID_00000110464385660227654600000014997154719462831022_"  style="overflow:visible;"/>
		</clipPath>
		<path style="clip-path:url(#SVGID_00000125576536386792511400000014716377272464210599_);fill:#002361;" d="M52.1,9.3
			c0-3.2-0.3-3.5-2-3.6l-0.7-0.1c-0.2-0.1-0.1-0.6,0.1-0.7C51.2,5,52.1,5,53.3,5c1.1,0,2.1,0,3.2-0.1c0.2,0.1,0.2,0.6,0.1,0.7
			l-0.4,0.1c-1.7,0.2-1.7,0.6-1.7,3.6v10.6c0,2.2-0.1,4.2-0.7,5.5c-0.9,2.3-3,4.1-5.6,4.1c-0.3,0-1.2,0-1.2-0.6c0-0.5,0.4-1.3,1-1.3
			c0.3,0,0.7,0.1,1.1,0.2c0.4,0.1,0.8,0.2,1.2,0.2c0.6,0,0.9-0.3,1.1-0.7c0.7-1.3,0.7-5.6,0.7-7.1C52.1,20.1,52.1,9.3,52.1,9.3z"/>
	</g>
	<g>
		<defs>
			<rect id="SVGID_00000111177675137753955550000015351431696207180461_" x="47" y="4.9" width="180" height="24.6"/>
		</defs>
		<clipPath id="SVGID_00000049222468332749872150000006658449499943297927_">
			<use xlink:href="#SVGID_00000111177675137753955550000015351431696207180461_"  style="overflow:visible;"/>
		</clipPath>
		<path style="clip-path:url(#SVGID_00000049222468332749872150000006658449499943297927_);fill:#002361;" d="M56.6,16
			c0-4.8,3.6-8.5,8.5-8.5c5.5,0,8.3,4,8.3,8.2c0,4.8-3.7,8.4-8.3,8.4C59.8,24.2,56.6,20.3,56.6,16 M71.1,16.5c0-4-1.8-8.2-6.3-8.2
			c-2.5,0-5.7,1.7-5.7,7c0,3.5,1.7,8.2,6.5,8.2C68.3,23.4,71.1,21.3,71.1,16.5"/>
	</g>
	<g>
		<defs>
			<rect id="SVGID_00000068637811745847384330000011913590360577328316_" x="47" y="4.9" width="180" height="24.6"/>
		</defs>
		<clipPath id="SVGID_00000157303697090379670540000015487588549910388152_">
			<use xlink:href="#SVGID_00000068637811745847384330000011913590360577328316_"  style="overflow:visible;"/>
		</clipPath>
		<path style="clip-path:url(#SVGID_00000157303697090379670540000015487588549910388152_);fill:#002361;" d="M78.9,16
			c-1.2,0-1.2,0-1.2,0.8v3.4c0,2.5,0.1,2.9,1.5,3l0.7,0.1c0.1,0.1,0.1,0.5,0,0.6c-1.3,0-2.1-0.1-3-0.1c-1,0-1.8,0-2.8,0.1
			c-0.1-0.1-0.2-0.5,0-0.6l0.4-0.1c1.3-0.2,1.4-0.5,1.4-3v-8.6c0-2.5-0.2-2.9-1.4-3l-0.6,0c-0.1-0.1-0.1-0.5,0-0.6
			c1.2,0,2,0.1,3,0.1c0.9,0,1.8,0,2.8-0.1c0.1,0.1,0.2,0.5,0,0.6l-0.5,0c-1.4,0.1-1.4,0.5-1.4,3v2.8c0,0.7,0,0.8,1.2,0.8h6.9
			c1.2,0,1.2,0,1.2-0.8v-2.8c0-2.5,0-2.9-1.5-3l-0.5,0c-0.1-0.1-0.1-0.5,0-0.6c1.1,0,1.9,0.1,2.9,0.1c0.9,0,1.8,0,2.8-0.1
			c0.1,0.1,0.2,0.5,0,0.6l-0.5,0c-1.4,0.1-1.4,0.5-1.4,3v8.6c0,2.5,0,2.8,1.4,3l0.6,0.1c0.1,0.1,0.1,0.5,0,0.6c-1.2,0-2-0.1-2.9-0.1
			c-1,0-1.8,0-2.9,0.1c-0.1-0.1-0.2-0.5,0-0.6l0.5-0.1c1.5-0.2,1.5-0.5,1.5-3v-3.4c0-0.7,0-0.8-1.2-0.8H78.9z"/>
	</g>
	<g>
		<defs>
			<rect id="SVGID_00000092429285896172588880000005339373422703310737_" x="47" y="4.9" width="180" height="24.6"/>
		</defs>
		<clipPath id="SVGID_00000029017247098328360660000012093668387025379206_">
			<use xlink:href="#SVGID_00000092429285896172588880000005339373422703310737_"  style="overflow:visible;"/>
		</clipPath>
		<path style="clip-path:url(#SVGID_00000029017247098328360660000012093668387025379206_);fill:#002361;" d="M107.3,19.7
			c0,0.7,0,3.6,0.1,4.2c0,0.1-0.2,0.3-0.5,0.3c-0.3-0.4-1-1.2-3.1-3.6l-5.6-6.3c-0.6-0.7-2.3-2.7-2.8-3.2h0
			c-0.1,0.3-0.1,0.8-0.1,1.6v5.2c0,1.1,0,4.2,0.4,5c0.1,0.3,0.6,0.4,1.2,0.5l0.7,0.1c0.1,0.2,0.1,0.5,0,0.6c-1.1,0-1.9-0.1-2.8-0.1
			c-1,0-1.7,0-2.5,0.1c-0.2-0.1-0.2-0.5,0-0.6l0.6-0.1c0.6-0.1,0.9-0.2,1.1-0.5c0.3-0.9,0.3-3.8,0.3-4.9v-6.9c0-0.7,0-1.2-0.5-1.7
			c-0.3-0.3-0.9-0.5-1.5-0.6l-0.4,0c-0.1-0.1-0.1-0.5,0-0.6c1,0.1,2.3,0.1,2.7,0.1c0.4,0,0.8,0,1.1-0.1c0.5,1.2,3.3,4.4,4.1,5.3
			l2.3,2.6c1.7,1.8,2.8,3.2,4,4.3h0c0.1-0.1,0.1-0.5,0.1-1V14c0-1.1,0-4.2-0.5-5c-0.1-0.2-0.5-0.4-1.5-0.5l-0.4,0
			c-0.2-0.1-0.1-0.5,0-0.6c1.1,0,1.9,0.1,2.8,0.1c1,0,1.7,0,2.5-0.1c0.2,0.1,0.2,0.5,0,0.6l-0.3,0c-0.8,0.1-1.2,0.3-1.3,0.5
			c-0.4,0.9-0.4,3.8-0.4,4.9L107.3,19.7L107.3,19.7z"/>
	</g>
	<g>
		<defs>
			<rect id="SVGID_00000057856259882023677600000011796677214226389650_" x="47" y="4.9" width="180" height="24.6"/>
		</defs>
		<clipPath id="SVGID_00000183213330426852231520000001979722483840673677_">
			<use xlink:href="#SVGID_00000057856259882023677600000011796677214226389650_"  style="overflow:visible;"/>
		</clipPath>
		<path style="clip-path:url(#SVGID_00000183213330426852231520000001979722483840673677_);fill:#002361;" d="M113.7,24.2
			c-2,0-3.3-0.6-3.7-0.9c-0.3-0.5-0.6-2.2-0.6-3.4c0.1-0.2,0.5-0.2,0.6-0.1c0.4,1.2,1.3,3.6,4.1,3.6c2,0,3-1.3,3-2.8
			c0-1.1-0.2-2.2-2-3.4l-2.3-1.5c-1.2-0.8-2.6-2.2-2.6-4.1c0-2.3,1.8-4.1,4.9-4.1c0.7,0,1.6,0.1,2.2,0.3c0.3,0.1,0.6,0.1,0.8,0.1
			c0.2,0.6,0.4,1.9,0.4,2.9c-0.1,0.1-0.5,0.2-0.6,0.1c-0.3-1.2-1-2.7-3.3-2.7c-2.4,0-2.9,1.6-2.9,2.7c0,1.4,1.2,2.4,2,3l1.9,1.2
			c1.5,0.9,3,2.3,3,4.6C118.8,22.4,116.8,24.2,113.7,24.2"/>
	</g>
	<g>
		<defs>
			<rect id="SVGID_00000109718879062044042160000016102290961103951017_" x="47" y="4.9" width="180" height="24.6"/>
		</defs>
		<clipPath id="SVGID_00000019650272441478531830000003059666866606698162_">
			<use xlink:href="#SVGID_00000109718879062044042160000016102290961103951017_"  style="overflow:visible;"/>
		</clipPath>
		<path style="clip-path:url(#SVGID_00000019650272441478531830000003059666866606698162_);fill:#002361;" d="M133,14.6
			c-1.4,0-1.4,0.1-1.4,0.9v4c0,3,0.1,3.4,1.7,3.6l0.8,0.1c0.2,0.1,0.1,0.6-0.1,0.7c-1.5-0.1-2.5-0.1-3.6-0.1c-1.2,0-2.2,0.1-3.3,0.1
			c-0.2-0.1-0.2-0.5-0.1-0.7l0.5-0.1c1.6-0.3,1.6-0.6,1.6-3.6V9.3c0-3-0.2-3.5-1.7-3.6l-0.7-0.1c-0.2-0.1-0.1-0.6,0.1-0.7
			c1.4,0,2.4,0.1,3.6,0.1c1.1,0,2.1,0,3.3-0.1c0.2,0.1,0.2,0.6,0.1,0.7l-0.5,0.1c-1.6,0.2-1.7,0.6-1.7,3.6v3.3
			c0,0.9,0.1,0.9,1.4,0.9h8.1c1.4,0,1.4,0,1.4-0.9V9.3c0-3-0.1-3.4-1.7-3.6l-0.5-0.1c-0.2-0.1-0.1-0.6,0.1-0.7
			c1.3,0.1,2.3,0.1,3.4,0.1c1.1,0,2.1,0,3.4-0.1c0.2,0.1,0.2,0.6,0.1,0.7l-0.6,0.1c-1.6,0.2-1.7,0.6-1.7,3.6v10.2
			c0,3,0.1,3.4,1.7,3.6l0.7,0.1c0.2,0.1,0.1,0.6-0.1,0.7c-1.4-0.1-2.3-0.1-3.4-0.1c-1.2,0-2.2,0-3.4,0.1c-0.2-0.1-0.2-0.5-0.1-0.7
			l0.5-0.1c1.7-0.3,1.7-0.6,1.7-3.6v-4c0-0.9-0.1-0.9-1.4-0.9H133z"/>
	</g>
	<g>
		<defs>
			<rect id="SVGID_00000036941850046354240370000000865436077445417905_" x="47" y="4.9" width="180" height="24.6"/>
		</defs>
		<clipPath id="SVGID_00000135675499639625242420000007394446853799062935_">
			<use xlink:href="#SVGID_00000036941850046354240370000000865436077445417905_"  style="overflow:visible;"/>
		</clipPath>
		<path style="clip-path:url(#SVGID_00000135675499639625242420000007394446853799062935_);fill:#002361;" d="M147.1,16
			c0-4.8,3.6-8.5,8.5-8.5c5.5,0,8.3,4,8.3,8.2c0,4.8-3.7,8.4-8.3,8.4C150.4,24.2,147.1,20.3,147.1,16 M161.6,16.5
			c0-4-1.8-8.2-6.3-8.2c-2.5,0-5.7,1.7-5.7,7c0,3.5,1.7,8.2,6.5,8.2C158.9,23.4,161.6,21.3,161.6,16.5"/>
	</g>
	<g>
		<defs>
			<rect id="SVGID_00000158720892776014240830000012056596067547766150_" x="47" y="4.9" width="180" height="24.6"/>
		</defs>
		<clipPath id="SVGID_00000074444219963862541300000013955322059152527526_">
			<use xlink:href="#SVGID_00000158720892776014240830000012056596067547766150_"  style="overflow:visible;"/>
		</clipPath>
		<path style="clip-path:url(#SVGID_00000074444219963862541300000013955322059152527526_);fill:#002361;" d="M168.4,20.2
			c0,2.5,0,2.8,1.6,3l0.6,0.1c0.1,0.1,0.1,0.5,0,0.6c-1.4,0-2.2-0.1-3.1-0.1c-1,0-1.9,0-2.9,0.1c-0.1-0.1-0.2-0.5,0-0.6l0.5-0.1
			c1.4-0.2,1.4-0.5,1.4-3v-8.9c0-2,0-2.4-1.1-2.6l-0.9-0.1c-0.2-0.1-0.1-0.5,0-0.6c1.3-0.2,2.8-0.2,4.8-0.2c2,0,3.5,0.3,4.6,1
			c1.1,0.7,1.9,1.9,1.9,3.6c0,2.2-1.4,3.3-2.4,3.8c-1.1,0.5-2.3,0.7-3.3,0.7c-0.2-0.1-0.2-0.4,0-0.5c2.6-0.5,3.5-1.9,3.5-4
			c0-2.3-1.4-3.8-3.9-3.8c-1.3,0-1.3,0.1-1.3,0.9L168.4,20.2L168.4,20.2z"/>
	</g>
	<g>
		<defs>
			<rect id="SVGID_00000178174915211259465470000018442850145940172673_" x="47" y="4.9" width="180" height="24.6"/>
		</defs>
		<clipPath id="SVGID_00000103232578628074803180000014112272660782892425_">
			<use xlink:href="#SVGID_00000178174915211259465470000018442850145940172673_"  style="overflow:visible;"/>
		</clipPath>
		<path style="clip-path:url(#SVGID_00000103232578628074803180000014112272660782892425_);fill:#002361;" d="M178.4,11.5
			c0-2.5,0-2.9-1.4-3l-0.6,0c-0.1-0.1-0.1-0.5,0-0.6c1.2,0,1.9,0.1,3,0.1c0.9,0,1.8,0,2.8-0.1c0.1,0.1,0.2,0.5,0,0.6l-0.5,0
			c-1.4,0.1-1.4,0.5-1.4,3v2.8c0,0.5,0,0.9,0.3,0.9c0.2,0,0.5-0.1,0.7-0.3c0.3-0.3,1-0.9,1.2-1.2l2.6-2.6c0.5-0.4,1.6-1.7,1.9-2
			c0.1-0.2,0.2-0.3,0.2-0.4c0-0.1-0.1-0.2-0.4-0.2l-0.6-0.1c-0.2-0.2-0.1-0.5,0-0.6c0.8,0,1.8,0.1,2.6,0.1s1.7,0,2.4-0.1
			c0.2,0.1,0.2,0.5,0,0.6c-0.6,0-1.6,0.3-2.2,0.7c-0.7,0.4-2,1.5-3.4,2.8l-2.2,2c-0.3,0.3-0.6,0.6-0.6,0.7c0,0.2,0.1,0.4,0.5,0.7
			c2.3,2.6,4.1,4.8,6,6.7c0.6,0.6,1,0.9,1.8,1l0.5,0.1c0.2,0.1,0.1,0.5,0,0.6c-0.6,0-1.3-0.1-2.4-0.1c-1,0-1.8,0-2.9,0.1
			c-0.2,0-0.2-0.5-0.1-0.6l0.6-0.1c0.3,0,0.6-0.1,0.6-0.2c0-0.1-0.2-0.3-0.3-0.6c-0.5-0.6-1.1-1.2-2-2.3l-1.9-2.2
			c-1.4-1.5-1.8-2-2.3-2c-0.4,0-0.4,0.3-0.4,1.2v3.1c0,2.5,0,2.9,1.4,3l0.6,0.1c0.1,0.1,0.1,0.5,0,0.6c-1.2,0-2-0.1-2.9-0.1
			c-1,0-1.8,0-2.8,0.1c-0.1-0.1-0.2-0.4,0-0.6l0.5-0.1c1.3-0.2,1.3-0.5,1.3-3L178.4,11.5L178.4,11.5z"/>
	</g>
	<g>
		<defs>
			<rect id="SVGID_00000109741009628738006300000001605122422019441591_" x="47" y="4.9" width="180" height="24.6"/>
		</defs>
		<clipPath id="SVGID_00000135680086388295278850000013885185709894363040_">
			<use xlink:href="#SVGID_00000109741009628738006300000001605122422019441591_"  style="overflow:visible;"/>
		</clipPath>
		<path style="clip-path:url(#SVGID_00000135680086388295278850000013885185709894363040_);fill:#002361;" d="M194.8,11.6
			c0-2.5,0-3-1.5-3.1l-0.6,0c-0.1-0.1-0.1-0.5,0-0.6c1.2,0,2,0.1,3,0.1c1,0,1.8,0,3-0.1c0.1,0.1,0.2,0.5,0,0.6l-0.6,0
			c-1.4,0.1-1.5,0.5-1.5,3.1v8.5c0,2.5,0,2.9,1.5,3l0.6,0.1c0.1,0.1,0.1,0.5,0,0.6c-1.2,0-2-0.1-3-0.1c-1,0-1.7,0-2.9,0.1
			c-0.1-0.1-0.2-0.5,0-0.6l0.5-0.1c1.4-0.2,1.5-0.5,1.5-3L194.8,11.6L194.8,11.6z"/>
	</g>
	<g>
		<defs>
			<rect id="SVGID_00000078764372617137169480000003034471387306656913_" x="47" y="4.9" width="180" height="24.6"/>
		</defs>
		<clipPath id="SVGID_00000064327302970867471750000011583520569406109615_">
			<use xlink:href="#SVGID_00000078764372617137169480000003034471387306656913_"  style="overflow:visible;"/>
		</clipPath>
		<path style="clip-path:url(#SVGID_00000064327302970867471750000011583520569406109615_);fill:#002361;" d="M215.6,19.7
			c0,0.7,0,3.6,0.1,4.2c0,0.1-0.2,0.3-0.5,0.3c-0.3-0.4-1-1.2-3.1-3.6l-5.6-6.3c-0.6-0.7-2.3-2.7-2.8-3.2h0
			c-0.1,0.3-0.1,0.8-0.1,1.6v5.2c0,1.1,0,4.2,0.4,5c0.1,0.3,0.6,0.4,1.2,0.5l0.7,0.1c0.1,0.2,0.1,0.5,0,0.6c-1.1,0-1.9-0.1-2.8-0.1
			c-1,0-1.7,0-2.5,0.1c-0.2-0.1-0.2-0.5,0-0.6l0.6-0.1c0.6-0.1,0.9-0.2,1.1-0.5c0.3-0.9,0.3-3.8,0.3-4.9v-6.9c0-0.7,0-1.2-0.5-1.7
			c-0.3-0.3-0.9-0.5-1.5-0.6l-0.4,0c-0.1-0.1-0.1-0.5,0-0.6c1,0.1,2.3,0.1,2.7,0.1c0.4,0,0.8,0,1.1-0.1c0.5,1.2,3.3,4.4,4.1,5.3
			l2.3,2.6c1.7,1.8,2.8,3.2,4,4.3h0c0.1-0.1,0.1-0.5,0.1-1V14c0-1.1,0-4.2-0.5-5c-0.1-0.2-0.5-0.4-1.5-0.5l-0.4,0
			c-0.2-0.1-0.1-0.5,0-0.6c1.1,0,1.9,0.1,2.8,0.1c1,0,1.7,0,2.5-0.1c0.2,0.1,0.2,0.5,0,0.6l-0.3,0c-0.8,0.1-1.2,0.3-1.3,0.5
			c-0.4,0.9-0.4,3.8-0.4,4.9L215.6,19.7L215.6,19.7z"/>
	</g>
	<g>
		<defs>
			<rect id="SVGID_00000013154955805073006800000007406842933906891138_" x="47" y="4.9" width="180" height="24.6"/>
		</defs>
		<clipPath id="SVGID_00000119839444468689108490000009949729229165972919_">
			<use xlink:href="#SVGID_00000013154955805073006800000007406842933906891138_"  style="overflow:visible;"/>
		</clipPath>
		<path style="clip-path:url(#SVGID_00000119839444468689108490000009949729229165972919_);fill:#002361;" d="M221.9,24.2
			c-2,0-3.3-0.6-3.7-0.9c-0.3-0.5-0.6-2.2-0.6-3.4c0.1-0.2,0.5-0.2,0.6-0.1c0.4,1.2,1.3,3.6,4.1,3.6c2,0,3-1.3,3-2.8
			c0-1.1-0.2-2.2-2-3.4l-2.3-1.5c-1.2-0.8-2.6-2.2-2.6-4.1c0-2.3,1.8-4.1,4.9-4.1c0.7,0,1.6,0.1,2.2,0.3c0.3,0.1,0.6,0.1,0.8,0.1
			c0.2,0.6,0.4,1.9,0.4,2.9c-0.1,0.1-0.5,0.2-0.6,0.1c-0.3-1.2-1-2.7-3.3-2.7c-2.4,0-2.9,1.6-2.9,2.7c0,1.4,1.2,2.4,2,3l1.9,1.2
			c1.5,0.9,3,2.3,3,4.6C227,22.4,225,24.2,221.9,24.2"/>
	</g>
</g>
</svg>
