<?xml version="1.0" encoding="iso-8859-1"?>
<!-- Generator: Adobe Illustrator 25.4.1, SVG Export Plug-In . SVG Version: 6.00 Build 0)  -->
<svg version="1.1" id="Layer_1" xmlns="http://www.w3.org/2000/svg" xmlns:xlink="http://www.w3.org/1999/xlink" x="0px" y="0px"
	 viewBox="0 0 45 48" style="enable-background:new 0 0 45 48;" xml:space="preserve">
<g>
	<defs>
		<rect id="SVGID_1_" width="45" height="48"/>
	</defs>
	<clipPath id="SVGID_00000039851841907993274540000008081821855811297981_">
		<use xlink:href="#SVGID_1_"  style="overflow:visible;"/>
	</clipPath>
	<path style="clip-path:url(#SVGID_00000039851841907993274540000008081821855811297981_);fill:#002361;" d="M10.227,31.44h4.936
		c0.838-3.449,2.064-6.191,3.537-7.874C15.21,24.716,12.211,27.564,10.227,31.44"/>
	<path style="clip-path:url(#SVGID_00000039851841907993274540000008081821855811297981_);fill:#002361;" d="M6.909,30.337
		c0.197,0.374,0.395,0.744,0.598,1.104H8.82c1.266-2.651,2.97-4.893,4.981-6.557C11.109,26.164,8.753,28.035,6.909,30.337"/>
	<path style="clip-path:url(#SVGID_00000039851841907993274540000008081821855811297981_);fill:#002361;" d="M35.13,34.053
		c-0.161-0.452-0.327-0.898-0.512-1.33h-5.237c0.435,2.113,0.725,4.455,0.853,6.946h0.27C32.072,38.104,33.654,36.239,35.13,34.053"
		/>
	<path style="clip-path:url(#SVGID_00000039851841907993274540000008081821855811297981_);fill:#002361;" d="M16.466,31.44h5.018
		v-8.354C19.571,23.648,17.666,26.685,16.466,31.44"/>
	<path style="clip-path:url(#SVGID_00000039851841907993274540000008081821855811297981_);fill:#002361;" d="M9.12,34.05
		c1.477,2.189,3.059,4.054,4.627,5.619h0.269c0.128-2.491,0.418-4.833,0.853-6.946H9.632C9.447,33.154,9.282,33.6,9.12,34.05"/>
	<path style="clip-path:url(#SVGID_00000039851841907993274540000008081821855811297981_);fill:#002361;" d="M21.484,32.723h-5.319
		c-0.434,2.056-0.734,4.393-0.866,6.946h6.185V32.723z"/>
	<path style="clip-path:url(#SVGID_00000039851841907993274540000008081821855811297981_);fill:#002361;" d="M15.248,40.951
		c-0.001,0.045-0.001,0.09-0.002,0.135c2.36,2.106,4.585,3.546,6.237,4.433v-4.568H15.248z"/>
	<path style="clip-path:url(#SVGID_00000039851841907993274540000008081821855811297981_);fill:#002361;" d="M22.766,45.522
		c1.651-0.89,3.877-2.327,6.238-4.436c-0.002-0.044-0.002-0.09-0.003-0.135h-6.235V45.522z"/>
	<path style="clip-path:url(#SVGID_00000039851841907993274540000008081821855811297981_);fill:#002361;" d="M30.451,24.886
		c2.01,1.665,3.714,3.905,4.979,6.555h1.316c0.203-0.36,0.401-0.728,0.596-1.102C35.498,28.035,33.143,26.165,30.451,24.886"/>
	<path style="clip-path:url(#SVGID_00000039851841907993274540000008081821855811297981_);fill:#002361;" d="M6.281,29.081
		c3.812-4.503,9.495-7.373,15.843-7.373h0.001h0.003c6.346,0.001,12.03,2.871,15.842,7.375c2.522-5.271,4.28-11.913,4.28-20.19
		V5.401c0-0.488-0.344-0.895-0.802-0.989l-0.014-0.005C35.208,3.075,28.748,2.37,22.125,2.37c-6.633,0-13.099,0.707-19.332,2.042
		L2.766,4.42C2.326,4.529,2,4.925,2,5.401l0.002,3.492C2.002,17.169,3.759,23.811,6.281,29.081 M18.339,9.47
		c0.62-0.796,1.136-1.716,1.253-2.354c0.412,0.651,0.684,1.956-0.407,3.522c1.401,0.49,3.794-3.633,2.384-5.914
		c2.907,1.664,3.778,5.964,2.312,8.894c1.307,0.418,3.11-3.13,2.511-5.491c2.551,4.336,0.098,8.9-4.918,11.269
		c0.307-0.793,0.865-3.048-2.385-4.171C16.334,14.275,16.268,12.118,18.339,9.47"/>
	<path style="clip-path:url(#SVGID_00000039851841907993274540000008081821855811297981_);fill:#002361;" d="M22.766,39.669h6.185
		c-0.132-2.554-0.432-4.891-0.867-6.946h-5.318V39.669z"/>
	<path style="clip-path:url(#SVGID_00000039851841907993274540000008081821855811297981_);fill:#002361;" d="M22.766,23.088v8.352
		h5.018C26.584,26.687,24.679,23.65,22.766,23.088"/>
	<path style="clip-path:url(#SVGID_00000039851841907993274540000008081821855811297981_);fill:#002361;" d="M25.549,23.565
		c1.473,1.683,2.699,4.426,3.539,7.875h4.935C32.039,27.563,29.039,24.715,25.549,23.565"/>
</g>
</svg>
