<?xml version="1.0" encoding="iso-8859-1"?>
<!-- Generator: Adobe Illustrator 25.4.1, SVG Export Plug-In . SVG Version: 6.00 Build 0)  -->
<svg version="1.1" id="Layer_1" xmlns="http://www.w3.org/2000/svg" xmlns:xlink="http://www.w3.org/1999/xlink" x="0px" y="0px"
	 viewBox="0 0 45 48" style="enable-background:new 0 0 45 48;" xml:space="preserve">
<g>
	<defs>
		<rect id="SVGID_1_" width="45" height="48"/>
	</defs>
	<clipPath id="SVGID_00000045611526231613427860000003375984673994659486_">
		<use xlink:href="#SVGID_1_"  style="overflow:visible;"/>
	</clipPath>
	<path style="clip-path:url(#SVGID_00000045611526231613427860000003375984673994659486_);fill:#002361;" d="M41.446,4.237
		l-0.014-0.005C35.781,3.024,29.937,2.338,23.954,2.22c8.125,6.159,13.385,15.29,14.613,25.372
		c2.196-5.049,3.681-11.271,3.681-18.874l0.002-3.493C42.25,4.737,41.904,4.333,41.446,4.237"/>
	<path style="clip-path:url(#SVGID_00000045611526231613427860000003375984673994659486_);fill:#002361;" d="M7.114,30.551
		c4.522,8.417,10.939,12.979,14.503,14.867c0.382,0.203,0.687,0.18,1.008,0.003c3.564-1.889,9.991-6.454,14.516-14.884
		c-4.733,2.06-9.923,3.157-15.068,3.157C16.882,33.694,11.856,32.629,7.114,30.551"/>
	<path style="clip-path:url(#SVGID_00000045611526231613427860000003375984673994659486_);fill:#002361;" d="M20.277,2.221
		C14.292,2.34,8.446,3.028,2.793,4.238L2.766,4.245C2.327,4.354,2,4.751,2,5.226l0.001,3.493c0,7.585,1.477,13.796,3.666,18.84
		C6.9,17.492,12.158,8.374,20.277,2.221"/>
	<path style="clip-path:url(#SVGID_00000045611526231613427860000003375984673994659486_);fill:#002361;" d="M22.116,2.716
		C13.739,8.653,7.997,18.083,7.021,28.878c2.423,1.121,4.916,1.95,7.44,2.499c2.522,0.549,5.074,0.817,7.612,0.817
		c2.615,0,5.215-0.285,7.753-0.841c2.538-0.558,5.015-1.387,7.383-2.475C36.231,18.083,30.493,8.653,22.116,2.716 M22.073,28.875
		c-3.944,0-7.783-0.698-11.442-2.079c1.287-7.795,5.361-14.856,11.485-19.904c6.119,5.045,10.191,12.101,11.482,19.894
		C29.918,28.157,25.978,28.875,22.073,28.875"/>
	<path style="clip-path:url(#SVGID_00000045611526231613427860000003375984673994659486_);fill:#002361;" d="M18.52,24.325
		c0-0.439,0.287-0.801,0.681-0.936c0.028-1.01,0.258-2.488,1.066-4.209h-1.211c-1.083,0.823-1.703,1.705-2.372,4.499
		c0.152,0.175,0.252,0.397,0.252,0.646H18.52z"/>
	<path style="clip-path:url(#SVGID_00000045611526231613427860000003375984673994659486_);fill:#002361;" d="M25.011,23.389
		c0.394,0.135,0.681,0.497,0.681,0.936h1.623c0-0.242,0.096-0.456,0.239-0.628c-0.67-2.81-1.289-3.693-2.376-4.517h-1.232
		C24.753,20.905,24.984,22.38,25.011,23.389"/>
	<path style="clip-path:url(#SVGID_00000045611526231613427860000003375984673994659486_);fill:#002361;" d="M20.52,24.325h3.172
		c0-0.363,0.204-0.668,0.494-0.843c-0.021-1.077-0.278-2.593-1.148-4.302h-0.544h-0.778h-0.541
		c-0.872,1.709-1.128,3.225-1.149,4.302C20.316,23.657,20.52,23.962,20.52,24.325"/>
	<polygon style="clip-path:url(#SVGID_00000045611526231613427860000003375984673994659486_);fill:#002361;" points="19.875,25.575 
		16.436,25.575 16.436,27.101 27.814,27.101 27.814,25.575 24.335,25.575 	"/>
	<path style="clip-path:url(#SVGID_00000045611526231613427860000003375984673994659486_);fill:#002361;" d="M21.868,12.071h0.497
		h0.558c0,0,0.115-0.703-0.432-0.898c-0.116-0.625-0.077-1.219-0.157-1.727c-0.022-0.242-0.117-0.458-0.218-0.463
		c-0.101,0.005-0.194,0.221-0.218,0.463c-0.078,0.508-0.04,1.102-0.155,1.727c-0.548,0.195-0.43,0.898-0.43,0.898H21.868z"/>
	<path style="clip-path:url(#SVGID_00000045611526231613427860000003375984673994659486_);fill:#002361;" d="M23.878,17.593
		c-0.077-0.902,0.159-0.98-0.821-0.943l0.01-1.823c0.98-0.392,0.744-1.569-0.08-1.726c-0.039-0.039-1.701-0.039-1.741,0
		c-0.825,0.157-1.059,1.334-0.08,1.726l-0.01,1.823c-0.979-0.037-0.745,0.041-0.824,0.943c0,0-0.35-0.041-0.509,0.038
		c-0.234,0.118-0.274,0.355-0.393,0.55h1.921h1.512h1.919c-0.116-0.195-0.158-0.432-0.392-0.55
		C24.235,17.552,23.878,17.593,23.878,17.593"/>
</g>
</svg>
