<?xml version="1.0" encoding="iso-8859-1"?>
<!-- Generator: Adobe Illustrator 25.4.1, SVG Export Plug-In . SVG Version: 6.00 Build 0)  -->
<svg version="1.1" id="Layer_1" xmlns="http://www.w3.org/2000/svg" xmlns:xlink="http://www.w3.org/1999/xlink" x="0px" y="0px"
	 viewBox="0 0 45 48" style="enable-background:new 0 0 45 48;" xml:space="preserve">
<g>
	<defs>
		<rect id="SVGID_1_" width="45" height="48"/>
	</defs>
	<clipPath id="SVGID_00000132776337219776669090000013657123474921967802_">
		<use xlink:href="#SVGID_1_"  style="overflow:visible;"/>
	</clipPath>
	<path style="clip-path:url(#SVGID_00000132776337219776669090000013657123474921967802_);fill:#FFFFFF;" d="M22.618,7.902
		c-5.725,4.719-9.532,11.318-10.736,18.603c3.421,1.29,7.008,1.943,10.695,1.943c3.649,0,7.331-0.671,10.77-1.953
		C32.142,19.213,28.337,12.617,22.618,7.902 M22.269,11.903c0.108-0.584,0.07-1.139,0.144-1.613
		c0.022-0.227,0.109-0.428,0.205-0.433c0.093,0.005,0.181,0.206,0.202,0.433c0.075,0.474,0.038,1.029,0.147,1.613
		c0.512,0.183,0.405,0.84,0.405,0.84h-0.523h-0.464h-0.518C21.867,12.743,21.755,12.086,22.269,11.903 M19.757,19.388h1.131
		c-0.755,1.608-0.97,2.989-0.996,3.933c-0.369,0.126-0.637,0.465-0.637,0.874h-1.48c0-0.232-0.094-0.439-0.235-0.603
		C18.166,20.98,18.744,20.156,19.757,19.388 M21.738,19.388h0.505h0.726h0.508c0.815,1.596,1.053,3.013,1.073,4.02
		c-0.27,0.163-0.461,0.448-0.461,0.787h-2.964c0-0.339-0.191-0.624-0.462-0.787C20.682,22.401,20.922,20.984,21.738,19.388
		 M27.942,26.79H17.307v-1.426h3.215h4.169h3.251V26.79z M27.699,23.608c-0.133,0.162-0.225,0.362-0.225,0.587h-1.516
		c0-0.409-0.269-0.748-0.635-0.874c-0.027-0.943-0.241-2.323-0.997-3.933h1.152C26.495,20.158,27.073,20.983,27.699,23.608
		 M25.109,18.453h-1.794h-1.413h-1.796c0.111-0.183,0.149-0.403,0.368-0.514c0.149-0.074,0.475-0.036,0.475-0.036
		c0.075-0.843-0.145-0.916,0.77-0.882l0.009-1.702c-0.914-0.367-0.695-1.467,0.075-1.614c0.038-0.036,1.592-0.036,1.628,0
		c0.769,0.147,0.99,1.247,0.074,1.614l-0.009,1.702c0.916-0.034,0.695,0.039,0.768,0.882c0,0,0.332-0.038,0.478,0.036
		C24.962,18.05,25,18.27,25.109,18.453"/>
	<path style="clip-path:url(#SVGID_00000132776337219776669090000013657123474921967802_);fill:#FFFFFF;" d="M41.175,4.214
		l-0.031-0.017l-0.196-0.045C34.953,2.871,28.789,2.22,22.625,2.22c-6.172,0-12.343,0.653-18.343,1.938L4.257,4.164L4.21,4.176
		C3.203,4.429,2.5,5.332,2.5,6.369l0.002,3.266c0,23.542,14.57,33.095,19.035,35.462c0.359,0.19,0.728,0.288,1.097,0.288
		c0.374,0,0.743-0.1,1.099-0.297C28.176,42.734,42.75,33.183,42.75,9.633V6.369C42.75,5.379,42.1,4.508,41.175,4.214 M3.818,9.61
		L3.817,6.345c0-0.443,0.306-0.815,0.717-0.917l0.024-0.006c5.284-1.131,10.748-1.774,16.341-1.885
		C13.311,9.288,8.397,17.809,7.244,27.217C5.199,22.504,3.818,16.699,3.818,9.61 M23.093,43.911c-0.3,0.165-0.585,0.187-0.942-0.003
		c-3.329-1.765-9.327-6.028-13.554-13.895c4.433,1.943,9.129,2.939,13.981,2.939c4.808,0,9.658-1.026,14.083-2.951
		C32.431,37.88,26.424,42.146,23.093,43.911 M29.823,30.763c-2.371,0.52-4.801,0.786-7.245,0.786c-2.373,0-4.757-0.25-7.116-0.763
		c-2.358-0.513-4.687-1.288-6.952-2.336C9.422,18.361,14.789,9.548,22.619,4c7.828,5.548,13.191,14.361,14.104,24.45
		C34.51,29.467,32.196,30.242,29.823,30.763 M41.432,9.61c0,7.105-1.387,12.92-3.438,17.639
		c-1.149-9.423-6.065-17.956-13.659-23.712c5.592,0.109,11.053,0.751,16.336,1.88l0.013,0.005c0.427,0.089,0.75,0.466,0.75,0.923
		L41.432,9.61z"/>
</g>
</svg>
