<?xml version="1.0" encoding="iso-8859-1"?>
<!-- Generator: Adobe Illustrator 25.4.1, SVG Export Plug-In . SVG Version: 6.00 Build 0)  -->
<svg version="1.1" id="Layer_1" xmlns="http://www.w3.org/2000/svg" xmlns:xlink="http://www.w3.org/1999/xlink" x="0px" y="0px"
	 viewBox="0 0 313 129" style="enable-background:new 0 0 313 129;" xml:space="preserve">
<g>
	<defs>
		<rect id="SVGID_1_" x="43.266" y="43.392" width="40.255" height="43.376"/>
	</defs>
	<clipPath id="SVGID_00000030480024182982605270000011906324910335708313_">
		<use xlink:href="#SVGID_1_"  style="overflow:visible;"/>
	</clipPath>
	<path style="clip-path:url(#SVGID_00000030480024182982605270000011906324910335708313_);fill:#FFFFFF;" d="M74.636,47.82
		c-0.032-0.061-1.955-1.013-1.955-1.013c-2.445-0.513-6.474-0.288-9.283,0.745h-0.01c-2.811-1.033-6.836-1.258-9.282-0.745
		c0,0-1.924,0.952-1.953,1.013l-2.98,6.576c-0.097,0.183,0.056,0.339,0.225,0.305c4.53-0.86,9.732-1.125,13.993-1.125h0.004
		c4.26,0,9.463,0.265,13.992,1.125c0.171,0.034,0.322-0.122,0.226-0.305L74.636,47.82z M62.689,52.555
		c-3.229-0.128-8.801-0.128-11.595,0.872l1.986-4.97l1.353-0.724l-1.437,4.094c2.911-0.55,6.131-0.755,9.701,0.413L62.689,52.555z
		 M64.051,52.555V52.24c3.568-1.168,6.79-0.963,9.7-0.413l-1.444-4.094l1.355,0.724l1.986,4.97
		C72.997,52.427,67.424,52.427,64.051,52.555"/>
	<path style="clip-path:url(#SVGID_00000030480024182982605270000011906324910335708313_);fill:#FFFFFF;" d="M81.864,45.362
		l-0.02-0.008l-0.127-0.029c-5.998-1.283-12.163-1.933-18.324-1.933c-6.164,0-12.337,0.652-18.346,1.937l-0.059,0.012l-0.056,0.018
		c-0.961,0.237-1.667,1.139-1.667,2.182l0.002,3.265c0,23.548,14.571,33.101,19.037,35.468c0.357,0.19,0.728,0.287,1.096,0.287
		c0.37,0,0.737-0.097,1.091-0.29C68.945,83.91,83.52,74.354,83.52,50.806v-3.265C83.52,46.523,82.834,45.629,81.864,45.362
		 M62.572,84.919c-4.924-2.717-14.813-10.424-17.37-26.224l0.12-0.025c5.63-1.189,11.43-1.813,17.25-1.868V84.919z M78.15,69.775
		c-0.003,0.004-0.006,0.012-0.009,0.017c-1.046,2.167-2.229,4.088-3.475,5.773c-0.003,0.003-0.003,0.004-0.004,0.004
		c-1.134,1.533-2.311,2.882-3.482,4.045v-6.37l-3.484-2.318v11.715c-1.295,0.977-2.488,1.731-3.481,2.278V68.607l3.481,2.319v-8.107
		l3.484,2.316v-7.994c1.164,0.103,2.326,0.223,3.482,0.372v9.94l3.479,2.316v-11.73c1.114,0.19,2.223,0.393,3.326,0.626l0.119,0.026
		C80.896,62.957,79.67,66.628,78.15,69.775 M64.215,60.499v-3.697c1.162,0.01,2.323,0.04,3.481,0.097v5.919L64.215,60.499z
		 M82.203,50.806c0,2.145-0.13,4.169-0.363,6.084c-12.082-2.552-24.793-2.552-36.892,0.006c-0.234-1.918-0.364-3.944-0.364-6.09
		l-0.002-3.266c0-0.443,0.305-0.814,0.718-0.917l0.022-0.007c5.828-1.247,11.873-1.908,18.071-1.908
		c6.191,0,12.228,0.66,18.046,1.903l0.014,0.005c0.431,0.088,0.752,0.469,0.752,0.924L82.203,50.806z"/>
	<polygon style="clip-path:url(#SVGID_00000030480024182982605270000011906324910335708313_);fill:#FFFFFF;" points="74.662,67.453 
		71.18,65.136 71.18,73.244 74.662,75.561 	"/>
	<path style="clip-path:url(#SVGID_00000030480024182982605270000011906324910335708313_);fill:#FFFFFF;" d="M55.123,72.561
		c3.514,0,6.374-2.859,6.374-6.373c0-3.515-2.86-6.374-6.374-6.374s-6.373,2.859-6.373,6.374
		C48.75,69.702,51.609,72.561,55.123,72.561 M56.283,71.634c0.491-0.531,1.077-1.307,1.52-2.315c0.614,0.132,1.14,0.296,1.571,0.459
		C58.59,70.706,57.511,71.373,56.283,71.634 M59.856,69.107c-0.471-0.191-1.061-0.39-1.769-0.549
		c0.188-0.593,0.317-1.248,0.354-1.969h2.232C60.606,67.509,60.317,68.364,59.856,69.107 M59.856,63.268
		c0.461,0.744,0.75,1.598,0.817,2.518h-2.232c-0.037-0.719-0.166-1.377-0.354-1.968C58.798,63.657,59.385,63.459,59.856,63.268
		 M59.374,62.596c-0.431,0.164-0.957,0.328-1.571,0.461c-0.443-1.011-1.029-1.784-1.52-2.316
		C57.511,61.002,58.59,61.67,59.374,62.596 M55.524,61.113c0.434,0.446,1.01,1.15,1.455,2.088c-0.449,0.065-0.934,0.107-1.455,0.122
		V61.113z M55.524,64.128c0.635-0.018,1.226-0.074,1.763-0.159c0.182,0.545,0.309,1.151,0.349,1.817h-2.112V64.128z M55.524,66.589
		h2.112c-0.04,0.665-0.167,1.271-0.353,1.817c-0.534-0.087-1.124-0.14-1.759-0.159V66.589z M55.524,69.052
		c0.52,0.016,1.003,0.058,1.45,0.122c-0.443,0.935-1.017,1.639-1.45,2.083V69.052z M50.872,69.778
		c0.431-0.163,0.959-0.327,1.573-0.46c0.444,1.01,1.032,1.787,1.524,2.318C52.736,71.375,51.657,70.707,50.872,69.778 M54.72,71.253
		c-0.433-0.449-1.003-1.151-1.446-2.08c0.447-0.063,0.929-0.105,1.446-0.121V71.253z M54.72,68.247
		c-0.634,0.019-1.22,0.072-1.754,0.157c-0.186-0.544-0.314-1.15-0.352-1.815h2.106V68.247z M54.72,65.786h-2.106
		c0.038-0.665,0.166-1.271,0.352-1.817c0.534,0.085,1.12,0.141,1.754,0.159V65.786z M54.72,63.323
		c-0.517-0.015-0.999-0.057-1.446-0.121c0.443-0.93,1.013-1.633,1.446-2.08V63.323z M53.969,60.739
		c-0.492,0.532-1.08,1.306-1.524,2.318c-0.614-0.133-1.142-0.299-1.572-0.462C51.658,61.668,52.737,61,53.969,60.739 M50.389,63.268
		c0.472,0.191,1.061,0.389,1.774,0.55c-0.19,0.591-0.318,1.249-0.355,1.968h-2.235C49.638,64.866,49.929,64.011,50.389,63.268
		 M49.573,66.589h2.235c0.037,0.72,0.165,1.376,0.353,1.968c-0.711,0.16-1.3,0.359-1.772,0.55
		C49.928,68.364,49.638,67.509,49.573,66.589"/>
</g>
<g>
	<defs>
		<rect id="SVGID_00000149354010006915471260000007976696181770797982_" x="89.875" y="47.918" width="180" height="24.58"/>
	</defs>
	<clipPath id="SVGID_00000130614186388845914330000003661795807201168048_">
		<use xlink:href="#SVGID_00000149354010006915471260000007976696181770797982_"  style="overflow:visible;"/>
	</clipPath>
	<path style="clip-path:url(#SVGID_00000130614186388845914330000003661795807201168048_);fill:#FFFFFF;" d="M95.023,52.328
		c0-3.159-0.283-3.5-1.963-3.643l-0.71-0.056c-0.171-0.114-0.114-0.626,0.057-0.711c1.649,0.056,2.616,0.085,3.811,0.085
		c1.139,0,2.106-0.029,3.244-0.085c0.17,0.085,0.227,0.597,0.057,0.711l-0.427,0.056c-1.678,0.229-1.735,0.625-1.735,3.643v10.555
		c0,2.246-0.115,4.209-0.654,5.517c-0.94,2.278-2.959,4.098-5.606,4.098c-0.34,0-1.222-0.029-1.222-0.598
		c0-0.484,0.425-1.31,1.023-1.31c0.342,0,0.684,0.056,1.054,0.172c0.398,0.113,0.796,0.199,1.194,0.199
		c0.598,0,0.94-0.342,1.139-0.74c0.654-1.338,0.738-5.604,0.738-7.141V52.328z"/>
	<path style="clip-path:url(#SVGID_00000130614186388845914330000003661795807201168048_);fill:#FFFFFF;" d="M99.459,59.027
		c0-4.799,3.601-8.472,8.544-8.472c5.544,0,8.328,4.008,8.328,8.232c0,4.848-3.696,8.375-8.328,8.375
		C102.676,67.162,99.459,63.347,99.459,59.027 M113.931,59.531c0-3.959-1.751-8.232-6.335-8.232c-2.497,0-5.736,1.705-5.736,6.961
		c0,3.55,1.728,8.16,6.455,8.16C111.196,66.42,113.931,64.26,113.931,59.531"/>
	<path style="clip-path:url(#SVGID_00000130614186388845914330000003661795807201168048_);fill:#FFFFFF;" d="M121.783,59.027
		c-1.152,0-1.2,0.049-1.2,0.77v3.382c0,2.52,0.12,2.856,1.464,3l0.695,0.073c0.145,0.095,0.096,0.527-0.047,0.599
		c-1.297-0.049-2.112-0.072-3.049-0.072c-1.031,0-1.847,0.049-2.783,0.072c-0.144-0.072-0.191-0.457-0.049-0.599l0.408-0.073
		c1.344-0.24,1.393-0.48,1.393-3v-8.64c0-2.52-0.168-2.927-1.416-3.024l-0.625-0.048c-0.144-0.096-0.095-0.528,0.049-0.6
		c1.176,0.023,1.992,0.072,3.023,0.072c0.937,0,1.752-0.023,2.784-0.072c0.144,0.072,0.193,0.504,0.048,0.6l-0.456,0.048
		c-1.391,0.144-1.439,0.504-1.439,3.024V57.3c0,0.743,0.048,0.768,1.2,0.768h6.864c1.152,0,1.201-0.025,1.201-0.768v-2.761
		c0-2.52-0.049-2.88-1.465-3.024l-0.455-0.048c-0.145-0.096-0.098-0.528,0.047-0.6c1.103,0.049,1.92,0.072,2.904,0.072
		c0.936,0,1.752-0.023,2.832-0.072c0.142,0.072,0.191,0.504,0.049,0.6l-0.506,0.048c-1.39,0.144-1.439,0.504-1.439,3.024v8.64
		c0,2.52,0.049,2.832,1.439,3l0.576,0.073c0.144,0.095,0.096,0.527-0.049,0.599c-1.15-0.049-1.966-0.072-2.902-0.072
		c-0.984,0-1.847,0.023-2.904,0.072c-0.145-0.072-0.192-0.457-0.047-0.599l0.455-0.073c1.465-0.24,1.465-0.48,1.465-3v-3.382
		c0-0.721-0.049-0.77-1.201-0.77H121.783z"/>
	<path style="clip-path:url(#SVGID_00000130614186388845914330000003661795807201168048_);fill:#FFFFFF;" d="M150.225,62.699
		c0,0.721,0,3.576,0.07,4.199c-0.047,0.145-0.191,0.264-0.455,0.264c-0.287-0.406-0.984-1.246-3.072-3.623l-5.568-6.336
		c-0.647-0.744-2.28-2.712-2.784-3.238h-0.046c-0.098,0.287-0.122,0.838-0.122,1.558v5.233c0,1.127,0.024,4.248,0.432,4.966
		c0.145,0.266,0.625,0.409,1.225,0.457l0.744,0.073c0.144,0.191,0.119,0.48-0.049,0.599c-1.08-0.048-1.92-0.072-2.807-0.072
		c-1.009,0-1.656,0.024-2.496,0.072c-0.168-0.119-0.191-0.457-0.049-0.599l0.649-0.073c0.551-0.072,0.935-0.216,1.057-0.48
		c0.333-0.863,0.31-3.791,0.31-4.943V53.82c0-0.673-0.023-1.178-0.527-1.728c-0.336-0.336-0.912-0.505-1.489-0.577l-0.408-0.047
		c-0.144-0.144-0.144-0.503,0.049-0.601c1.008,0.072,2.279,0.072,2.711,0.072c0.385,0,0.793-0.023,1.105-0.072
		c0.479,1.225,3.311,4.393,4.104,5.281l2.328,2.615c1.654,1.848,2.83,3.192,3.959,4.344h0.049c0.096-0.119,0.096-0.504,0.096-1.008
		v-5.136c0-1.128-0.024-4.247-0.481-4.968c-0.144-0.216-0.527-0.36-1.488-0.48l-0.408-0.047c-0.168-0.144-0.143-0.529,0.048-0.601
		c1.104,0.049,1.92,0.072,2.833,0.072c1.031,0,1.654-0.023,2.47-0.072c0.194,0.121,0.194,0.457,0.049,0.601l-0.336,0.047
		c-0.767,0.12-1.248,0.313-1.344,0.504c-0.408,0.864-0.359,3.84-0.359,4.944V62.699z"/>
	<path style="clip-path:url(#SVGID_00000130614186388845914330000003661795807201168048_);fill:#FFFFFF;" d="M156.568,67.162
		c-2.018,0-3.289-0.623-3.744-0.887c-0.289-0.529-0.602-2.232-0.649-3.359c0.12-0.17,0.481-0.217,0.577-0.072
		c0.359,1.222,1.343,3.576,4.127,3.576c2.015,0,3-1.321,3-2.76c0-1.057-0.215-2.232-1.969-3.361l-2.279-1.489
		c-1.2-0.791-2.592-2.16-2.592-4.127c0-2.28,1.777-4.127,4.896-4.127c0.744,0,1.608,0.144,2.233,0.311
		c0.31,0.098,0.646,0.145,0.837,0.145c0.217,0.575,0.434,1.92,0.434,2.927c-0.096,0.145-0.48,0.216-0.601,0.073
		c-0.311-1.153-0.959-2.713-3.264-2.713c-2.352,0-2.856,1.56-2.856,2.666c0,1.39,1.153,2.398,2.041,2.951l1.92,1.199
		c1.512,0.936,3,2.328,3,4.608C161.679,65.363,159.687,67.162,156.568,67.162"/>
	<path style="clip-path:url(#SVGID_00000130614186388845914330000003661795807201168048_);fill:#FFFFFF;" d="M175.924,57.592
		c-1.365,0-1.422,0.055-1.422,0.908v4.012c0,2.986,0.141,3.385,1.734,3.557l0.827,0.086c0.17,0.113,0.113,0.625-0.059,0.708
		c-1.535-0.056-2.502-0.083-3.611-0.083c-1.225,0-2.192,0.056-3.301,0.083c-0.172-0.083-0.229-0.539-0.057-0.708l0.483-0.086
		c1.593-0.286,1.65-0.571,1.65-3.557V52.27c0-2.987-0.199-3.471-1.678-3.584l-0.74-0.057c-0.17-0.113-0.113-0.626,0.057-0.711
		c1.394,0.028,2.361,0.085,3.586,0.085c1.109,0,2.076-0.028,3.299-0.085c0.171,0.085,0.228,0.598,0.056,0.711l-0.541,0.057
		c-1.648,0.172-1.705,0.597-1.705,3.584v3.272c0,0.882,0.057,0.909,1.422,0.909h8.137c1.365,0,1.422-0.027,1.422-0.909V52.27
		c0-2.987-0.057-3.412-1.737-3.584l-0.541-0.057c-0.17-0.113-0.113-0.626,0.059-0.711c1.306,0.057,2.275,0.085,3.441,0.085
		c1.11,0,2.078-0.028,3.358-0.085c0.17,0.085,0.228,0.598,0.056,0.711l-0.597,0.057c-1.649,0.172-1.707,0.597-1.707,3.584v10.242
		c0,2.986,0.058,3.357,1.707,3.557l0.683,0.086c0.17,0.113,0.114,0.625-0.058,0.708c-1.364-0.056-2.332-0.083-3.442-0.083
		c-1.166,0-2.189,0.027-3.441,0.083c-0.172-0.083-0.229-0.539-0.059-0.708l0.541-0.086c1.737-0.286,1.737-0.571,1.737-3.557V58.5
		c0-0.853-0.057-0.908-1.422-0.908H175.924z"/>
	<path style="clip-path:url(#SVGID_00000130614186388845914330000003661795807201168048_);fill:#FFFFFF;" d="M190.025,59.027
		c0-4.799,3.602-8.472,8.543-8.472c5.545,0,8.328,4.008,8.328,8.232c0,4.848-3.695,8.375-8.328,8.375
		C193.242,67.162,190.025,63.347,190.025,59.027 M204.496,59.531c0-3.959-1.75-8.232-6.336-8.232c-2.494,0-5.734,1.705-5.734,6.961
		c0,3.55,1.728,8.16,6.455,8.16C201.762,66.42,204.496,64.26,204.496,59.531"/>
	<path style="clip-path:url(#SVGID_00000130614186388845914330000003661795807201168048_);fill:#FFFFFF;" d="M211.24,63.18
		c0,2.52,0.049,2.832,1.584,3l0.648,0.072c0.145,0.119,0.098,0.528-0.048,0.6c-1.368-0.049-2.159-0.072-3.12-0.072
		c-1.007,0-1.871,0.023-2.927,0.072c-0.145-0.072-0.192-0.457-0.047-0.6l0.504-0.072c1.39-0.191,1.439-0.48,1.439-3v-8.855
		c0-2.041-0.049-2.449-1.129-2.569l-0.863-0.097c-0.168-0.143-0.145-0.503,0.049-0.599c1.271-0.169,2.76-0.193,4.75-0.193
		c1.992,0,3.48,0.264,4.609,0.961c1.104,0.696,1.92,1.944,1.92,3.599c0,2.208-1.367,3.314-2.4,3.817
		c-1.057,0.504-2.328,0.719-3.313,0.719c-0.168-0.07-0.168-0.431-0.023-0.478c2.592-0.481,3.527-1.946,3.527-4.033
		c0-2.329-1.367-3.839-3.863-3.839c-1.272,0-1.297,0.094-1.297,0.864V63.18z"/>
	<path style="clip-path:url(#SVGID_00000130614186388845914330000003661795807201168048_);fill:#FFFFFF;" d="M221.227,54.539
		c0-2.52-0.049-2.904-1.439-3.023l-0.602-0.048c-0.143-0.097-0.094-0.529,0.049-0.601c1.176,0.049,1.943,0.072,3.023,0.072
		c0.936,0,1.752-0.023,2.785-0.072c0.143,0.072,0.192,0.504,0.047,0.601l-0.455,0.048c-1.392,0.143-1.441,0.503-1.441,3.023v2.762
		c0,0.455,0.049,0.91,0.314,0.91c0.215,0,0.502-0.143,0.67-0.264c0.336-0.287,0.961-0.912,1.225-1.152l2.592-2.567
		c0.455-0.433,1.632-1.657,1.871-1.992c0.121-0.169,0.17-0.289,0.17-0.385c0-0.095-0.096-0.167-0.409-0.239l-0.648-0.144
		c-0.168-0.169-0.145-0.48,0.047-0.601c0.84,0.049,1.801,0.072,2.64,0.072c0.84,0,1.657-0.023,2.375-0.072
		c0.17,0.121,0.194,0.457,0.049,0.601c-0.623,0.048-1.558,0.288-2.23,0.672c-0.672,0.383-2.018,1.511-3.362,2.784l-2.16,2.039
		c-0.336,0.338-0.552,0.553-0.552,0.744c0,0.17,0.144,0.361,0.457,0.744c2.279,2.615,4.127,4.776,6,6.744
		c0.576,0.576,1.013,0.889,1.828,0.985l0.463,0.072c0.17,0.119,0.121,0.527-0.049,0.6c-0.623-0.049-1.281-0.073-2.41-0.073
		c-0.983,0-1.825,0.024-2.928,0.073c-0.168-0.049-0.24-0.458-0.096-0.6l0.551-0.098c0.338-0.047,0.576-0.119,0.576-0.238
		c0-0.145-0.168-0.336-0.336-0.553c-0.457-0.576-1.08-1.224-1.992-2.256l-1.92-2.16c-1.367-1.535-1.752-2.015-2.328-2.015
		c-0.359,0-0.408,0.312-0.408,1.152v3.096c0,2.519,0.049,2.855,1.392,3l0.649,0.072c0.142,0.096,0.096,0.527-0.049,0.6
		c-1.176-0.049-1.992-0.073-2.928-0.073c-0.984,0-1.799,0.024-2.783,0.073c-0.144-0.073-0.193-0.432-0.049-0.6l0.481-0.072
		c1.271-0.192,1.32-0.481,1.32-3V54.539z"/>
	<path style="clip-path:url(#SVGID_00000130614186388845914330000003661795807201168048_);fill:#FFFFFF;" d="M237.699,54.588
		c0-2.544-0.047-2.953-1.465-3.072l-0.598-0.048c-0.144-0.097-0.097-0.528,0.047-0.601c1.2,0.049,2.016,0.073,3.024,0.073
		c0.961,0,1.777-0.024,2.976-0.073c0.145,0.073,0.192,0.504,0.049,0.601l-0.601,0.048c-1.416,0.119-1.463,0.528-1.463,3.072v8.543
		c0,2.545,0.047,2.881,1.463,3.049l0.601,0.072c0.143,0.096,0.096,0.527-0.049,0.6c-1.199-0.049-2.015-0.073-2.976-0.073
		c-1.008,0-1.733,0.024-2.932,0.073c-0.144-0.073-0.191-0.457-0.047-0.6l0.506-0.072c1.418-0.168,1.465-0.504,1.465-3.049V54.588z"
		/>
	<path style="clip-path:url(#SVGID_00000130614186388845914330000003661795807201168048_);fill:#FFFFFF;" d="M258.459,62.699
		c0,0.721,0,3.576,0.074,4.199c-0.049,0.145-0.193,0.264-0.457,0.264c-0.287-0.406-0.984-1.246-3.072-3.623l-5.568-6.336
		c-0.647-0.744-2.28-2.712-2.784-3.238h-0.047c-0.097,0.287-0.121,0.838-0.121,1.558v5.233c0,1.127,0.024,4.248,0.432,4.966
		c0.145,0.266,0.625,0.409,1.225,0.457l0.744,0.073c0.142,0.191,0.119,0.48-0.049,0.599c-1.08-0.048-1.92-0.072-2.807-0.072
		c-1.008,0-1.656,0.024-2.496,0.072c-0.168-0.119-0.193-0.457-0.049-0.599l0.649-0.073c0.551-0.072,0.935-0.216,1.056-0.48
		c0.336-0.863,0.311-3.791,0.311-4.943V53.82c0-0.673-0.023-1.178-0.527-1.728c-0.336-0.336-0.912-0.505-1.489-0.577l-0.408-0.047
		c-0.144-0.144-0.144-0.503,0.049-0.601c1.008,0.072,2.279,0.072,2.711,0.072c0.385,0,0.793-0.023,1.105-0.072
		c0.481,1.225,3.311,4.393,4.102,5.281l2.33,2.615c1.656,1.848,2.83,3.192,3.959,4.344h0.049c0.096-0.119,0.096-0.504,0.096-1.008
		v-5.136c0-1.128-0.024-4.247-0.481-4.968c-0.144-0.216-0.527-0.36-1.486-0.48l-0.408-0.047c-0.17-0.144-0.145-0.529,0.046-0.601
		c1.104,0.049,1.92,0.072,2.832,0.072c1.034,0,1.657-0.023,2.471-0.072c0.194,0.121,0.194,0.457,0.049,0.601l-0.336,0.047
		c-0.768,0.12-1.248,0.313-1.344,0.504c-0.408,0.864-0.361,3.84-0.361,4.944V62.699z"/>
	<path style="clip-path:url(#SVGID_00000130614186388845914330000003661795807201168048_);fill:#FFFFFF;" d="M264.764,67.162
		c-2.018,0-3.289-0.623-3.746-0.887c-0.287-0.529-0.6-2.232-0.649-3.359c0.122-0.17,0.483-0.217,0.577-0.072
		c0.361,1.222,1.345,3.576,4.129,3.576c2.015,0,3-1.321,3-2.76c0-1.057-0.217-2.232-1.969-3.361l-2.278-1.489
		c-1.201-0.791-2.593-2.16-2.593-4.127c0-2.28,1.775-4.127,4.896-4.127c0.744,0,1.608,0.144,2.233,0.311
		c0.312,0.098,0.646,0.145,0.837,0.145c0.217,0.575,0.434,1.92,0.434,2.927c-0.098,0.145-0.48,0.216-0.601,0.073
		c-0.311-1.153-0.959-2.713-3.262-2.713c-2.354,0-2.858,1.56-2.858,2.666c0,1.39,1.153,2.398,2.039,2.951l1.922,1.199
		c1.512,0.936,3,2.328,3,4.608C269.875,65.363,267.883,67.162,264.764,67.162"/>
</g>
<g>
	<defs>
		<rect id="SVGID_00000016758911940397575890000005343251242276326042_" width="313" height="129"/>
	</defs>
	<clipPath id="SVGID_00000113312143041125761440000003060481040159784352_">
		<use xlink:href="#SVGID_00000016758911940397575890000005343251242276326042_"  style="overflow:visible;"/>
	</clipPath>
	<path style="clip-path:url(#SVGID_00000113312143041125761440000003060481040159784352_);fill:#FFFFFF;" d="M116.928,85.895
		c-1.041,0-1.699-0.322-1.935-0.459c-0.149-0.272-0.31-1.153-0.335-1.736c0.063-0.087,0.249-0.113,0.297-0.037
		c0.187,0.632,0.696,1.847,2.135,1.847c1.041,0,1.551-0.681,1.551-1.426c0-0.545-0.112-1.154-1.018-1.737l-1.178-0.768
		c-0.621-0.411-1.34-1.118-1.34-2.134c0-1.179,0.918-2.134,2.53-2.134c0.385,0,0.832,0.074,1.154,0.161
		c0.161,0.05,0.335,0.074,0.434,0.074c0.112,0.298,0.224,0.993,0.224,1.514c-0.05,0.074-0.249,0.111-0.31,0.037
		c-0.162-0.596-0.496-1.402-1.688-1.402c-1.215,0-1.476,0.806-1.476,1.378c0,0.718,0.596,1.24,1.055,1.525l0.992,0.62
		c0.781,0.485,1.551,1.203,1.551,2.382C119.571,84.965,118.541,85.895,116.928,85.895"/>
	<path style="clip-path:url(#SVGID_00000113312143041125761440000003060481040159784352_);fill:#FFFFFF;" d="M122.645,78.364
		c0.905-0.707,2.059-1.054,3.35-1.054c0.67,0,1.612,0.136,2.195,0.298c0.148,0.037,0.235,0.062,0.348,0.049
		c0.011,0.286,0.074,1.067,0.173,1.824c-0.062,0.087-0.248,0.099-0.335,0.025c-0.186-0.844-0.745-1.812-2.543-1.812
		c-1.899,0-3.511,1.204-3.511,3.772c0,2.605,1.65,4.043,3.684,4.043c1.601,0,2.308-1.041,2.593-1.773
		c0.087-0.063,0.273-0.037,0.323,0.05c-0.087,0.644-0.41,1.464-0.595,1.699c-0.15,0.024-0.299,0.074-0.435,0.124
		c-0.272,0.1-1.166,0.285-1.96,0.285c-1.117,0-2.183-0.222-3.089-0.831c-0.993-0.682-1.761-1.811-1.761-3.411
		C121.081,80.275,121.701,79.096,122.645,78.364"/>
	<path style="clip-path:url(#SVGID_00000113312143041125761440000003060481040159784352_);fill:#FFFFFF;" d="M132.986,81.689
		c-0.596,0-0.621,0.024-0.621,0.396v1.75c0,1.302,0.062,1.476,0.758,1.55l0.359,0.038c0.074,0.049,0.05,0.273-0.025,0.31
		c-0.67-0.024-1.092-0.037-1.576-0.037c-0.533,0-0.955,0.024-1.438,0.037c-0.074-0.037-0.1-0.235-0.025-0.31l0.211-0.038
		c0.695-0.124,0.719-0.248,0.719-1.55v-4.466c0-1.302-0.087-1.513-0.731-1.563l-0.323-0.025c-0.075-0.049-0.05-0.273,0.024-0.31
		c0.608,0.013,1.03,0.037,1.563,0.037c0.484,0,0.906-0.012,1.44-0.037c0.074,0.037,0.099,0.261,0.024,0.31l-0.235,0.025
		c-0.72,0.074-0.745,0.261-0.745,1.563v1.426c0,0.385,0.025,0.398,0.621,0.398h3.548c0.595,0,0.62-0.013,0.62-0.398v-1.426
		c0-1.302-0.025-1.489-0.757-1.563l-0.235-0.025c-0.074-0.049-0.05-0.273,0.024-0.31c0.571,0.025,0.993,0.037,1.501,0.037
		c0.485,0,0.906-0.012,1.465-0.037c0.074,0.037,0.099,0.261,0.023,0.31l-0.259,0.025c-0.72,0.074-0.744,0.261-0.744,1.563v4.466
		c0,1.302,0.024,1.463,0.744,1.55l0.298,0.038c0.074,0.049,0.049,0.273-0.025,0.31c-0.596-0.024-1.017-0.037-1.502-0.037
		c-0.508,0-0.955,0.013-1.501,0.037c-0.074-0.037-0.098-0.235-0.024-0.31l0.235-0.038c0.757-0.124,0.757-0.248,0.757-1.55v-1.75
		c0-0.372-0.025-0.396-0.62-0.396H132.986z"/>
	<path style="clip-path:url(#SVGID_00000113312143041125761440000003060481040159784352_);fill:#FFFFFF;" d="M140.637,81.689
		c0-2.481,1.86-4.379,4.416-4.379c2.865,0,4.304,2.072,4.304,4.255c0,2.506-1.91,4.329-4.304,4.329
		C142.299,85.894,140.637,83.922,140.637,81.689 M148.117,81.95c0-2.047-0.906-4.256-3.275-4.256c-1.291,0-2.965,0.881-2.965,3.598
		c0,1.836,0.892,4.218,3.337,4.218C146.702,85.51,148.117,84.393,148.117,81.95"/>
	<path style="clip-path:url(#SVGID_00000113312143041125761440000003060481040159784352_);fill:#FFFFFF;" d="M151.115,81.689
		c0-2.481,1.86-4.379,4.416-4.379c2.866,0,4.304,2.072,4.304,4.255c0,2.506-1.91,4.329-4.304,4.329
		C152.777,85.894,151.115,83.922,151.115,81.689 M158.595,81.95c0-2.047-0.905-4.256-3.275-4.256c-1.29,0-2.965,0.881-2.965,3.598
		c0,1.836,0.893,4.218,3.337,4.218C157.18,85.51,158.595,84.393,158.595,81.95"/>
	<path style="clip-path:url(#SVGID_00000113312143041125761440000003060481040159784352_);fill:#FFFFFF;" d="M162.523,79.369
		c0-1.302-0.024-1.501-0.806-1.562l-0.31-0.026c-0.074-0.049-0.05-0.272,0.024-0.309c0.695,0.024,1.116,0.037,1.613,0.037
		c0.484,0,0.906-0.013,1.526-0.037c0.074,0.037,0.099,0.26,0.024,0.309l-0.297,0.026c-0.732,0.061-0.757,0.26-0.757,1.562v4.317
		c0,0.782,0.038,1.105,0.261,1.34c0.136,0.137,0.371,0.285,1.352,0.285c1.055,0,1.314-0.049,1.514-0.161
		c0.248-0.148,0.57-0.595,0.818-1.228c0.074-0.062,0.31-0.012,0.31,0.075c0,0.136-0.347,1.401-0.521,1.736
		c-0.633-0.024-1.811-0.037-3.089-0.037h-1.141c-0.521,0-0.918,0.013-1.613,0.037c-0.074-0.037-0.098-0.235-0.024-0.309l0.372-0.038
		c0.72-0.075,0.744-0.248,0.744-1.55V79.369z"/>
	<path style="clip-path:url(#SVGID_00000113312143041125761440000003060481040159784352_);fill:#FFFFFF;" d="M176.114,82.199
		c-0.037,0.681-0.398,1.873-1.316,2.815c-0.768,0.794-1.438,0.857-1.773,0.857c-0.794,0-1.315-0.583-1.24-1.651
		c0.049-0.768,0.508-1.971,1.351-2.778c0.646-0.62,1.203-0.807,1.712-0.807C175.729,80.635,176.164,81.292,176.114,82.199
		 M173.856,81.603c-0.72,0.968-1.203,2.443-1.241,3.102c-0.025,0.433,0.149,0.794,0.51,0.794c0.272,0,0.582-0.113,0.979-0.646
		c0.546-0.731,1.129-2.369,1.153-3.026c0.013-0.385-0.061-0.82-0.496-0.82C174.513,81.007,174.216,81.12,173.856,81.603"/>
	<path style="clip-path:url(#SVGID_00000113312143041125761440000003060481040159784352_);fill:#FFFFFF;" d="M179.709,81.268
		c-0.074,0.211-0.174,0.607-0.322,1.153c-0.372,1.39-0.707,2.581-1.104,3.946c-0.323,1.116-0.732,1.749-0.98,1.997
		c-0.186,0.174-0.757,0.67-1.489,0.67c-0.67,0-0.906-0.422-0.906-0.608c0-0.248,0.149-0.459,0.285-0.558
		c0.1-0.075,0.211-0.038,0.285,0.049c0.299,0.31,0.67,0.509,0.944,0.509c0.248,0,0.508-0.087,0.794-1.042
		c0.57-1.96,1.005-4.094,1.6-6.116h-1.03c-0.124-0.111-0.074-0.348,0.087-0.459h1.066c0.324-1.116,0.659-2.084,1.391-2.952
		c0.619-0.733,1.265-1.03,1.984-1.03c0.459,0,0.955,0.323,0.955,0.819c0,0.322-0.334,0.707-0.533,0.707
		c-0.111,0-0.162-0.112-0.174-0.198c-0.037-0.683-0.384-0.907-0.695-0.907c-0.272,0-0.607,0.249-0.892,0.67
		c-0.571,0.831-0.819,1.712-1.155,2.891h1.551c0.088,0.137,0.063,0.322-0.123,0.459H179.709z"/>
	<path style="clip-path:url(#SVGID_00000113312143041125761440000003060481040159784352_);fill:#FFFFFF;" d="M193.922,83.587
		c0,0.373,0,1.849,0.037,2.172c-0.024,0.074-0.098,0.136-0.235,0.136c-0.15-0.211-0.509-0.645-1.588-1.873l-2.878-3.276
		c-0.335-0.384-1.179-1.401-1.44-1.674h-0.024c-0.05,0.149-0.061,0.434-0.061,0.806v2.705c0,0.583,0.011,2.195,0.222,2.567
		c0.074,0.137,0.322,0.211,0.633,0.236l0.385,0.038c0.074,0.099,0.061,0.248-0.026,0.309c-0.558-0.024-0.992-0.037-1.451-0.037
		c-0.521,0-0.855,0.013-1.29,0.037c-0.087-0.061-0.098-0.235-0.024-0.309l0.334-0.038c0.285-0.037,0.484-0.112,0.547-0.248
		c0.173-0.447,0.16-1.96,0.16-2.555v-3.586c0-0.347-0.012-0.607-0.273-0.892c-0.173-0.174-0.471-0.261-0.768-0.298l-0.211-0.026
		c-0.074-0.074-0.074-0.259,0.024-0.309c0.521,0.037,1.179,0.037,1.402,0.037c0.199,0,0.41-0.013,0.571-0.037
		c0.248,0.633,1.712,2.27,2.121,2.729l1.203,1.352c0.857,0.955,1.464,1.65,2.047,2.245h0.024c0.051-0.062,0.051-0.26,0.051-0.521
		v-2.655c0-0.583-0.012-2.195-0.248-2.567c-0.075-0.111-0.273-0.187-0.769-0.248l-0.211-0.026c-0.087-0.074-0.075-0.272,0.024-0.309
		c0.571,0.024,0.993,0.037,1.464,0.037c0.533,0,0.855-0.013,1.277-0.037c0.1,0.061,0.1,0.235,0.026,0.309l-0.174,0.026
		c-0.397,0.061-0.645,0.161-0.694,0.26c-0.211,0.447-0.187,1.985-0.187,2.555V83.587z"/>
	<path style="clip-path:url(#SVGID_00000113312143041125761440000003060481040159784352_);fill:#FFFFFF;" d="M203.494,80.622
		c0-0.769-0.024-2.195-0.235-2.567c-0.087-0.15-0.31-0.236-0.62-0.261l-0.311-0.025c-0.074-0.086-0.049-0.248,0.025-0.297
		c0.471,0.024,0.93,0.037,1.414,0.037c0.522,0,0.856-0.013,1.303-0.037c0.1,0.061,0.086,0.222,0.025,0.297l-0.298,0.025
		c-0.311,0.025-0.545,0.137-0.62,0.298c-0.174,0.409-0.174,1.836-0.174,2.53v1.402c0,1.079-0.173,2.221-0.868,2.965
		c-0.534,0.583-1.452,0.905-2.37,0.905c-0.856,0-1.712-0.161-2.32-0.681c-0.657-0.546-0.967-1.452-0.967-2.928v-2.928
		c0-1.29-0.025-1.501-0.745-1.563l-0.309-0.025c-0.075-0.049-0.05-0.26,0.024-0.297c0.62,0.024,1.042,0.037,1.538,0.037
		c0.509,0,0.918-0.013,1.526-0.037c0.075,0.037,0.099,0.248,0.025,0.297l-0.298,0.025c-0.72,0.062-0.744,0.273-0.744,1.563v2.68
		c0,1.997,0.62,3.312,2.519,3.312c1.798,0,2.48-1.414,2.48-3.3V80.622z"/>
	<path style="clip-path:url(#SVGID_00000113312143041125761440000003060481040159784352_);fill:#FFFFFF;" d="M207.434,79.382
		c0-1.179-0.037-1.39-0.545-1.452l-0.397-0.049c-0.088-0.062-0.088-0.261,0.012-0.311c0.695-0.061,1.551-0.099,2.766-0.099
		c0.769,0,1.501,0.062,2.072,0.372c0.595,0.311,1.03,0.869,1.03,1.737c0,1.179-0.931,1.824-1.551,2.072
		c-0.061,0.074,0,0.198,0.062,0.298c0.992,1.6,1.65,2.593,2.494,3.3c0.211,0.185,0.521,0.322,0.855,0.346
		c0.063,0.026,0.074,0.124,0.013,0.174c-0.112,0.037-0.31,0.063-0.546,0.063c-1.055,0-1.687-0.311-2.568-1.564
		c-0.323-0.459-0.83-1.314-1.215-1.873c-0.187-0.273-0.385-0.397-0.881-0.397c-0.559,0-0.584,0.012-0.584,0.273v1.564
		c0,1.301,0.025,1.451,0.745,1.549l0.261,0.039c0.074,0.061,0.049,0.272-0.026,0.309c-0.558-0.024-0.98-0.037-1.476-0.037
		c-0.521,0-0.967,0.013-1.551,0.037c-0.074-0.037-0.098-0.223-0.024-0.309l0.31-0.039c0.72-0.086,0.744-0.248,0.744-1.549V79.382z
		 M208.451,81.156c0,0.223,0,0.359,0.038,0.409c0.037,0.037,0.224,0.062,0.857,0.062c0.445,0,0.917-0.049,1.277-0.323
		c0.334-0.26,0.62-0.694,0.62-1.538c0-0.98-0.608-1.91-1.985-1.91c-0.769,0-0.807,0.049-0.807,0.397V81.156z"/>
	<path style="clip-path:url(#SVGID_00000113312143041125761440000003060481040159784352_);fill:#FFFFFF;" d="M217.23,85.895
		c-1.041,0-1.699-0.322-1.935-0.459c-0.149-0.272-0.31-1.153-0.335-1.736c0.063-0.087,0.249-0.113,0.297-0.037
		c0.187,0.632,0.696,1.847,2.135,1.847c1.041,0,1.551-0.681,1.551-1.426c0-0.545-0.112-1.154-1.018-1.737l-1.178-0.768
		c-0.62-0.411-1.34-1.118-1.34-2.134c0-1.179,0.918-2.134,2.53-2.134c0.385,0,0.832,0.074,1.154,0.161
		c0.161,0.05,0.335,0.074,0.434,0.074c0.112,0.298,0.224,0.993,0.224,1.514c-0.05,0.074-0.248,0.111-0.31,0.037
		c-0.162-0.596-0.496-1.402-1.687-1.402c-1.216,0-1.477,0.806-1.477,1.378c0,0.718,0.596,1.24,1.055,1.525l0.992,0.62
		c0.781,0.485,1.551,1.203,1.551,2.382C219.873,84.965,218.843,85.895,217.23,85.895"/>
	<path style="clip-path:url(#SVGID_00000113312143041125761440000003060481040159784352_);fill:#FFFFFF;" d="M222.724,79.395
		c0-1.315-0.024-1.526-0.757-1.588l-0.31-0.025c-0.075-0.049-0.049-0.273,0.025-0.31c0.62,0.025,1.042,0.037,1.563,0.037
		c0.496,0,0.918-0.012,1.539-0.037c0.074,0.037,0.099,0.261,0.024,0.31l-0.31,0.025c-0.732,0.062-0.757,0.273-0.757,1.588v4.416
		c0,1.315,0.025,1.488,0.757,1.575l0.31,0.038c0.075,0.049,0.05,0.273-0.024,0.31c-0.621-0.025-1.043-0.037-1.539-0.037
		c-0.521,0-0.943,0.012-1.563,0.037c-0.074-0.037-0.1-0.235-0.025-0.31l0.31-0.038c0.733-0.087,0.757-0.26,0.757-1.575V79.395z"/>
	<path style="clip-path:url(#SVGID_00000113312143041125761440000003060481040159784352_);fill:#FFFFFF;" d="M234.209,83.587
		c0,0.373,0,1.849,0.037,2.172c-0.024,0.074-0.099,0.136-0.235,0.136c-0.15-0.211-0.509-0.645-1.588-1.873l-2.878-3.276
		c-0.335-0.384-1.179-1.401-1.44-1.674h-0.024c-0.05,0.149-0.062,0.434-0.062,0.806v2.705c0,0.583,0.012,2.195,0.223,2.567
		c0.074,0.137,0.322,0.211,0.633,0.236l0.385,0.038c0.074,0.099,0.061,0.248-0.026,0.309c-0.558-0.024-0.992-0.037-1.451-0.037
		c-0.521,0-0.855,0.013-1.29,0.037c-0.087-0.061-0.099-0.235-0.024-0.309l0.334-0.038c0.285-0.037,0.484-0.112,0.547-0.248
		c0.173-0.447,0.16-1.96,0.16-2.555v-3.586c0-0.347-0.012-0.607-0.273-0.892c-0.173-0.174-0.471-0.261-0.768-0.298l-0.211-0.026
		c-0.074-0.074-0.074-0.259,0.024-0.309c0.521,0.037,1.179,0.037,1.402,0.037c0.199,0,0.41-0.013,0.571-0.037
		c0.248,0.633,1.712,2.27,2.121,2.729l1.203,1.352c0.856,0.955,1.464,1.65,2.047,2.245h0.024c0.051-0.062,0.051-0.26,0.051-0.521
		v-2.655c0-0.583-0.013-2.195-0.248-2.567c-0.075-0.111-0.273-0.187-0.769-0.248l-0.211-0.026c-0.087-0.074-0.075-0.272,0.024-0.309
		c0.571,0.024,0.993,0.037,1.464,0.037c0.533,0,0.855-0.013,1.277-0.037c0.1,0.061,0.1,0.235,0.026,0.309l-0.174,0.026
		c-0.397,0.061-0.645,0.161-0.695,0.26c-0.21,0.447-0.186,1.985-0.186,2.555V83.587z"/>
	<path style="clip-path:url(#SVGID_00000113312143041125761440000003060481040159784352_);fill:#FFFFFF;" d="M244.314,84.431
		c0,0.496,0.075,0.794,0.299,0.881c0.037,0.037,0.037,0.112-0.013,0.149c-0.149,0-0.372,0.049-0.608,0.112
		c-0.657,0.173-1.551,0.322-2.221,0.322c-1.476,0-2.828-0.409-3.783-1.377c-0.744-0.744-1.141-1.725-1.141-2.816
		c0-1.054,0.347-2.122,1.115-2.94c0.832-0.868,2.061-1.451,3.934-1.451c0.707,0,1.364,0.136,1.575,0.185
		c0.236,0.05,0.62,0.137,0.769,0.113c0,0.409,0.074,1.053,0.186,1.799c-0.037,0.098-0.26,0.111-0.335,0.037
		c-0.347-1.34-1.277-1.762-2.543-1.762c-2.406,0-3.461,1.712-3.461,3.572c0,2.382,1.229,4.255,3.721,4.255
		c0.77,0,1.229-0.161,1.365-0.372c0.063-0.087,0.124-0.31,0.124-0.707v-0.496c0-1.042-0.037-1.116-0.805-1.203l-0.547-0.063
		c-0.1-0.049-0.086-0.272,0-0.309c0.359,0.024,1.043,0.037,1.774,0.037c0.484,0,0.906-0.013,1.316-0.037
		c0.086,0.05,0.098,0.235,0.011,0.309l-0.198,0.026c-0.52,0.061-0.534,0.409-0.534,1.042V84.431z"/>
</g>
</svg>
