<?xml version="1.0" encoding="iso-8859-1"?>
<!-- Generator: Adobe Illustrator 25.4.1, SVG Export Plug-In . SVG Version: 6.00 Build 0)  -->
<svg version="1.1" id="Layer_1" xmlns="http://www.w3.org/2000/svg" xmlns:xlink="http://www.w3.org/1999/xlink" x="0px" y="0px"
	 viewBox="0 0 45 48" style="enable-background:new 0 0 45 48;" xml:space="preserve">
<g>
	<defs>
		<rect id="SVGID_1_" width="45" height="48"/>
	</defs>
	<clipPath id="SVGID_00000109708825072120680940000004916456203838644914_">
		<use xlink:href="#SVGID_1_"  style="overflow:visible;"/>
	</clipPath>
	<path style="clip-path:url(#SVGID_00000109708825072120680940000004916456203838644914_);fill:#002361;" d="M36.628,31.753
		c3.221-5.627,5.622-13.072,5.622-22.75V5.511c0-0.487-0.345-0.893-0.804-0.989l-0.013-0.006c-6.225-1.33-12.684-2.035-19.308-2.035
		c-6.632,0-13.098,0.707-19.332,2.041L2.767,4.53C2.327,4.638,2,5.036,2,5.511l0.001,3.492c0,9.685,2.406,17.137,5.63,22.765
		c3.742-3.669,8.863-5.941,14.506-5.941C27.773,25.827,32.887,28.091,36.628,31.753 M16.567,16.579l-1.252,3.166
		c-0.165,0.398-0.401,1-0.401,1.441c0,0.36,0.236,0.641,0.968,0.641h0.52v0.602c-0.828-0.041-1.795-0.061-2.906-0.061
		c-0.523,0-1.038,0.008-1.489,0.02c-0.606,0.193-1.307,0.3-2.106,0.3c-0.32,0-2.063-0.021-3.585-0.502l-0.081-3.283h0.204
		c0.203,0,0.535,0.739,0.655,1.045c0.536,1.258,1.79,2.061,3.147,2.061c1.723,0,3.205-1.043,3.205-2.727
		c0-1.762-1.382-2.443-2.504-2.982l-2.163-1.022c-1.522-0.722-2.583-1.804-2.583-3.447c0-2.063,1.762-3.926,4.466-3.926
		c1.261,0,2.504,0.301,3.745,0.541v3.365h-0.68c-0.02-0.64-0.181-3.144-3.205-3.144c-1.662,0-2.725,1.062-2.725,2.363
		c0,1.162,0.602,1.983,2.263,2.744l1.844,0.842c1.294,0.594,2.666,1.527,2.934,3.162l4.565-10.174h0.448l5.969,12.073v-9.268
		c0-1.301-0.402-1.642-1.321-1.642h-0.361V8.165c0.702,0.021,1.66,0.06,2.563,0.06c0.882,0,1.723-0.039,2.563-0.06v0.602h-0.358
		c-0.923,0-1.323,0.341-1.323,1.642v9.774c0,1.302,0.4,1.644,1.323,1.644h0.108l-0.071-2.924h0.601
		c0.159,1.842,1.701,3.106,3.405,3.106c1.722,0,3.205-1.043,3.205-2.727c0-1.762-1.383-2.443-2.504-2.982l-2.163-1.022
		c-1.522-0.722-2.585-1.804-2.585-3.447c0-2.063,1.763-3.926,4.468-3.926c1.261,0,2.505,0.301,3.745,0.541v3.365h-0.682
		c-0.019-0.64-0.18-3.144-3.204-3.144c-1.663,0-2.723,1.062-2.723,2.363c0,1.162,0.601,1.983,2.263,2.744l1.843,0.842
		c1.445,0.662,2.985,1.744,2.985,3.746c0,2.504-1.644,4.326-4.989,4.326c-0.249,0-1.365-0.013-2.566-0.248l-0.778-0.011
		c-0.153-0.004-0.306-0.01-0.459-0.016v0.016c-0.897-0.041-1.986-0.061-3.213-0.061c-1.252,0-2.385,0.02-3.26,0.061v-0.602h0.591
		c0.756,0,1.204-0.221,1.204-0.641c0-0.279-0.236-0.822-0.331-1.003l-1.725-3.604H16.567z"/>
	<polygon style="clip-path:url(#SVGID_00000109708825072120680940000004916456203838644914_);fill:#002361;" points="16.875,15.817 
		21.716,15.817 19.071,10.329 	"/>
	<path style="clip-path:url(#SVGID_00000109708825072120680940000004916456203838644914_);fill:#002361;" d="M21.243,33.421V28.53
		c-1.501,1.399-2.81,2.942-3.918,4.588C18.625,33.292,19.932,33.388,21.243,33.421"/>
	<path style="clip-path:url(#SVGID_00000109708825072120680940000004916456203838644914_);fill:#002361;" d="M14.286,39.362
		c2.288,0.398,4.608,0.623,6.957,0.668v-4.814c-1.665-0.038-3.319-0.184-4.954-0.442C15.461,36.239,14.792,37.776,14.286,39.362"/>
	<path style="clip-path:url(#SVGID_00000109708825072120680940000004916456203838644914_);fill:#002361;" d="M15.418,41.347
		c2.186,1.924,4.243,3.279,5.825,4.152v-3.683C19.281,41.781,17.338,41.62,15.418,41.347"/>
	<path style="clip-path:url(#SVGID_00000109708825072120680940000004916456203838644914_);fill:#002361;" d="M9.064,32.88
		c-0.163,0.154-0.313,0.32-0.469,0.48c1.283,2.01,2.662,3.762,4.055,5.274c0.476-1.443,1.072-2.846,1.797-4.197
		C12.623,34.056,10.824,33.536,9.064,32.88"/>
	<path style="clip-path:url(#SVGID_00000109708825072120680940000004916456203838644914_);fill:#002361;" d="M19.387,27.839
		c-3.265,0.475-6.257,1.783-8.765,3.707c1.563,0.531,3.154,0.951,4.77,1.258C16.512,31.027,17.848,29.36,19.387,27.839"/>
	<path style="clip-path:url(#SVGID_00000109708825072120680940000004916456203838644914_);fill:#002361;" d="M33.65,31.546
		c-2.514-1.932-5.518-3.24-8.795-3.715c1.541,1.527,2.883,3.196,4.004,4.975C30.48,32.499,32.081,32.079,33.65,31.546"/>
	<path style="clip-path:url(#SVGID_00000109708825072120680940000004916456203838644914_);fill:#002361;" d="M29.802,34.442
		c0.723,1.35,1.322,2.754,1.796,4.193c1.397-1.515,2.78-3.271,4.067-5.291c-0.151-0.154-0.297-0.316-0.453-0.464
		C33.444,33.538,31.636,34.057,29.802,34.442"/>
	<path style="clip-path:url(#SVGID_00000109708825072120680940000004916456203838644914_);fill:#002361;" d="M23.029,28.556v4.865
		c1.303-0.033,2.605-0.129,3.896-0.299C25.823,31.482,24.519,29.951,23.029,28.556"/>
	<path style="clip-path:url(#SVGID_00000109708825072120680940000004916456203838644914_);fill:#002361;" d="M27.958,34.78
		c-1.623,0.254-3.269,0.398-4.929,0.436v4.814c2.343-0.045,4.656-0.268,6.936-0.664C29.456,37.784,28.79,36.245,27.958,34.78"/>
	<path style="clip-path:url(#SVGID_00000109708825072120680940000004916456203838644914_);fill:#002361;" d="M23.029,45.487
		c1.579-0.875,3.627-2.223,5.799-4.139c-1.912,0.272-3.846,0.432-5.799,0.467V45.487z"/>
</g>
</svg>
