<?xml version="1.0" encoding="iso-8859-1"?>
<!-- Generator: Adobe Illustrator 25.4.1, SVG Export Plug-In . SVG Version: 6.00 Build 0)  -->
<svg version="1.1" id="Layer_1" xmlns="http://www.w3.org/2000/svg" xmlns:xlink="http://www.w3.org/1999/xlink" x="0px" y="0px"
	 viewBox="0 0 45 48" style="enable-background:new 0 0 45 48;" xml:space="preserve">
<g>
	<defs>
		<rect id="SVGID_1_" width="45" height="48"/>
	</defs>
	<clipPath id="SVGID_00000074405887377431535220000009619245564348218547_">
		<use xlink:href="#SVGID_1_"  style="overflow:visible;"/>
	</clipPath>
	<path style="clip-path:url(#SVGID_00000074405887377431535220000009619245564348218547_);fill:#FFFFFF;" d="M34.296,15.139
		l-1.722-0.787c-1.554-0.711-2.117-1.479-2.117-2.563c0-1.218,0.991-2.211,2.545-2.211c2.827,0,2.979,2.342,2.995,2.94h0.638V9.373
		c-1.158-0.224-2.322-0.507-3.5-0.507c-2.529,0-4.176,1.742-4.176,3.671c0,1.536,0.994,2.547,2.416,3.221l2.022,0.955
		c1.047,0.504,2.34,1.141,2.34,2.787c0,1.573-1.387,2.547-2.995,2.547c-1.592,0-3.035-1.18-3.182-2.902h-0.562l0.065,2.732h-0.1
		c-0.863,0-1.237-0.316-1.237-1.535v-9.133c0-1.218,0.374-1.535,1.237-1.535h0.334V9.112c-0.785,0.019-1.571,0.056-2.394,0.056
		c-0.844,0-1.741-0.037-2.396-0.056v0.562h0.338c0.858,0,1.233,0.317,1.233,1.535v8.66L20.499,8.586H20.08l-4.265,9.508
		c-0.25-1.525-1.534-2.4-2.742-2.955l-1.723-0.787c-1.554-0.711-2.115-1.479-2.115-2.563c0-1.218,0.992-2.211,2.545-2.211
		c2.827,0,2.978,2.342,2.996,2.94h0.635V9.373c-1.159-0.224-2.32-0.507-3.499-0.507c-2.528,0-4.175,1.742-4.175,3.671
		c0,1.536,0.993,2.547,2.416,3.221l2.019,0.955c1.05,0.504,2.342,1.141,2.342,2.787c0,1.573-1.386,2.547-2.996,2.547
		c-1.268,0-2.441-0.748-2.942-1.926c-0.111-0.285-0.423-0.976-0.612-0.976h-0.19l0.076,3.07c1.422,0.447,3.051,0.469,3.349,0.469
		c0.749,0,1.403-0.1,1.971-0.281c0.421-0.012,0.901-0.018,1.391-0.018c1.038,0,1.941,0.018,2.717,0.055v-0.563H16.79
		c-0.683,0-0.905-0.261-0.905-0.597c0-0.413,0.222-0.973,0.375-1.348l1.17-2.959h5.145l1.612,3.369
		c0.089,0.17,0.309,0.676,0.309,0.938c0,0.392-0.418,0.597-1.125,0.597h-0.552v0.563c0.818-0.037,1.877-0.055,3.046-0.055
		c1.148,0,2.165,0.018,3.002,0.055v-0.012c0.143,0.004,0.286,0.01,0.43,0.012l0.727,0.013c1.124,0.217,2.166,0.231,2.398,0.231
		c3.127,0,4.664-1.703,4.664-4.043C37.086,16.768,35.647,15.758,34.296,15.139 M17.719,16.262l2.052-5.129l2.473,5.129H17.719z"/>
	<path style="clip-path:url(#SVGID_00000074405887377431535220000009619245564348218547_);fill:#FFFFFF;" d="M41.201,4.485
		l-0.036-0.022l-0.217-0.05c-5.995-1.282-12.159-1.932-18.323-1.932c-6.171,0-12.343,0.652-18.343,1.939L4.257,4.426l-0.049,0.01
		C3.203,4.692,2.5,5.594,2.5,6.631l0.002,3.264c0,23.543,14.57,33.096,19.035,35.463c0.362,0.191,0.73,0.287,1.097,0.287
		c0.373,0,0.742-0.1,1.097-0.295C28.176,42.994,42.75,33.446,42.75,9.895V6.631C42.75,5.649,42.113,4.786,41.201,4.485 M9.98,32.657
		c0.145-0.149,0.287-0.305,0.438-0.448c1.645,0.614,3.327,1.098,5.032,1.454c-0.678,1.263-1.236,2.576-1.68,3.925
		C12.469,36.174,11.179,34.537,9.98,32.657 M11.875,30.961c2.344-1.796,5.14-3.019,8.192-3.464c-1.439,1.423-2.688,2.98-3.735,4.642
		C14.823,31.85,13.336,31.458,11.875,30.961 M21.801,44.001c-1.479-0.816-3.402-2.082-5.444-3.88
		c1.794,0.255,3.61,0.406,5.444,0.437V44.001z M21.801,38.891c-2.195-0.041-4.363-0.25-6.503-0.623
		c0.474-1.482,1.099-2.918,1.872-4.289c1.53,0.24,3.075,0.379,4.631,0.414V38.891z M21.801,32.713
		c-1.225-0.029-2.447-0.119-3.661-0.281c1.036-1.539,2.259-2.98,3.661-4.287V32.713z M23.471,43.993v-3.434
		c1.824-0.031,3.633-0.18,5.42-0.435C26.86,41.915,24.946,43.174,23.471,43.993 M23.471,38.891v-4.498
		c1.551-0.035,3.09-0.172,4.607-0.408c0.777,1.371,1.4,2.806,1.876,4.287C27.823,38.643,25.659,38.85,23.471,38.891 M27.112,32.436
		c-1.206,0.158-2.424,0.248-3.641,0.277v-4.545C24.864,29.471,26.082,30.901,27.112,32.436 M25.178,27.491
		c3.063,0.443,5.869,1.668,8.219,3.47c-1.466,0.5-2.964,0.891-4.477,1.18C27.871,30.477,26.618,28.918,25.178,27.491 M31.479,37.588
		c-0.442-1.345-1.002-2.658-1.678-3.92c1.715-0.357,3.404-0.843,5.056-1.459c0.146,0.139,0.282,0.291,0.425,0.436
		C34.079,34.53,32.785,36.172,31.479,37.588 M41.434,9.895c0,9.045-2.242,16.002-5.254,21.26c-3.496-3.42-8.275-5.537-13.543-5.537
		c-5.274,0-10.06,2.123-13.558,5.552C6.065,25.909,3.818,18.946,3.818,9.895L3.817,6.631c0-0.445,0.304-0.816,0.717-0.918
		l0.023-0.005c5.827-1.25,11.87-1.911,18.068-1.911c6.19,0,12.227,0.659,18.046,1.905l0.011,0.006
		c0.431,0.085,0.752,0.466,0.752,0.923V9.895z"/>
</g>
</svg>
