<?xml version="1.0" encoding="iso-8859-1"?>
<!-- Generator: Adobe Illustrator 25.4.1, SVG Export Plug-In . SVG Version: 6.00 Build 0)  -->
<svg version="1.1" id="Layer_1" xmlns="http://www.w3.org/2000/svg" xmlns:xlink="http://www.w3.org/1999/xlink" x="0px" y="0px"
	 viewBox="0 0 313 129" style="enable-background:new 0 0 313 129;" xml:space="preserve">
<g>
	<defs>
		<rect id="SVGID_1_" x="43.206" y="43.356" width="40.254" height="43.375"/>
	</defs>
	<clipPath id="SVGID_00000142889453309786518560000013945772234115180675_">
		<use xlink:href="#SVGID_1_"  style="overflow:visible;"/>
	</clipPath>
	<path style="clip-path:url(#SVGID_00000142889453309786518560000013945772234115180675_);fill:#002361;" d="M82.657,45.372
		l-0.014-0.005c-5.652-1.208-11.496-1.894-17.48-2.012c8.126,6.159,13.387,15.29,14.615,25.375
		c2.196-5.05,3.681-11.273,3.681-18.877l0.002-3.493C83.461,45.872,83.115,45.468,82.657,45.372"/>
	<path style="clip-path:url(#SVGID_00000142889453309786518560000013945772234115180675_);fill:#002361;" d="M48.321,71.689
		c4.522,8.418,10.94,12.98,14.505,14.869c0.382,0.203,0.687,0.18,1.008,0.003c3.564-1.89,9.992-6.455,14.517-14.886
		c-4.733,2.06-9.924,3.158-15.069,3.158C58.091,74.833,53.064,73.767,48.321,71.689"/>
	<path style="clip-path:url(#SVGID_00000142889453309786518560000013945772234115180675_);fill:#002361;" d="M61.486,43.356
		C55.5,43.475,49.654,44.163,44,45.373l-0.027,0.007c-0.439,0.109-0.766,0.506-0.766,0.981l0.001,3.494
		c0,7.586,1.477,13.797,3.666,18.842C48.108,58.629,53.366,49.51,61.486,43.356"/>
	<path style="clip-path:url(#SVGID_00000142889453309786518560000013945772234115180675_);fill:#002361;" d="M63.325,43.851
		c-8.378,5.938-14.121,15.369-15.097,26.165c2.424,1.121,4.917,1.95,7.441,2.499c2.522,0.549,5.075,0.817,7.613,0.817
		c2.615,0,5.216-0.285,7.754-0.841c2.538-0.558,5.015-1.387,7.384-2.475C77.442,59.22,71.703,49.789,63.325,43.851 M63.282,70.013
		c-3.944,0-7.784-0.698-11.443-2.079c1.287-7.796,5.361-14.858,11.486-19.906c6.12,5.045,10.192,12.102,11.482,19.896
		C71.128,69.295,67.187,70.013,63.282,70.013"/>
	<path style="clip-path:url(#SVGID_00000142889453309786518560000013945772234115180675_);fill:#002361;" d="M59.728,65.463
		c0-0.438,0.287-0.801,0.681-0.936c0.028-1.01,0.258-2.488,1.066-4.21h-1.211c-1.083,0.824-1.703,1.706-2.372,4.5
		c0.151,0.175,0.252,0.397,0.252,0.646H59.728z"/>
	<path style="clip-path:url(#SVGID_00000142889453309786518560000013945772234115180675_);fill:#002361;" d="M66.22,64.527
		c0.394,0.135,0.681,0.497,0.681,0.936h1.623c0-0.242,0.096-0.456,0.239-0.628c-0.67-2.81-1.289-3.693-2.376-4.517h-1.232
		C65.962,62.042,66.193,63.517,66.22,64.527"/>
	<path style="clip-path:url(#SVGID_00000142889453309786518560000013945772234115180675_);fill:#002361;" d="M61.728,65.463H64.9
		c0-0.363,0.204-0.668,0.494-0.843c-0.021-1.077-0.278-2.593-1.148-4.303h-0.544h-0.778h-0.541c-0.872,1.71-1.128,3.226-1.149,4.303
		C61.524,64.795,61.728,65.1,61.728,65.463"/>
	<polygon style="clip-path:url(#SVGID_00000142889453309786518560000013945772234115180675_);fill:#002361;" points="61.083,66.713 
		57.644,66.713 57.644,68.239 69.023,68.239 69.023,66.713 65.543,66.713 	"/>
	<path style="clip-path:url(#SVGID_00000142889453309786518560000013945772234115180675_);fill:#002361;" d="M63.077,53.207h0.497
		h0.558c0,0,0.115-0.703-0.432-0.898c-0.116-0.625-0.077-1.219-0.157-1.727c-0.022-0.242-0.117-0.458-0.218-0.463
		c-0.101,0.005-0.194,0.221-0.218,0.463c-0.078,0.508-0.04,1.102-0.155,1.727c-0.548,0.195-0.43,0.898-0.43,0.898H63.077z"/>
	<path style="clip-path:url(#SVGID_00000142889453309786518560000013945772234115180675_);fill:#002361;" d="M65.087,58.729
		c-0.077-0.902,0.159-0.98-0.821-0.943l0.009-1.823c0.981-0.392,0.745-1.569-0.079-1.726c-0.039-0.039-1.701-0.039-1.741,0
		c-0.825,0.157-1.059,1.334-0.08,1.726l-0.01,1.823c-0.979-0.037-0.745,0.041-0.824,0.943c0,0-0.35-0.041-0.509,0.038
		c-0.234,0.118-0.274,0.355-0.393,0.55h1.921h1.512h1.919c-0.116-0.195-0.158-0.432-0.392-0.55
		C65.443,58.688,65.087,58.729,65.087,58.729"/>
</g>
<g>
	<defs>
		<rect id="SVGID_00000096770481782247908750000003683079611233114809_" x="89.875" y="47.918" width="180" height="24.58"/>
	</defs>
	<clipPath id="SVGID_00000040558911797171790280000017227899283574917049_">
		<use xlink:href="#SVGID_00000096770481782247908750000003683079611233114809_"  style="overflow:visible;"/>
	</clipPath>
	<path style="clip-path:url(#SVGID_00000040558911797171790280000017227899283574917049_);fill:#002361;" d="M95.023,52.328
		c0-3.159-0.283-3.5-1.963-3.643l-0.71-0.056c-0.171-0.114-0.114-0.626,0.057-0.711c1.649,0.056,2.616,0.085,3.811,0.085
		c1.139,0,2.106-0.029,3.243-0.085c0.171,0.085,0.229,0.597,0.058,0.711l-0.427,0.056c-1.678,0.229-1.735,0.625-1.735,3.643v10.555
		c0,2.246-0.115,4.209-0.654,5.517c-0.94,2.278-2.959,4.098-5.606,4.098c-0.34,0-1.222-0.029-1.222-0.598
		c0-0.484,0.425-1.31,1.023-1.31c0.342,0,0.684,0.056,1.054,0.172c0.398,0.113,0.796,0.199,1.194,0.199
		c0.598,0,0.94-0.342,1.139-0.74c0.654-1.338,0.738-5.604,0.738-7.141V52.328z"/>
	<path style="clip-path:url(#SVGID_00000040558911797171790280000017227899283574917049_);fill:#002361;" d="M99.459,59.027
		c0-4.799,3.601-8.472,8.544-8.472c5.544,0,8.328,4.008,8.328,8.232c0,4.848-3.695,8.375-8.328,8.375
		C102.675,67.162,99.459,63.347,99.459,59.027 M113.931,59.531c0-3.959-1.752-8.232-6.336-8.232c-2.496,0-5.735,1.705-5.735,6.961
		c0,3.55,1.727,8.16,6.456,8.16C111.196,66.42,113.931,64.26,113.931,59.531"/>
	<path style="clip-path:url(#SVGID_00000040558911797171790280000017227899283574917049_);fill:#002361;" d="M121.783,59.027
		c-1.151,0-1.2,0.049-1.2,0.77v3.382c0,2.52,0.12,2.856,1.463,3l0.697,0.073c0.144,0.095,0.096,0.527-0.048,0.599
		c-1.296-0.049-2.112-0.072-3.049-0.072c-1.031,0-1.848,0.049-2.784,0.072c-0.143-0.072-0.191-0.457-0.047-0.599l0.408-0.073
		c1.343-0.24,1.392-0.48,1.392-3v-8.64c0-2.52-0.168-2.927-1.416-3.024l-0.624-0.048c-0.145-0.096-0.096-0.528,0.047-0.6
		c1.176,0.023,1.993,0.072,3.024,0.072c0.937,0,1.753-0.023,2.784-0.072c0.145,0.072,0.194,0.504,0.048,0.6l-0.456,0.048
		c-1.39,0.144-1.439,0.504-1.439,3.024V57.3c0,0.743,0.049,0.768,1.2,0.768h6.864c1.152,0,1.199-0.025,1.199-0.768v-2.761
		c0-2.52-0.047-2.88-1.463-3.024l-0.456-0.048c-0.144-0.096-0.096-0.528,0.048-0.6c1.104,0.049,1.919,0.072,2.903,0.072
		c0.937,0,1.753-0.023,2.833-0.072c0.143,0.072,0.192,0.504,0.048,0.6l-0.504,0.048c-1.392,0.144-1.44,0.504-1.44,3.024v8.64
		c0,2.52,0.048,2.832,1.44,3l0.576,0.073c0.143,0.095,0.096,0.527-0.049,0.599c-1.151-0.049-1.967-0.072-2.904-0.072
		c-0.984,0-1.847,0.023-2.903,0.072c-0.144-0.072-0.192-0.457-0.048-0.599l0.456-0.073c1.463-0.24,1.463-0.48,1.463-3v-3.382
		c0-0.721-0.047-0.77-1.199-0.77H121.783z"/>
	<path style="clip-path:url(#SVGID_00000040558911797171790280000017227899283574917049_);fill:#002361;" d="M150.224,62.699
		c0,0.721,0,3.576,0.072,4.199c-0.047,0.145-0.191,0.264-0.455,0.264c-0.289-0.406-0.984-1.246-3.072-3.623l-5.568-6.336
		c-0.649-0.744-2.28-2.712-2.784-3.238h-0.048c-0.096,0.287-0.12,0.838-0.12,1.558v5.233c0,1.127,0.024,4.248,0.432,4.966
		c0.145,0.266,0.624,0.409,1.224,0.457l0.743,0.073c0.145,0.191,0.121,0.48-0.047,0.599c-1.08-0.048-1.92-0.072-2.808-0.072
		c-1.008,0-1.657,0.024-2.497,0.072c-0.167-0.119-0.191-0.457-0.047-0.599l0.648-0.073c0.552-0.072,0.936-0.216,1.056-0.48
		c0.335-0.863,0.312-3.791,0.312-4.943V53.82c0-0.673-0.023-1.178-0.528-1.728c-0.336-0.336-0.911-0.505-1.488-0.577l-0.409-0.047
		c-0.143-0.144-0.143-0.503,0.049-0.601c1.008,0.072,2.28,0.072,2.712,0.072c0.384,0,0.792-0.023,1.103-0.072
		c0.481,1.225,3.313,4.393,4.105,5.281l2.327,2.615c1.656,1.848,2.832,3.192,3.961,4.344h0.047c0.097-0.119,0.097-0.504,0.097-1.008
		v-5.136c0-1.128-0.025-4.247-0.48-4.968c-0.144-0.216-0.529-0.36-1.488-0.48l-0.408-0.047c-0.168-0.144-0.145-0.529,0.047-0.601
		c1.105,0.049,1.921,0.072,2.833,0.072c1.032,0,1.655-0.023,2.471-0.072c0.192,0.121,0.192,0.457,0.049,0.601l-0.336,0.047
		c-0.768,0.12-1.249,0.313-1.345,0.504c-0.407,0.864-0.36,3.84-0.36,4.944V62.699z"/>
	<path style="clip-path:url(#SVGID_00000040558911797171790280000017227899283574917049_);fill:#002361;" d="M156.567,67.162
		c-2.016,0-3.287-0.623-3.744-0.887c-0.287-0.529-0.6-2.232-0.649-3.359c0.122-0.17,0.481-0.217,0.577-0.072
		c0.36,1.222,1.343,3.576,4.128,3.576c2.016,0,3.001-1.321,3.001-2.76c0-1.057-0.216-2.232-1.969-3.361l-2.28-1.489
		c-1.199-0.791-2.591-2.16-2.591-4.127c0-2.28,1.775-4.127,4.895-4.127c0.744,0,1.609,0.144,2.233,0.311
		c0.311,0.098,0.647,0.145,0.838,0.145c0.216,0.575,0.433,1.92,0.433,2.927c-0.096,0.145-0.48,0.216-0.601,0.073
		c-0.311-1.153-0.958-2.713-3.263-2.713c-2.352,0-2.856,1.56-2.856,2.666c0,1.39,1.153,2.398,2.04,2.951l1.92,1.199
		c1.513,0.936,3,2.328,3,4.608C161.679,65.363,159.687,67.162,156.567,67.162"/>
	<path style="clip-path:url(#SVGID_00000040558911797171790280000017227899283574917049_);fill:#002361;" d="M175.924,57.592
		c-1.365,0-1.422,0.055-1.422,0.908v4.012c0,2.986,0.142,3.385,1.735,3.557l0.826,0.086c0.17,0.113,0.114,0.625-0.058,0.708
		c-1.536-0.056-2.503-0.083-3.612-0.083c-1.224,0-2.192,0.056-3.301,0.083c-0.171-0.083-0.228-0.539-0.057-0.708l0.484-0.086
		c1.592-0.286,1.65-0.571,1.65-3.557V52.27c0-2.987-0.199-3.471-1.678-3.584l-0.74-0.057c-0.171-0.113-0.114-0.626,0.057-0.711
		c1.393,0.028,2.361,0.085,3.585,0.085c1.109,0,2.076-0.028,3.3-0.085c0.17,0.085,0.227,0.598,0.055,0.711l-0.54,0.057
		c-1.649,0.172-1.706,0.597-1.706,3.584v3.272c0,0.882,0.057,0.909,1.422,0.909h8.137c1.365,0,1.422-0.027,1.422-0.909V52.27
		c0-2.987-0.057-3.412-1.736-3.584l-0.541-0.057c-0.17-0.113-0.113-0.626,0.058-0.711c1.307,0.057,2.276,0.085,3.442,0.085
		c1.11,0,2.077-0.028,3.358-0.085c0.17,0.085,0.227,0.598,0.055,0.711l-0.596,0.057c-1.65,0.172-1.707,0.597-1.707,3.584v10.242
		c0,2.986,0.057,3.357,1.707,3.557l0.682,0.086c0.171,0.113,0.115,0.625-0.057,0.708c-1.365-0.056-2.332-0.083-3.442-0.083
		c-1.166,0-2.19,0.027-3.442,0.083c-0.171-0.083-0.228-0.539-0.058-0.708l0.541-0.086c1.736-0.286,1.736-0.571,1.736-3.557V58.5
		c0-0.853-0.057-0.908-1.422-0.908H175.924z"/>
	<path style="clip-path:url(#SVGID_00000040558911797171790280000017227899283574917049_);fill:#002361;" d="M190.025,59.027
		c0-4.799,3.602-8.472,8.544-8.472c5.545,0,8.328,4.008,8.328,8.232c0,4.848-3.695,8.375-8.328,8.375
		C193.242,67.162,190.025,63.347,190.025,59.027 M204.497,59.531c0-3.959-1.751-8.232-6.336-8.232c-2.495,0-5.735,1.705-5.735,6.961
		c0,3.55,1.728,8.16,6.456,8.16C201.763,66.42,204.497,64.26,204.497,59.531"/>
	<path style="clip-path:url(#SVGID_00000040558911797171790280000017227899283574917049_);fill:#002361;" d="M211.241,63.18
		c0,2.52,0.048,2.832,1.584,3l0.648,0.072c0.144,0.119,0.097,0.528-0.048,0.6c-1.368-0.049-2.16-0.072-3.12-0.072
		c-1.008,0-1.872,0.023-2.927,0.072c-0.145-0.072-0.193-0.457-0.048-0.6l0.504-0.072c1.391-0.191,1.439-0.48,1.439-3v-8.855
		c0-2.041-0.048-2.449-1.128-2.569l-0.864-0.097c-0.168-0.143-0.144-0.503,0.049-0.599c1.271-0.169,2.76-0.193,4.751-0.193
		c1.992,0,3.48,0.264,4.608,0.961c1.104,0.696,1.92,1.944,1.92,3.599c0,2.208-1.367,3.314-2.4,3.817
		c-1.056,0.504-2.327,0.719-3.312,0.719c-0.168-0.07-0.168-0.431-0.024-0.478c2.592-0.481,3.528-1.946,3.528-4.033
		c0-2.329-1.368-3.839-3.863-3.839c-1.273,0-1.297,0.094-1.297,0.864V63.18z"/>
	<path style="clip-path:url(#SVGID_00000040558911797171790280000017227899283574917049_);fill:#002361;" d="M221.227,54.539
		c0-2.52-0.049-2.904-1.44-3.023l-0.601-0.048c-0.144-0.097-0.095-0.529,0.048-0.601c1.176,0.049,1.944,0.072,3.023,0.072
		c0.937,0,1.753-0.023,2.785-0.072c0.144,0.072,0.193,0.504,0.047,0.601l-0.455,0.048c-1.392,0.143-1.44,0.503-1.44,3.023v2.762
		c0,0.455,0.048,0.91,0.313,0.91c0.215,0,0.503-0.143,0.671-0.264c0.336-0.287,0.96-0.912,1.225-1.152l2.591-2.567
		c0.456-0.433,1.632-1.657,1.872-1.992c0.121-0.169,0.169-0.289,0.169-0.385c0-0.095-0.096-0.167-0.409-0.239l-0.648-0.144
		c-0.168-0.169-0.144-0.48,0.048-0.601c0.84,0.049,1.8,0.072,2.64,0.072s1.656-0.023,2.375-0.072
		c0.169,0.121,0.193,0.457,0.049,0.601c-0.624,0.048-1.559,0.288-2.231,0.672c-0.672,0.383-2.018,1.511-3.361,2.784l-2.16,2.039
		c-0.336,0.338-0.552,0.553-0.552,0.744c0,0.17,0.144,0.361,0.456,0.744c2.28,2.615,4.128,4.776,6.001,6.744
		c0.576,0.576,1.012,0.889,1.828,0.985l0.463,0.072c0.169,0.119,0.12,0.527-0.049,0.6c-0.624-0.049-1.282-0.073-2.41-0.073
		c-0.984,0-1.826,0.024-2.929,0.073c-0.168-0.049-0.239-0.458-0.096-0.6l0.552-0.098c0.337-0.047,0.576-0.119,0.576-0.238
		c0-0.145-0.168-0.336-0.337-0.553c-0.456-0.576-1.079-1.224-1.991-2.256l-1.92-2.16c-1.368-1.535-1.752-2.015-2.328-2.015
		c-0.36,0-0.408,0.312-0.408,1.152v3.096c0,2.519,0.048,2.855,1.392,3l0.649,0.072c0.142,0.096,0.096,0.527-0.049,0.6
		c-1.176-0.049-1.992-0.073-2.929-0.073c-0.983,0-1.799,0.024-2.783,0.073c-0.143-0.073-0.192-0.432-0.048-0.6l0.481-0.072
		c1.271-0.192,1.32-0.481,1.32-3V54.539z"/>
	<path style="clip-path:url(#SVGID_00000040558911797171790280000017227899283574917049_);fill:#002361;" d="M237.7,54.588
		c0-2.544-0.048-2.953-1.465-3.072l-0.598-0.048c-0.145-0.097-0.097-0.528,0.046-0.601c1.201,0.049,2.017,0.073,3.025,0.073
		c0.96,0,1.776-0.024,2.975-0.073c0.145,0.073,0.193,0.504,0.049,0.601l-0.6,0.048c-1.416,0.119-1.464,0.528-1.464,3.072v8.543
		c0,2.545,0.048,2.881,1.464,3.049l0.6,0.072c0.144,0.096,0.096,0.527-0.049,0.6c-1.199-0.049-2.015-0.073-2.975-0.073
		c-1.008,0-1.733,0.024-2.932,0.073c-0.144-0.073-0.192-0.457-0.048-0.6l0.507-0.072c1.417-0.168,1.465-0.504,1.465-3.049V54.588z"
		/>
	<path style="clip-path:url(#SVGID_00000040558911797171790280000017227899283574917049_);fill:#002361;" d="M258.46,62.699
		c0,0.721,0,3.576,0.073,4.199c-0.048,0.145-0.192,0.264-0.456,0.264c-0.288-0.406-0.984-1.246-3.072-3.623l-5.568-6.336
		c-0.648-0.744-2.281-2.712-2.784-3.238h-0.047c-0.097,0.287-0.122,0.838-0.122,1.558v5.233c0,1.127,0.025,4.248,0.433,4.966
		c0.145,0.266,0.624,0.409,1.224,0.457l0.744,0.073c0.143,0.191,0.119,0.48-0.048,0.599c-1.08-0.048-1.92-0.072-2.808-0.072
		c-1.007,0-1.656,0.024-2.495,0.072c-0.169-0.119-0.193-0.457-0.049-0.599l0.649-0.073c0.551-0.072,0.935-0.216,1.055-0.48
		c0.336-0.863,0.312-3.791,0.312-4.943V53.82c0-0.673-0.024-1.178-0.528-1.728c-0.336-0.336-0.912-0.505-1.488-0.577l-0.408-0.047
		c-0.144-0.144-0.144-0.503,0.049-0.601c1.008,0.072,2.279,0.072,2.711,0.072c0.384,0,0.792-0.023,1.104-0.072
		c0.481,1.225,3.312,4.393,4.103,5.281l2.329,2.615c1.656,1.848,2.831,3.192,3.96,4.344h0.048c0.096-0.119,0.096-0.504,0.096-1.008
		v-5.136c0-1.128-0.024-4.247-0.48-4.968c-0.144-0.216-0.527-0.36-1.487-0.48l-0.408-0.047c-0.169-0.144-0.145-0.529,0.046-0.601
		c1.105,0.049,1.92,0.072,2.833,0.072c1.033,0,1.656-0.023,2.471-0.072c0.193,0.121,0.193,0.457,0.049,0.601l-0.336,0.047
		c-0.768,0.12-1.248,0.313-1.345,0.504c-0.408,0.864-0.36,3.84-0.36,4.944V62.699z"/>
	<path style="clip-path:url(#SVGID_00000040558911797171790280000017227899283574917049_);fill:#002361;" d="M264.764,67.162
		c-2.017,0-3.288-0.623-3.745-0.887c-0.287-0.529-0.6-2.232-0.649-3.359c0.122-0.17,0.482-0.217,0.577-0.072
		c0.36,1.222,1.344,3.576,4.129,3.576c2.015,0,3-1.321,3-2.76c0-1.057-0.217-2.232-1.969-3.361l-2.279-1.489
		c-1.201-0.791-2.593-2.16-2.593-4.127c0-2.28,1.776-4.127,4.897-4.127c0.743,0,1.607,0.144,2.232,0.311
		c0.312,0.098,0.647,0.145,0.838,0.145c0.217,0.575,0.433,1.92,0.433,2.927c-0.097,0.145-0.479,0.216-0.6,0.073
		c-0.312-1.153-0.959-2.713-3.263-2.713c-2.353,0-2.857,1.56-2.857,2.666c0,1.39,1.153,2.398,2.039,2.951l1.921,1.199
		c1.512,0.936,3,2.328,3,4.608C269.875,65.363,267.883,67.162,264.764,67.162"/>
</g>
<g>
	<defs>
		<rect id="SVGID_00000079452765503723199030000017442651738612831407_" width="313" height="129"/>
	</defs>
	<clipPath id="SVGID_00000112615664711732450990000007827558634464166307_">
		<use xlink:href="#SVGID_00000079452765503723199030000017442651738612831407_"  style="overflow:visible;"/>
	</clipPath>
	<path style="clip-path:url(#SVGID_00000112615664711732450990000007827558634464166307_);fill:#002361;" d="M114.578,85.892
		c-1.041,0-1.699-0.322-1.935-0.459c-0.149-0.272-0.31-1.153-0.335-1.736c0.063-0.087,0.249-0.113,0.297-0.037
		c0.188,0.632,0.696,1.847,2.135,1.847c1.041,0,1.551-0.681,1.551-1.426c0-0.545-0.112-1.154-1.018-1.737l-1.178-0.768
		c-0.621-0.411-1.34-1.118-1.34-2.134c0-1.179,0.918-2.134,2.53-2.134c0.385,0,0.832,0.074,1.154,0.161
		c0.161,0.05,0.335,0.074,0.434,0.074c0.112,0.298,0.224,0.993,0.224,1.514c-0.05,0.074-0.248,0.111-0.31,0.037
		c-0.162-0.596-0.496-1.402-1.688-1.402c-1.215,0-1.476,0.806-1.476,1.378c0,0.718,0.596,1.24,1.055,1.525l0.992,0.62
		c0.781,0.485,1.551,1.203,1.551,2.382C117.221,84.962,116.191,85.892,114.578,85.892"/>
	<path style="clip-path:url(#SVGID_00000112615664711732450990000007827558634464166307_);fill:#002361;" d="M120.295,78.361
		c0.905-0.707,2.059-1.054,3.35-1.054c0.67,0,1.612,0.136,2.195,0.298c0.148,0.037,0.235,0.062,0.348,0.049
		c0.011,0.286,0.074,1.067,0.173,1.824c-0.062,0.087-0.248,0.099-0.336,0.025c-0.185-0.844-0.744-1.812-2.542-1.812
		c-1.899,0-3.51,1.204-3.51,3.772c0,2.605,1.649,4.044,3.683,4.044c1.601,0,2.308-1.042,2.593-1.774
		c0.087-0.062,0.273-0.037,0.323,0.05c-0.088,0.644-0.41,1.464-0.595,1.699c-0.15,0.025-0.299,0.074-0.435,0.124
		c-0.272,0.1-1.166,0.285-1.96,0.285c-1.117,0-2.183-0.222-3.089-0.831c-0.993-0.682-1.761-1.811-1.761-3.411
		C118.732,80.272,119.352,79.093,120.295,78.361"/>
	<path style="clip-path:url(#SVGID_00000112615664711732450990000007827558634464166307_);fill:#002361;" d="M130.662,81.687
		c-0.596,0-0.621,0.024-0.621,0.396v1.75c0,1.302,0.062,1.476,0.757,1.55l0.36,0.038c0.074,0.049,0.049,0.273-0.025,0.31
		c-0.67-0.024-1.092-0.037-1.576-0.037c-0.534,0-0.956,0.024-1.439,0.037c-0.074-0.037-0.099-0.235-0.024-0.31l0.211-0.038
		c0.694-0.124,0.718-0.248,0.718-1.55v-4.466c0-1.302-0.086-1.513-0.731-1.563l-0.323-0.025c-0.075-0.049-0.049-0.273,0.025-0.31
		c0.607,0.013,1.029,0.037,1.563,0.037c0.484,0,0.906-0.012,1.439-0.037c0.074,0.037,0.1,0.261,0.025,0.31l-0.236,0.025
		c-0.719,0.074-0.744,0.261-0.744,1.563v1.426c0,0.385,0.025,0.398,0.621,0.398h3.547c0.596,0,0.621-0.013,0.621-0.398v-1.426
		c0-1.302-0.025-1.489-0.758-1.563l-0.234-0.025c-0.075-0.049-0.051-0.273,0.023-0.31c0.572,0.025,0.993,0.037,1.502,0.037
		c0.484,0,0.905-0.012,1.464-0.037c0.074,0.037,0.099,0.261,0.024,0.31l-0.259,0.025c-0.721,0.074-0.745,0.261-0.745,1.563v4.466
		c0,1.302,0.024,1.463,0.745,1.55l0.297,0.038c0.074,0.049,0.049,0.273-0.025,0.31c-0.596-0.024-1.017-0.037-1.501-0.037
		c-0.509,0-0.955,0.013-1.502,0.037c-0.074-0.037-0.098-0.235-0.023-0.31l0.234-0.038c0.758-0.124,0.758-0.248,0.758-1.55v-1.75
		c0-0.372-0.025-0.396-0.621-0.396H130.662z"/>
	<path style="clip-path:url(#SVGID_00000112615664711732450990000007827558634464166307_);fill:#002361;" d="M138.299,81.686
		c0-2.481,1.861-4.379,4.416-4.379c2.865,0,4.304,2.072,4.304,4.255c0,2.506-1.91,4.329-4.304,4.329
		C139.961,85.891,138.299,83.919,138.299,81.686 M145.779,81.947c0-2.047-0.906-4.256-3.275-4.256c-1.29,0-2.965,0.881-2.965,3.598
		c0,1.836,0.893,4.218,3.338,4.218C144.365,85.507,145.779,84.39,145.779,81.947"/>
	<path style="clip-path:url(#SVGID_00000112615664711732450990000007827558634464166307_);fill:#002361;" d="M148.777,81.686
		c0-2.481,1.86-4.379,4.416-4.379c2.866,0,4.304,2.072,4.304,4.255c0,2.506-1.91,4.329-4.304,4.329
		C150.439,85.891,148.777,83.919,148.777,81.686 M156.257,81.947c0-2.047-0.905-4.256-3.275-4.256c-1.29,0-2.965,0.881-2.965,3.598
		c0,1.836,0.893,4.218,3.337,4.218C154.842,85.507,156.257,84.39,156.257,81.947"/>
	<path style="clip-path:url(#SVGID_00000112615664711732450990000007827558634464166307_);fill:#002361;" d="M160.172,79.366
		c0-1.302-0.024-1.501-0.806-1.562l-0.31-0.026c-0.074-0.049-0.05-0.272,0.024-0.309c0.696,0.024,1.117,0.037,1.613,0.037
		c0.485,0,0.907-0.013,1.526-0.037c0.074,0.037,0.099,0.26,0.025,0.309l-0.298,0.026c-0.731,0.061-0.756,0.26-0.756,1.562v4.317
		c0,0.782,0.037,1.105,0.26,1.34c0.136,0.137,0.372,0.285,1.353,0.285c1.055,0,1.314-0.049,1.514-0.161
		c0.248-0.148,0.57-0.595,0.818-1.228c0.074-0.062,0.31-0.012,0.31,0.075c0,0.136-0.347,1.401-0.521,1.736
		c-0.633-0.024-1.812-0.037-3.09-0.037h-1.141c-0.521,0-0.917,0.013-1.613,0.037c-0.074-0.037-0.098-0.235-0.024-0.309l0.372-0.038
		c0.72-0.075,0.744-0.248,0.744-1.55V79.366z"/>
	<path style="clip-path:url(#SVGID_00000112615664711732450990000007827558634464166307_);fill:#002361;" d="M173.777,82.196
		c-0.037,0.681-0.398,1.873-1.316,2.815c-0.768,0.794-1.438,0.857-1.773,0.857c-0.794,0-1.315-0.583-1.24-1.651
		c0.049-0.768,0.508-1.971,1.351-2.778c0.645-0.62,1.203-0.807,1.712-0.807C173.392,80.632,173.827,81.289,173.777,82.196
		 M171.519,81.6c-0.72,0.968-1.203,2.443-1.241,3.102c-0.024,0.433,0.149,0.794,0.51,0.794c0.272,0,0.582-0.113,0.979-0.646
		c0.546-0.731,1.129-2.369,1.153-3.026c0.013-0.385-0.061-0.82-0.496-0.82C172.176,81.004,171.879,81.117,171.519,81.6"/>
	<path style="clip-path:url(#SVGID_00000112615664711732450990000007827558634464166307_);fill:#002361;" d="M177.371,81.265
		c-0.074,0.211-0.174,0.607-0.322,1.153c-0.372,1.39-0.707,2.581-1.104,3.946c-0.323,1.116-0.732,1.749-0.98,1.997
		c-0.186,0.174-0.757,0.67-1.489,0.67c-0.669,0-0.906-0.422-0.906-0.608c0-0.248,0.149-0.459,0.285-0.558
		c0.1-0.075,0.211-0.038,0.286,0.049c0.298,0.31,0.669,0.509,0.943,0.509c0.248,0,0.508-0.087,0.794-1.042
		c0.57-1.96,1.005-4.094,1.6-6.116h-1.03c-0.124-0.111-0.074-0.348,0.087-0.459h1.066c0.324-1.116,0.659-2.084,1.391-2.952
		c0.619-0.733,1.265-1.03,1.984-1.03c0.459,0,0.956,0.323,0.956,0.819c0,0.322-0.335,0.707-0.534,0.707
		c-0.111,0-0.162-0.112-0.173-0.198c-0.038-0.683-0.385-0.907-0.696-0.907c-0.272,0-0.607,0.249-0.892,0.67
		c-0.571,0.831-0.819,1.712-1.155,2.891h1.551c0.088,0.137,0.063,0.322-0.123,0.459H177.371z"/>
	<path style="clip-path:url(#SVGID_00000112615664711732450990000007827558634464166307_);fill:#002361;" d="M187.367,82.381
		c0.285,0.583,0.558,1.154,0.855,1.7h0.026c0.334-0.583,0.644-1.228,0.955-1.861l1.166-2.369c0.559-1.129,0.918-1.812,0.942-2.382
		c0.422,0.037,0.683,0.037,0.931,0.037c0.311,0,0.719-0.013,1.104-0.037c0.074,0.05,0.074,0.261,0.012,0.309l-0.261,0.026
		c-0.781,0.074-0.88,0.309-0.868,1.179c0.025,1.314,0.038,3.609,0.137,5.395c0.037,0.621,0.024,0.956,0.608,1.005l0.397,0.038
		c0.074,0.074,0.062,0.26-0.025,0.31c-0.508-0.025-1.017-0.037-1.463-0.037c-0.435,0-0.994,0.012-1.502,0.037
		c-0.086-0.062-0.1-0.236-0.025-0.31l0.361-0.038c0.607-0.062,0.607-0.26,0.607-1.054l-0.037-5.174h-0.025
		c-0.086,0.137-0.559,1.129-0.807,1.614l-1.104,2.171c-0.558,1.091-1.117,2.257-1.339,2.828c-0.026,0.037-0.075,0.05-0.124,0.05
		c-0.025,0-0.087-0.013-0.113-0.05c-0.21-0.658-0.805-1.873-1.091-2.481l-1.116-2.394c-0.261-0.571-0.521-1.216-0.795-1.786h-0.024
		c-0.05,0.768-0.087,1.488-0.124,2.208c-0.037,0.756-0.087,1.86-0.087,2.915c0,0.918,0.075,1.116,0.558,1.153l0.472,0.038
		c0.086,0.074,0.074,0.273-0.013,0.31c-0.421-0.025-0.905-0.037-1.376-0.037c-0.398,0-0.844,0.012-1.266,0.037
		c-0.074-0.062-0.099-0.248-0.025-0.31l0.273-0.038c0.52-0.074,0.694-0.148,0.768-1.017c0.076-0.819,0.137-1.501,0.211-2.729
		c0.063-1.029,0.113-2.084,0.137-2.767c0.026-0.781-0.074-0.968-0.83-1.066l-0.199-0.026c-0.063-0.074-0.049-0.259,0.05-0.309
		c0.372,0.024,0.67,0.037,0.979,0.037c0.285,0,0.621,0,1.03-0.037c-0.049,0.483,0.261,1.253,0.646,2.047L187.367,82.381z"/>
	<path style="clip-path:url(#SVGID_00000112615664711732450990000007827558634464166307_);fill:#002361;" d="M196.058,79.366
		c0-1.29-0.024-1.476-0.757-1.562l-0.198-0.026c-0.075-0.049-0.05-0.272,0.024-0.309c0.534,0.024,0.955,0.037,1.464,0.037h2.333
		c0.793,0,1.526,0,1.674-0.037c0.074,0.21,0.149,1.103,0.199,1.649c-0.05,0.075-0.248,0.1-0.31,0.025
		c-0.186-0.583-0.298-1.017-0.944-1.178c-0.259-0.063-0.656-0.075-1.203-0.075h-0.892c-0.373,0-0.373,0.025-0.373,0.497v2.48
		c0,0.348,0.038,0.348,0.41,0.348h0.719c0.521,0,0.906-0.025,1.054-0.075c0.15-0.049,0.237-0.124,0.299-0.434l0.099-0.508
		c0.061-0.075,0.272-0.075,0.322,0.012c0,0.298-0.05,0.782-0.05,1.253c0,0.447,0.05,0.918,0.05,1.191
		c-0.05,0.087-0.261,0.087-0.322,0.012l-0.113-0.484c-0.048-0.223-0.135-0.409-0.383-0.471c-0.174-0.05-0.472-0.062-0.956-0.062
		h-0.719c-0.372,0-0.41,0.012-0.41,0.335v1.749c0,0.657,0.038,1.079,0.236,1.29c0.148,0.149,0.409,0.285,1.501,0.285
		c0.955,0,1.315-0.049,1.588-0.185c0.223-0.124,0.557-0.559,0.881-1.204c0.087-0.062,0.26-0.025,0.309,0.087
		c-0.086,0.434-0.396,1.389-0.557,1.724c-1.117-0.024-2.221-0.037-3.326-0.037h-1.116c-0.533,0-0.955,0.013-1.686,0.037
		c-0.075-0.037-0.1-0.235-0.026-0.309l0.41-0.038c0.707-0.062,0.769-0.248,0.769-1.55V79.366z"/>
	<path style="clip-path:url(#SVGID_00000112615664711732450990000007827558634464166307_);fill:#002361;" d="M203.671,79.118
		c0-0.868-0.062-1.129-0.584-1.203l-0.272-0.037c-0.099-0.061-0.112-0.261,0.013-0.31c1.054-0.062,2.058-0.099,3.113-0.099
		c1.042,0,1.923,0.074,2.729,0.372c1.675,0.607,2.519,2.022,2.519,3.659c0,1.576-0.758,2.928-2.172,3.697
		c-0.806,0.434-1.823,0.596-2.778,0.596c-0.794,0-1.588-0.1-2.023-0.1c-0.52,0-0.966,0.013-1.55,0.038
		c-0.075-0.038-0.099-0.236-0.025-0.31l0.286-0.038c0.719-0.099,0.744-0.248,0.744-1.55V79.118z M204.689,83.547
		c0,0.658,0.038,1.055,0.248,1.353c0.273,0.384,0.745,0.508,1.526,0.508c2.407,0,3.487-1.575,3.487-3.882
		c0-1.366-0.658-3.672-3.908-3.672c-0.733,0-1.129,0.098-1.229,0.172c-0.1,0.076-0.124,0.385-0.124,0.944V83.547z"/>
	<path style="clip-path:url(#SVGID_00000112615664711732450990000007827558634464166307_);fill:#002361;" d="M213.592,79.392
		c0-1.315-0.025-1.526-0.758-1.588l-0.309-0.025c-0.075-0.049-0.05-0.273,0.024-0.31c0.621,0.025,1.043,0.037,1.564,0.037
		c0.496,0,0.917-0.012,1.538-0.037c0.074,0.037,0.099,0.261,0.025,0.31l-0.311,0.025c-0.732,0.062-0.756,0.273-0.756,1.588v4.416
		c0,1.315,0.024,1.488,0.756,1.575l0.311,0.038c0.074,0.049,0.049,0.273-0.025,0.31c-0.621-0.025-1.042-0.037-1.538-0.037
		c-0.521,0-0.943,0.012-1.564,0.037c-0.074-0.037-0.099-0.235-0.024-0.31l0.309-0.038c0.733-0.087,0.758-0.26,0.758-1.575V79.392z"
		/>
	<path style="clip-path:url(#SVGID_00000112615664711732450990000007827558634464166307_);fill:#002361;" d="M218.551,78.361
		c0.906-0.707,2.061-1.054,3.35-1.054c0.67,0,1.613,0.136,2.196,0.298c0.149,0.037,0.235,0.062,0.347,0.049
		c0.012,0.286,0.074,1.067,0.173,1.824c-0.061,0.087-0.248,0.099-0.334,0.025c-0.186-0.844-0.745-1.812-2.544-1.812
		c-1.897,0-3.51,1.204-3.51,3.772c0,2.605,1.65,4.044,3.684,4.044c1.601,0,2.308-1.042,2.593-1.774
		c0.087-0.062,0.274-0.037,0.322,0.05c-0.086,0.644-0.409,1.464-0.595,1.699c-0.149,0.025-0.297,0.074-0.434,0.124
		c-0.273,0.1-1.166,0.285-1.96,0.285c-1.116,0-2.184-0.222-3.089-0.831c-0.992-0.682-1.761-1.811-1.761-3.411
		C216.989,80.272,217.609,79.093,218.551,78.361"/>
	<path style="clip-path:url(#SVGID_00000112615664711732450990000007827558634464166307_);fill:#002361;" d="M227.281,79.392
		c0-1.315-0.025-1.526-0.758-1.588l-0.309-0.025c-0.075-0.049-0.05-0.273,0.024-0.31c0.621,0.025,1.043,0.037,1.564,0.037
		c0.496,0,0.917-0.012,1.538-0.037c0.074,0.037,0.099,0.261,0.025,0.31l-0.311,0.025c-0.732,0.062-0.756,0.273-0.756,1.588v4.416
		c0,1.315,0.024,1.488,0.756,1.575l0.311,0.038c0.074,0.049,0.049,0.273-0.025,0.31c-0.621-0.025-1.042-0.037-1.538-0.037
		c-0.521,0-0.943,0.012-1.564,0.037c-0.074-0.037-0.099-0.235-0.024-0.31l0.309-0.038c0.733-0.087,0.758-0.26,0.758-1.575V79.392z"
		/>
	<path style="clip-path:url(#SVGID_00000112615664711732450990000007827558634464166307_);fill:#002361;" d="M238.766,83.584
		c0,0.373,0,1.849,0.037,2.172c-0.024,0.074-0.099,0.136-0.235,0.136c-0.15-0.211-0.509-0.645-1.588-1.873l-2.878-3.276
		c-0.335-0.384-1.179-1.401-1.44-1.674h-0.024c-0.05,0.149-0.061,0.434-0.061,0.806v2.705c0,0.583,0.011,2.195,0.222,2.567
		c0.074,0.137,0.322,0.211,0.633,0.236l0.385,0.038c0.074,0.099,0.062,0.248-0.026,0.309c-0.558-0.024-0.992-0.037-1.451-0.037
		c-0.521,0-0.855,0.013-1.29,0.037c-0.087-0.061-0.098-0.235-0.024-0.309l0.334-0.038c0.285-0.037,0.484-0.112,0.547-0.248
		c0.173-0.447,0.16-1.96,0.16-2.555v-3.586c0-0.347-0.012-0.607-0.273-0.892c-0.173-0.174-0.471-0.261-0.768-0.298l-0.211-0.026
		c-0.074-0.074-0.074-0.259,0.024-0.309c0.521,0.037,1.179,0.037,1.402,0.037c0.199,0,0.41-0.013,0.571-0.037
		c0.248,0.633,1.712,2.27,2.121,2.729l1.203,1.352c0.857,0.955,1.464,1.65,2.047,2.245h0.024c0.051-0.062,0.051-0.26,0.051-0.521
		v-2.655c0-0.583-0.013-2.195-0.248-2.567c-0.075-0.112-0.273-0.187-0.769-0.248l-0.211-0.026c-0.087-0.074-0.075-0.272,0.025-0.309
		c0.57,0.024,0.992,0.037,1.463,0.037c0.533,0,0.855-0.013,1.277-0.037c0.1,0.061,0.1,0.235,0.026,0.309l-0.174,0.026
		c-0.397,0.061-0.645,0.161-0.694,0.26c-0.211,0.447-0.187,1.985-0.187,2.555V83.584z"/>
	<path style="clip-path:url(#SVGID_00000112615664711732450990000007827558634464166307_);fill:#002361;" d="M241.925,79.366
		c0-1.29-0.024-1.476-0.757-1.562l-0.198-0.026c-0.075-0.049-0.05-0.272,0.024-0.309c0.534,0.024,0.955,0.037,1.464,0.037h2.333
		c0.793,0,1.526,0,1.674-0.037c0.074,0.21,0.149,1.103,0.199,1.649c-0.05,0.075-0.248,0.1-0.31,0.025
		c-0.186-0.583-0.298-1.017-0.944-1.178c-0.259-0.063-0.656-0.075-1.203-0.075h-0.892c-0.373,0-0.373,0.025-0.373,0.497v2.48
		c0,0.348,0.038,0.348,0.41,0.348h0.719c0.521,0,0.906-0.025,1.054-0.075c0.15-0.049,0.237-0.124,0.299-0.434l0.099-0.508
		c0.061-0.075,0.272-0.075,0.322,0.012c0,0.298-0.05,0.782-0.05,1.253c0,0.447,0.05,0.918,0.05,1.191
		c-0.05,0.087-0.261,0.087-0.322,0.012l-0.113-0.484c-0.048-0.223-0.135-0.409-0.383-0.471c-0.174-0.05-0.472-0.062-0.956-0.062
		h-0.719c-0.372,0-0.41,0.012-0.41,0.335v1.749c0,0.657,0.038,1.079,0.236,1.29c0.148,0.149,0.409,0.285,1.501,0.285
		c0.955,0,1.315-0.049,1.588-0.185c0.223-0.124,0.557-0.559,0.881-1.204c0.087-0.062,0.26-0.025,0.309,0.087
		c-0.086,0.434-0.396,1.389-0.557,1.724c-1.117-0.024-2.221-0.037-3.326-0.037h-1.116c-0.533,0-0.955,0.013-1.686,0.037
		c-0.075-0.037-0.1-0.235-0.026-0.309l0.41-0.038c0.707-0.062,0.769-0.248,0.769-1.55V79.366z"/>
</g>
</svg>
