<?xml version="1.0" encoding="iso-8859-1"?>
<!-- Generator: Adobe Illustrator 25.4.1, SVG Export Plug-In . SVG Version: 6.00 Build 0)  -->
<svg version="1.1" id="Layer_1" xmlns="http://www.w3.org/2000/svg" xmlns:xlink="http://www.w3.org/1999/xlink" x="0px" y="0px"
	 viewBox="0 0 313 142" style="enable-background:new 0 0 313 142;" xml:space="preserve">
<g>
	<defs>
		<rect id="SVGID_1_" x="43.206" y="43.355" width="40.254" height="43.375"/>
	</defs>
	<clipPath id="SVGID_00000114042050068781948750000010719754489582538413_">
		<use xlink:href="#SVGID_1_"  style="overflow:visible;"/>
	</clipPath>
	<path style="clip-path:url(#SVGID_00000114042050068781948750000010719754489582538413_);fill:#002361;" d="M77.838,72.632
		c3.222-5.628,5.623-13.074,5.623-22.753v-3.492c0-0.487-0.345-0.893-0.804-0.989l-0.013-0.006
		c-6.226-1.33-12.686-2.036-19.31-2.036c-6.633,0-13.1,0.708-19.335,2.042l-0.026,0.008c-0.44,0.108-0.767,0.506-0.767,0.981
		l0.001,3.492c0,9.686,2.407,17.139,5.631,22.768c3.742-3.67,8.864-5.942,14.508-5.942C68.982,66.705,74.097,68.969,77.838,72.632
		 M57.775,57.456l-1.252,3.166c-0.165,0.398-0.401,1-0.401,1.441c0,0.361,0.236,0.642,0.968,0.642h0.52v0.602
		c-0.828-0.041-1.795-0.061-2.906-0.061c-0.523,0-1.038,0.008-1.49,0.02c-0.606,0.193-1.307,0.3-2.107,0.3
		c-0.319,0-2.062-0.021-3.584-0.502l-0.081-3.284h0.204c0.203,0,0.535,0.739,0.655,1.045c0.536,1.259,1.79,2.062,3.147,2.062
		c1.723,0,3.206-1.044,3.206-2.728c0-1.762-1.383-2.443-2.505-2.982l-2.163-1.022c-1.522-0.722-2.583-1.804-2.583-3.448
		c0-2.063,1.762-3.926,4.466-3.926c1.261,0,2.505,0.301,3.746,0.541v3.365h-0.68c-0.02-0.64-0.181-3.144-3.206-3.144
		c-1.663,0-2.725,1.062-2.725,2.363c0,1.163,0.602,1.984,2.263,2.745l1.844,0.842c1.295,0.594,2.667,1.527,2.935,3.162l4.565-10.175
		h0.448l5.97,12.074v-9.269c0-1.301-0.402-1.642-1.321-1.642h-0.361v-0.602c0.701,0.021,1.66,0.06,2.563,0.06
		c0.882,0,1.723-0.039,2.563-0.06v0.602h-0.358c-0.923,0-1.323,0.341-1.323,1.642v9.775c0,1.303,0.4,1.645,1.323,1.645h0.108
		l-0.071-2.925h0.601c0.159,1.842,1.702,3.107,3.406,3.107c1.722,0,3.205-1.044,3.205-2.728c0-1.762-1.383-2.443-2.504-2.982
		l-2.163-1.022c-1.523-0.722-2.586-1.804-2.586-3.448c0-2.063,1.764-3.926,4.469-3.926c1.261,0,2.505,0.301,3.745,0.541v3.365
		h-0.682c-0.019-0.64-0.18-3.144-3.204-3.144c-1.663,0-2.724,1.062-2.724,2.363c0,1.163,0.602,1.984,2.264,2.745l1.843,0.842
		c1.445,0.662,2.985,1.744,2.985,3.746c0,2.504-1.644,4.327-4.989,4.327c-0.249,0-1.365-0.013-2.567-0.248l-0.778-0.011
		c-0.154-0.004-0.306-0.01-0.459-0.016v0.016c-0.897-0.041-1.986-0.061-3.213-0.061c-1.252,0-2.385,0.02-3.26,0.061v-0.602h0.591
		c0.756,0,1.204-0.221,1.204-0.642c0-0.279-0.236-0.822-0.331-1.003l-1.725-3.604H57.775z"/>
	<polygon style="clip-path:url(#SVGID_00000114042050068781948750000010719754489582538413_);fill:#002361;" points="58.083,56.694 
		62.925,56.694 60.279,51.205 	"/>
	<path style="clip-path:url(#SVGID_00000114042050068781948750000010719754489582538413_);fill:#002361;" d="M62.452,74.299v-4.892
		c-1.501,1.4-2.81,2.943-3.918,4.589C59.834,74.17,61.141,74.266,62.452,74.299"/>
	<path style="clip-path:url(#SVGID_00000114042050068781948750000010719754489582538413_);fill:#002361;" d="M55.494,80.242
		c2.288,0.398,4.609,0.623,6.958,0.668v-4.814c-1.665-0.038-3.32-0.184-4.955-0.443C56.669,77.119,56,78.656,55.494,80.242"/>
	<path style="clip-path:url(#SVGID_00000114042050068781948750000010719754489582538413_);fill:#002361;" d="M56.626,82.226
		c2.186,1.924,4.243,3.279,5.826,4.152v-3.683C60.489,82.66,58.546,82.499,56.626,82.226"/>
	<path style="clip-path:url(#SVGID_00000114042050068781948750000010719754489582538413_);fill:#002361;" d="M50.271,73.758
		c-0.163,0.154-0.313,0.32-0.469,0.48c1.283,2.01,2.662,3.762,4.055,5.275c0.476-1.444,1.073-2.847,1.798-4.198
		C53.83,74.934,52.031,74.414,50.271,73.758"/>
	<path style="clip-path:url(#SVGID_00000114042050068781948750000010719754489582538413_);fill:#002361;" d="M60.596,68.717
		c-3.265,0.475-6.258,1.783-8.766,3.707c1.563,0.531,3.154,0.952,4.771,1.259C57.721,71.905,59.057,70.238,60.596,68.717"/>
	<path style="clip-path:url(#SVGID_00000114042050068781948750000010719754489582538413_);fill:#002361;" d="M74.86,72.424
		c-2.514-1.932-5.519-3.24-8.796-3.715c1.541,1.527,2.883,3.195,4.004,4.975C71.69,73.377,73.291,72.957,74.86,72.424"/>
	<path style="clip-path:url(#SVGID_00000114042050068781948750000010719754489582538413_);fill:#002361;" d="M71.012,75.321
		c0.723,1.35,1.322,2.754,1.795,4.193c1.398-1.515,2.781-3.271,4.069-5.291c-0.151-0.154-0.297-0.316-0.453-0.464
		C74.654,74.417,72.846,74.936,71.012,75.321"/>
	<path style="clip-path:url(#SVGID_00000114042050068781948750000010719754489582538413_);fill:#002361;" d="M64.238,69.434V74.3
		c1.303-0.033,2.605-0.129,3.896-0.299C67.032,72.36,65.728,70.829,64.238,69.434"/>
	<path style="clip-path:url(#SVGID_00000114042050068781948750000010719754489582538413_);fill:#002361;" d="M69.167,75.659
		c-1.623,0.254-3.269,0.398-4.93,0.436v4.815c2.344-0.045,4.657-0.268,6.937-0.664C70.665,78.663,69.999,77.124,69.167,75.659"/>
	<path style="clip-path:url(#SVGID_00000114042050068781948750000010719754489582538413_);fill:#002361;" d="M64.238,86.367
		c1.579-0.875,3.627-2.223,5.8-4.139c-1.913,0.272-3.847,0.432-5.8,0.467V86.367z"/>
</g>
<g>
	<defs>
		<rect id="SVGID_00000096759654490765814610000012018375000328456850_" x="89.875" y="47.917" width="180" height="24.581"/>
	</defs>
	<clipPath id="SVGID_00000027577609694959934270000002093156457183824798_">
		<use xlink:href="#SVGID_00000096759654490765814610000012018375000328456850_"  style="overflow:visible;"/>
	</clipPath>
	<path style="clip-path:url(#SVGID_00000027577609694959934270000002093156457183824798_);fill:#002361;" d="M95.023,52.328
		c0-3.159-0.283-3.5-1.963-3.643l-0.71-0.056c-0.171-0.114-0.114-0.626,0.057-0.711c1.649,0.056,2.616,0.085,3.811,0.085
		c1.139,0,2.106-0.029,3.243-0.085c0.171,0.085,0.229,0.597,0.058,0.711l-0.427,0.056c-1.678,0.229-1.735,0.625-1.735,3.643v10.555
		c0,2.246-0.115,4.209-0.654,5.517c-0.94,2.278-2.959,4.098-5.606,4.098c-0.34,0-1.222-0.029-1.222-0.598
		c0-0.484,0.425-1.31,1.023-1.31c0.342,0,0.684,0.056,1.054,0.172c0.398,0.113,0.796,0.199,1.194,0.199
		c0.598,0,0.94-0.342,1.139-0.74c0.654-1.338,0.738-5.604,0.738-7.141V52.328z"/>
	<path style="clip-path:url(#SVGID_00000027577609694959934270000002093156457183824798_);fill:#002361;" d="M99.459,59.027
		c0-4.799,3.601-8.472,8.544-8.472c5.544,0,8.328,4.008,8.328,8.232c0,4.848-3.695,8.375-8.328,8.375
		C102.675,67.162,99.459,63.347,99.459,59.027 M113.931,59.531c0-3.959-1.752-8.232-6.336-8.232c-2.496,0-5.735,1.705-5.735,6.961
		c0,3.55,1.727,8.16,6.456,8.16C111.196,66.42,113.931,64.26,113.931,59.531"/>
	<path style="clip-path:url(#SVGID_00000027577609694959934270000002093156457183824798_);fill:#002361;" d="M121.783,59.027
		c-1.151,0-1.2,0.049-1.2,0.77v3.382c0,2.52,0.12,2.856,1.463,3l0.697,0.073c0.144,0.095,0.096,0.527-0.048,0.599
		c-1.296-0.049-2.112-0.072-3.049-0.072c-1.031,0-1.848,0.049-2.784,0.072c-0.143-0.072-0.191-0.457-0.047-0.599l0.408-0.073
		c1.343-0.24,1.392-0.48,1.392-3v-8.64c0-2.52-0.168-2.927-1.416-3.024l-0.624-0.048c-0.145-0.096-0.096-0.528,0.047-0.6
		c1.176,0.023,1.993,0.072,3.024,0.072c0.937,0,1.753-0.023,2.784-0.072c0.145,0.072,0.194,0.504,0.048,0.6l-0.456,0.048
		c-1.39,0.144-1.439,0.504-1.439,3.024V57.3c0,0.743,0.049,0.768,1.2,0.768h6.864c1.152,0,1.199-0.025,1.199-0.768v-2.761
		c0-2.52-0.047-2.88-1.463-3.024l-0.456-0.048c-0.144-0.096-0.096-0.528,0.048-0.6c1.104,0.049,1.919,0.072,2.903,0.072
		c0.937,0,1.753-0.023,2.833-0.072c0.143,0.072,0.192,0.504,0.048,0.6l-0.504,0.048c-1.392,0.144-1.44,0.504-1.44,3.024v8.64
		c0,2.52,0.048,2.832,1.44,3l0.576,0.073c0.143,0.095,0.096,0.527-0.049,0.599c-1.151-0.049-1.967-0.072-2.904-0.072
		c-0.984,0-1.847,0.023-2.903,0.072c-0.144-0.072-0.192-0.457-0.048-0.599l0.456-0.073c1.463-0.24,1.463-0.48,1.463-3v-3.382
		c0-0.721-0.047-0.77-1.199-0.77H121.783z"/>
	<path style="clip-path:url(#SVGID_00000027577609694959934270000002093156457183824798_);fill:#002361;" d="M150.224,62.699
		c0,0.721,0,3.576,0.072,4.199c-0.047,0.145-0.191,0.264-0.455,0.264c-0.289-0.406-0.984-1.246-3.072-3.623l-5.568-6.336
		c-0.649-0.744-2.28-2.712-2.784-3.238h-0.048c-0.096,0.287-0.12,0.838-0.12,1.558v5.233c0,1.127,0.024,4.248,0.432,4.966
		c0.145,0.266,0.624,0.409,1.224,0.457l0.743,0.073c0.145,0.191,0.121,0.48-0.047,0.599c-1.08-0.048-1.92-0.072-2.808-0.072
		c-1.008,0-1.657,0.024-2.497,0.072c-0.167-0.119-0.191-0.457-0.047-0.599l0.648-0.073c0.552-0.072,0.936-0.216,1.056-0.48
		c0.335-0.863,0.312-3.791,0.312-4.943V53.82c0-0.673-0.023-1.178-0.528-1.728c-0.336-0.336-0.911-0.505-1.488-0.577l-0.409-0.047
		c-0.143-0.144-0.143-0.503,0.049-0.601c1.008,0.072,2.28,0.072,2.712,0.072c0.384,0,0.792-0.023,1.103-0.072
		c0.481,1.225,3.313,4.393,4.105,5.281l2.327,2.615c1.656,1.848,2.832,3.192,3.961,4.344h0.047c0.097-0.119,0.097-0.504,0.097-1.008
		v-5.136c0-1.128-0.025-4.247-0.48-4.968c-0.144-0.216-0.529-0.36-1.488-0.48l-0.408-0.047c-0.168-0.144-0.145-0.529,0.047-0.601
		c1.105,0.049,1.921,0.072,2.833,0.072c1.032,0,1.655-0.023,2.471-0.072c0.192,0.121,0.192,0.457,0.049,0.601l-0.336,0.047
		c-0.768,0.12-1.249,0.313-1.345,0.504c-0.407,0.864-0.36,3.84-0.36,4.944V62.699z"/>
	<path style="clip-path:url(#SVGID_00000027577609694959934270000002093156457183824798_);fill:#002361;" d="M156.567,67.162
		c-2.016,0-3.287-0.623-3.744-0.887c-0.287-0.529-0.6-2.232-0.649-3.359c0.122-0.17,0.481-0.217,0.577-0.072
		c0.36,1.222,1.343,3.576,4.128,3.576c2.016,0,3.001-1.321,3.001-2.76c0-1.057-0.216-2.232-1.969-3.361l-2.28-1.489
		c-1.199-0.791-2.591-2.16-2.591-4.127c0-2.28,1.775-4.127,4.895-4.127c0.744,0,1.609,0.144,2.233,0.311
		c0.311,0.098,0.647,0.145,0.838,0.145c0.216,0.575,0.433,1.92,0.433,2.927c-0.096,0.145-0.48,0.216-0.601,0.073
		c-0.311-1.153-0.958-2.713-3.263-2.713c-2.352,0-2.856,1.56-2.856,2.666c0,1.39,1.153,2.398,2.04,2.951l1.92,1.199
		c1.513,0.936,3,2.328,3,4.608C161.679,65.363,159.687,67.162,156.567,67.162"/>
	<path style="clip-path:url(#SVGID_00000027577609694959934270000002093156457183824798_);fill:#002361;" d="M175.924,57.592
		c-1.365,0-1.422,0.055-1.422,0.908v4.012c0,2.986,0.142,3.385,1.735,3.557l0.826,0.086c0.17,0.113,0.114,0.625-0.058,0.708
		c-1.536-0.056-2.503-0.083-3.612-0.083c-1.224,0-2.192,0.056-3.301,0.083c-0.171-0.083-0.228-0.539-0.057-0.708l0.484-0.086
		c1.592-0.286,1.65-0.571,1.65-3.557V52.27c0-2.987-0.199-3.471-1.678-3.584l-0.74-0.057c-0.171-0.113-0.114-0.626,0.057-0.711
		c1.393,0.028,2.361,0.085,3.585,0.085c1.109,0,2.076-0.028,3.3-0.085c0.17,0.085,0.227,0.598,0.055,0.711l-0.54,0.057
		c-1.649,0.172-1.706,0.597-1.706,3.584v3.272c0,0.882,0.057,0.909,1.422,0.909h8.137c1.365,0,1.422-0.027,1.422-0.909V52.27
		c0-2.987-0.057-3.412-1.736-3.584l-0.541-0.057c-0.17-0.113-0.113-0.626,0.058-0.711c1.307,0.057,2.276,0.085,3.442,0.085
		c1.11,0,2.077-0.028,3.358-0.085c0.17,0.085,0.227,0.598,0.055,0.711l-0.596,0.057c-1.65,0.172-1.707,0.597-1.707,3.584v10.242
		c0,2.986,0.057,3.357,1.707,3.557l0.682,0.086c0.171,0.113,0.115,0.625-0.057,0.708c-1.365-0.056-2.332-0.083-3.442-0.083
		c-1.166,0-2.19,0.027-3.442,0.083c-0.171-0.083-0.228-0.539-0.058-0.708l0.541-0.086c1.736-0.286,1.736-0.571,1.736-3.557V58.5
		c0-0.853-0.057-0.908-1.422-0.908H175.924z"/>
	<path style="clip-path:url(#SVGID_00000027577609694959934270000002093156457183824798_);fill:#002361;" d="M190.025,59.027
		c0-4.799,3.602-8.472,8.544-8.472c5.545,0,8.328,4.008,8.328,8.232c0,4.848-3.695,8.375-8.328,8.375
		C193.242,67.162,190.025,63.347,190.025,59.027 M204.497,59.531c0-3.959-1.751-8.232-6.336-8.232c-2.495,0-5.735,1.705-5.735,6.961
		c0,3.55,1.728,8.16,6.456,8.16C201.763,66.42,204.497,64.26,204.497,59.531"/>
	<path style="clip-path:url(#SVGID_00000027577609694959934270000002093156457183824798_);fill:#002361;" d="M211.241,63.18
		c0,2.52,0.048,2.832,1.584,3l0.648,0.072c0.144,0.119,0.097,0.528-0.048,0.6c-1.368-0.049-2.16-0.072-3.12-0.072
		c-1.008,0-1.872,0.023-2.927,0.072c-0.145-0.072-0.193-0.457-0.048-0.6l0.504-0.072c1.391-0.191,1.439-0.48,1.439-3v-8.855
		c0-2.041-0.048-2.449-1.128-2.569l-0.864-0.097c-0.168-0.143-0.144-0.503,0.049-0.599c1.271-0.169,2.76-0.193,4.751-0.193
		c1.992,0,3.48,0.264,4.608,0.961c1.104,0.696,1.92,1.944,1.92,3.599c0,2.208-1.367,3.314-2.4,3.817
		c-1.056,0.504-2.327,0.719-3.312,0.719c-0.168-0.07-0.168-0.431-0.024-0.478c2.592-0.481,3.528-1.946,3.528-4.033
		c0-2.329-1.368-3.839-3.863-3.839c-1.273,0-1.297,0.094-1.297,0.864V63.18z"/>
	<path style="clip-path:url(#SVGID_00000027577609694959934270000002093156457183824798_);fill:#002361;" d="M221.227,54.539
		c0-2.52-0.049-2.904-1.44-3.023l-0.601-0.048c-0.144-0.097-0.095-0.529,0.048-0.601c1.176,0.049,1.944,0.072,3.023,0.072
		c0.937,0,1.753-0.023,2.785-0.072c0.144,0.072,0.193,0.504,0.047,0.601l-0.455,0.048c-1.392,0.143-1.44,0.503-1.44,3.023v2.762
		c0,0.455,0.048,0.91,0.313,0.91c0.215,0,0.503-0.143,0.671-0.264c0.336-0.287,0.96-0.912,1.225-1.152l2.591-2.567
		c0.456-0.433,1.632-1.657,1.872-1.992c0.121-0.169,0.169-0.289,0.169-0.385c0-0.095-0.096-0.167-0.409-0.239l-0.648-0.144
		c-0.168-0.169-0.144-0.48,0.048-0.601c0.84,0.049,1.8,0.072,2.64,0.072s1.656-0.023,2.375-0.072
		c0.169,0.121,0.193,0.457,0.049,0.601c-0.624,0.048-1.559,0.288-2.231,0.672c-0.672,0.383-2.018,1.511-3.361,2.784l-2.16,2.039
		c-0.336,0.338-0.552,0.553-0.552,0.744c0,0.17,0.144,0.361,0.456,0.744c2.28,2.615,4.128,4.776,6.001,6.744
		c0.576,0.576,1.012,0.889,1.828,0.985l0.463,0.072c0.169,0.119,0.12,0.527-0.049,0.6c-0.624-0.049-1.282-0.073-2.41-0.073
		c-0.984,0-1.826,0.024-2.929,0.073c-0.168-0.049-0.239-0.458-0.096-0.6l0.552-0.098c0.337-0.047,0.576-0.119,0.576-0.238
		c0-0.145-0.168-0.336-0.337-0.553c-0.456-0.576-1.079-1.224-1.991-2.256l-1.92-2.16c-1.368-1.535-1.752-2.015-2.328-2.015
		c-0.36,0-0.408,0.312-0.408,1.152v3.096c0,2.519,0.048,2.855,1.392,3l0.649,0.072c0.142,0.096,0.096,0.527-0.049,0.6
		c-1.176-0.049-1.992-0.073-2.929-0.073c-0.983,0-1.799,0.024-2.783,0.073c-0.143-0.073-0.192-0.432-0.048-0.6l0.481-0.072
		c1.271-0.192,1.32-0.481,1.32-3V54.539z"/>
	<path style="clip-path:url(#SVGID_00000027577609694959934270000002093156457183824798_);fill:#002361;" d="M237.7,54.588
		c0-2.544-0.048-2.953-1.465-3.072l-0.598-0.048c-0.145-0.097-0.097-0.528,0.046-0.601c1.201,0.049,2.017,0.073,3.025,0.073
		c0.96,0,1.776-0.024,2.975-0.073c0.145,0.073,0.193,0.504,0.049,0.601l-0.6,0.048c-1.416,0.119-1.464,0.528-1.464,3.072v8.543
		c0,2.545,0.048,2.881,1.464,3.049l0.6,0.072c0.144,0.096,0.096,0.527-0.049,0.6c-1.199-0.049-2.015-0.073-2.975-0.073
		c-1.008,0-1.733,0.024-2.932,0.073c-0.144-0.073-0.192-0.457-0.048-0.6l0.507-0.072c1.417-0.168,1.465-0.504,1.465-3.049V54.588z"
		/>
	<path style="clip-path:url(#SVGID_00000027577609694959934270000002093156457183824798_);fill:#002361;" d="M258.46,62.699
		c0,0.721,0,3.576,0.073,4.199c-0.048,0.145-0.192,0.264-0.456,0.264c-0.288-0.406-0.984-1.246-3.072-3.623l-5.568-6.336
		c-0.648-0.744-2.281-2.712-2.784-3.238h-0.047c-0.097,0.287-0.122,0.838-0.122,1.558v5.233c0,1.127,0.025,4.248,0.433,4.966
		c0.145,0.266,0.624,0.409,1.224,0.457l0.744,0.073c0.143,0.191,0.119,0.48-0.048,0.599c-1.08-0.048-1.92-0.072-2.808-0.072
		c-1.007,0-1.656,0.024-2.495,0.072c-0.169-0.119-0.193-0.457-0.049-0.599l0.649-0.073c0.551-0.072,0.935-0.216,1.055-0.48
		c0.336-0.863,0.312-3.791,0.312-4.943V53.82c0-0.673-0.024-1.178-0.528-1.728c-0.336-0.336-0.912-0.505-1.488-0.577l-0.408-0.047
		c-0.144-0.144-0.144-0.503,0.049-0.601c1.008,0.072,2.279,0.072,2.711,0.072c0.384,0,0.792-0.023,1.104-0.072
		c0.481,1.225,3.312,4.393,4.103,5.281l2.329,2.615c1.656,1.848,2.831,3.192,3.96,4.344h0.048c0.096-0.119,0.096-0.504,0.096-1.008
		v-5.136c0-1.128-0.024-4.247-0.48-4.968c-0.144-0.216-0.527-0.36-1.487-0.48l-0.408-0.047c-0.169-0.144-0.145-0.529,0.046-0.601
		c1.105,0.049,1.92,0.072,2.833,0.072c1.033,0,1.656-0.023,2.471-0.072c0.193,0.121,0.193,0.457,0.049,0.601l-0.336,0.047
		c-0.768,0.12-1.248,0.313-1.345,0.504c-0.408,0.864-0.36,3.84-0.36,4.944V62.699z"/>
	<path style="clip-path:url(#SVGID_00000027577609694959934270000002093156457183824798_);fill:#002361;" d="M264.764,67.162
		c-2.017,0-3.288-0.623-3.745-0.887c-0.287-0.529-0.6-2.232-0.649-3.359c0.122-0.17,0.482-0.217,0.577-0.072
		c0.36,1.222,1.344,3.576,4.129,3.576c2.015,0,3-1.321,3-2.76c0-1.057-0.217-2.232-1.969-3.361l-2.279-1.489
		c-1.201-0.791-2.593-2.16-2.593-4.127c0-2.28,1.776-4.127,4.897-4.127c0.743,0,1.607,0.144,2.232,0.311
		c0.312,0.098,0.647,0.145,0.838,0.145c0.217,0.575,0.433,1.92,0.433,2.927c-0.097,0.145-0.479,0.216-0.6,0.073
		c-0.312-1.153-0.959-2.713-3.263-2.713c-2.353,0-2.857,1.56-2.857,2.666c0,1.39,1.153,2.398,2.039,2.951l1.921,1.199
		c1.512,0.936,3,2.328,3,4.608C269.875,65.363,267.883,67.162,264.764,67.162"/>
</g>
<g>
	<defs>
		<rect id="SVGID_00000067213652060107520980000011147824681118613400_" width="313" height="142"/>
	</defs>
	<clipPath id="SVGID_00000129905342731369328170000004715208907981435056_">
		<use xlink:href="#SVGID_00000067213652060107520980000011147824681118613400_"  style="overflow:visible;"/>
	</clipPath>
	<path style="clip-path:url(#SVGID_00000129905342731369328170000004715208907981435056_);fill:#002361;" d="M111.33,85.895
		c-1.043,0-1.7-0.322-1.936-0.459c-0.148-0.272-0.31-1.153-0.334-1.736c0.061-0.087,0.248-0.113,0.297-0.037
		c0.186,0.632,0.695,1.847,2.133,1.847c1.043,0,1.551-0.681,1.551-1.426c0-0.545-0.111-1.154-1.017-1.737l-1.178-0.768
		c-0.62-0.411-1.34-1.118-1.34-2.134c0-1.179,0.918-2.134,2.531-2.134c0.385,0,0.83,0.074,1.153,0.161
		c0.161,0.05,0.335,0.074,0.435,0.074c0.111,0.298,0.223,0.993,0.223,1.514c-0.049,0.074-0.248,0.111-0.311,0.037
		c-0.16-0.595-0.496-1.402-1.686-1.402c-1.216,0-1.476,0.807-1.476,1.378c0,0.718,0.595,1.24,1.054,1.525l0.993,0.62
		c0.781,0.485,1.551,1.203,1.551,2.382C113.973,84.965,112.942,85.895,111.33,85.895"/>
	<path style="clip-path:url(#SVGID_00000129905342731369328170000004715208907981435056_);fill:#002361;" d="M117.033,78.364
		c0.906-0.707,2.06-1.054,3.35-1.054c0.67,0,1.613,0.136,2.195,0.298c0.149,0.037,0.236,0.062,0.348,0.049
		c0.011,0.286,0.074,1.067,0.173,1.824c-0.062,0.087-0.248,0.099-0.335,0.025c-0.186-0.844-0.745-1.812-2.543-1.812
		c-1.898,0-3.51,1.204-3.51,3.772c0,2.605,1.65,4.043,3.683,4.043c1.602,0,2.309-1.041,2.594-1.773
		c0.086-0.063,0.272-0.037,0.322,0.05c-0.087,0.644-0.41,1.464-0.595,1.699c-0.149,0.024-0.298,0.074-0.434,0.124
		c-0.273,0.1-1.166,0.285-1.961,0.285c-1.116,0-2.183-0.222-3.088-0.831c-0.993-0.682-1.761-1.811-1.761-3.411
		C115.471,80.275,116.09,79.096,117.033,78.364"/>
	<path style="clip-path:url(#SVGID_00000129905342731369328170000004715208907981435056_);fill:#002361;" d="M127.4,81.689
		c-0.596,0-0.621,0.024-0.621,0.396v1.75c0,1.302,0.062,1.476,0.758,1.55l0.359,0.038c0.074,0.049,0.05,0.273-0.025,0.31
		c-0.67-0.024-1.092-0.037-1.576-0.037c-0.533,0-0.955,0.024-1.438,0.037c-0.074-0.037-0.1-0.235-0.025-0.31l0.211-0.038
		c0.695-0.124,0.719-0.248,0.719-1.55v-4.466c0-1.302-0.087-1.513-0.731-1.563l-0.323-0.025c-0.075-0.049-0.05-0.273,0.024-0.31
		c0.608,0.013,1.03,0.037,1.563,0.037c0.484,0,0.906-0.012,1.44-0.037c0.074,0.037,0.099,0.261,0.024,0.31l-0.235,0.025
		c-0.72,0.074-0.745,0.261-0.745,1.563v1.426c0,0.385,0.025,0.398,0.621,0.398h3.548c0.595,0,0.62-0.013,0.62-0.398v-1.426
		c0-1.302-0.025-1.489-0.757-1.563l-0.235-0.025c-0.074-0.049-0.05-0.273,0.024-0.31c0.571,0.025,0.993,0.037,1.501,0.037
		c0.484,0,0.906-0.012,1.465-0.037c0.074,0.037,0.099,0.261,0.023,0.31l-0.259,0.025c-0.72,0.074-0.745,0.261-0.745,1.563v4.466
		c0,1.302,0.025,1.463,0.745,1.55l0.297,0.038c0.075,0.049,0.05,0.273-0.024,0.31c-0.596-0.024-1.018-0.037-1.502-0.037
		c-0.508,0-0.955,0.013-1.501,0.037c-0.074-0.037-0.098-0.235-0.024-0.31l0.235-0.038c0.757-0.124,0.757-0.248,0.757-1.55v-1.75
		c0-0.372-0.025-0.396-0.62-0.396H127.4z"/>
	<path style="clip-path:url(#SVGID_00000129905342731369328170000004715208907981435056_);fill:#002361;" d="M135.038,81.689
		c0-2.481,1.861-4.379,4.416-4.379c2.866,0,4.304,2.072,4.304,4.255c0,2.506-1.91,4.329-4.304,4.329
		C136.7,85.894,135.038,83.922,135.038,81.689 M142.518,81.95c0-2.047-0.905-4.256-3.275-4.256c-1.289,0-2.965,0.881-2.965,3.598
		c0,1.836,0.894,4.218,3.338,4.218C141.104,85.51,142.518,84.393,142.518,81.95"/>
	<path style="clip-path:url(#SVGID_00000129905342731369328170000004715208907981435056_);fill:#002361;" d="M145.516,81.689
		c0-2.481,1.861-4.379,4.416-4.379c2.865,0,4.304,2.072,4.304,4.255c0,2.506-1.91,4.329-4.304,4.329
		C147.178,85.894,145.516,83.922,145.516,81.689 M152.996,81.95c0-2.047-0.906-4.256-3.275-4.256c-1.29,0-2.965,0.881-2.965,3.598
		c0,1.836,0.893,4.218,3.338,4.218C151.582,85.51,152.996,84.393,152.996,81.95"/>
	<path style="clip-path:url(#SVGID_00000129905342731369328170000004715208907981435056_);fill:#002361;" d="M156.924,79.369
		c0-1.302-0.025-1.501-0.807-1.562l-0.31-0.026c-0.074-0.049-0.049-0.272,0.025-0.309c0.696,0.024,1.117,0.037,1.613,0.037
		c0.484,0,0.906-0.013,1.526-0.037c0.074,0.037,0.099,0.26,0.025,0.309l-0.299,0.026c-0.731,0.061-0.755,0.26-0.755,1.562v4.317
		c0,0.782,0.037,1.105,0.259,1.34c0.137,0.137,0.373,0.285,1.353,0.285c1.055,0,1.315-0.049,1.514-0.161
		c0.248-0.148,0.57-0.595,0.818-1.228c0.075-0.062,0.31-0.012,0.31,0.075c0,0.136-0.347,1.401-0.52,1.736
		c-0.633-0.024-1.813-0.037-3.09-0.037h-1.141c-0.521,0-0.917,0.013-1.613,0.037c-0.074-0.037-0.099-0.235-0.025-0.309l0.373-0.038
		c0.719-0.075,0.744-0.248,0.744-1.55V79.369z"/>
	<path style="clip-path:url(#SVGID_00000129905342731369328170000004715208907981435056_);fill:#002361;" d="M170.516,82.199
		c-0.037,0.681-0.397,1.873-1.315,2.815c-0.769,0.794-1.439,0.857-1.774,0.857c-0.794,0-1.315-0.583-1.241-1.651
		c0.051-0.768,0.51-1.971,1.352-2.778c0.646-0.62,1.204-0.807,1.712-0.807C170.131,80.635,170.566,81.292,170.516,82.199
		 M168.258,81.603c-0.72,0.968-1.203,2.443-1.24,3.102c-0.026,0.433,0.148,0.794,0.508,0.794c0.273,0,0.584-0.113,0.98-0.646
		c0.546-0.731,1.129-2.369,1.154-3.026c0.012-0.385-0.062-0.82-0.496-0.82C168.915,81.007,168.617,81.12,168.258,81.603"/>
	<path style="clip-path:url(#SVGID_00000129905342731369328170000004715208907981435056_);fill:#002361;" d="M174.11,81.268
		c-0.074,0.211-0.173,0.607-0.322,1.153c-0.372,1.39-0.707,2.581-1.105,3.946c-0.322,1.116-0.731,1.749-0.979,1.997
		c-0.187,0.174-0.757,0.67-1.49,0.67c-0.67,0-0.905-0.422-0.905-0.608c0-0.248,0.15-0.459,0.286-0.558
		c0.099-0.075,0.21-0.038,0.285,0.049c0.297,0.31,0.67,0.509,0.943,0.509c0.248,0,0.509-0.087,0.794-1.042
		c0.57-1.96,1.005-4.094,1.599-6.116h-1.029c-0.124-0.111-0.074-0.348,0.087-0.459h1.067c0.323-1.116,0.658-2.084,1.389-2.952
		c0.621-0.733,1.266-1.03,1.985-1.03c0.459,0,0.956,0.323,0.956,0.819c0,0.322-0.336,0.707-0.534,0.707
		c-0.112,0-0.161-0.112-0.173-0.198c-0.038-0.683-0.385-0.907-0.695-0.907c-0.273,0-0.608,0.249-0.893,0.67
		c-0.572,0.831-0.82,1.712-1.154,2.891h1.551c0.086,0.137,0.062,0.322-0.125,0.459H174.11z"/>
	<path style="clip-path:url(#SVGID_00000129905342731369328170000004715208907981435056_);fill:#002361;" d="M185.11,82.819
		c-0.087-0.274-0.136-0.311-0.509-0.311h-1.873c-0.31,0-0.385,0.037-0.47,0.298l-0.435,1.303c-0.187,0.558-0.273,0.893-0.273,1.029
		c0,0.149,0.062,0.223,0.36,0.248l0.409,0.038c0.087,0.061,0.087,0.26-0.024,0.31c-0.323-0.025-0.707-0.025-1.291-0.038
		c-0.41,0-0.856,0.025-1.191,0.038c-0.075-0.05-0.098-0.249-0.024-0.31l0.408-0.038c0.299-0.025,0.571-0.161,0.745-0.608
		c0.224-0.57,0.571-1.377,1.092-2.766l1.265-3.35c0.173-0.446,0.248-0.681,0.21-0.881c0.299-0.087,0.51-0.309,0.646-0.47
		c0.074,0,0.161,0.025,0.186,0.111c0.161,0.546,0.36,1.116,0.545,1.662l1.701,4.987c0.359,1.067,0.52,1.253,1.053,1.315l0.336,0.038
		c0.086,0.061,0.062,0.26,0,0.31c-0.509-0.025-0.943-0.038-1.502-0.038c-0.594,0-1.066,0.025-1.425,0.038
		c-0.1-0.05-0.112-0.249-0.026-0.31l0.36-0.038c0.261-0.025,0.434-0.099,0.434-0.223c0-0.136-0.061-0.36-0.161-0.657L185.11,82.819z
		 M182.654,81.714c-0.1,0.285-0.087,0.298,0.26,0.298h1.526c0.36,0,0.385-0.05,0.273-0.385l-0.67-2.021
		c-0.099-0.298-0.21-0.633-0.285-0.783h-0.025c-0.037,0.063-0.161,0.361-0.298,0.733L182.654,81.714z"/>
	<path style="clip-path:url(#SVGID_00000129905342731369328170000004715208907981435056_);fill:#002361;" d="M189.994,79.121
		c0-0.868-0.061-1.129-0.582-1.203l-0.273-0.037c-0.1-0.062-0.111-0.261,0.012-0.311c1.054-0.061,2.06-0.098,3.114-0.098
		c1.042,0,1.923,0.074,2.729,0.372c1.675,0.607,2.518,2.022,2.518,3.659c0,1.576-0.756,2.928-2.17,3.697
		c-0.807,0.434-1.824,0.596-2.779,0.596c-0.794,0-1.588-0.1-2.022-0.1c-0.521,0-0.968,0.013-1.55,0.038
		c-0.075-0.038-0.1-0.236-0.026-0.31l0.285-0.038c0.72-0.099,0.744-0.248,0.744-1.55V79.121z M191.012,83.55
		c0,0.658,0.037,1.055,0.248,1.352c0.273,0.385,0.744,0.509,1.525,0.509c2.408,0,3.487-1.575,3.487-3.882
		c0-1.366-0.657-3.672-3.907-3.672c-0.732,0-1.129,0.098-1.229,0.172c-0.099,0.076-0.124,0.385-0.124,0.944V83.55z"/>
	<path style="clip-path:url(#SVGID_00000129905342731369328170000004715208907981435056_);fill:#002361;" d="M199.319,78.823
		c-0.286-0.694-0.472-0.955-1.005-1.017l-0.224-0.025c-0.086-0.074-0.074-0.248,0.025-0.31c0.36,0.025,0.758,0.038,1.291,0.038
		c0.545,0,0.98-0.013,1.501-0.038c0.087,0.05,0.111,0.236,0.024,0.31l-0.185,0.025c-0.472,0.062-0.57,0.137-0.584,0.236
		c0.025,0.124,0.236,0.794,0.621,1.737c0.57,1.439,1.141,2.865,1.762,4.279c0.384-0.818,0.905-2.096,1.19-2.753
		c0.36-0.844,0.942-2.246,1.153-2.779c0.1-0.261,0.113-0.397,0.113-0.484s-0.124-0.186-0.559-0.236l-0.223-0.025
		c-0.086-0.074-0.062-0.26,0.025-0.31c0.348,0.025,0.818,0.038,1.29,0.038c0.409,0,0.794-0.013,1.204-0.038
		c0.086,0.05,0.086,0.248,0.023,0.31l-0.371,0.025c-0.298,0.025-0.484,0.174-0.645,0.434c-0.347,0.583-0.831,1.588-1.39,2.854
		l-0.67,1.526c-0.496,1.14-1.079,2.58-1.29,3.237c-0.037,0.026-0.087,0.037-0.135,0.037c-0.063,0-0.125-0.011-0.187-0.037
		c-0.137-0.52-0.36-1.129-0.571-1.649L199.319,78.823z"/>
	<path style="clip-path:url(#SVGID_00000129905342731369328170000004715208907981435056_);fill:#002361;" d="M210.877,82.819
		c-0.087-0.274-0.137-0.311-0.508-0.311h-1.874c-0.309,0-0.384,0.037-0.472,0.298l-0.433,1.303
		c-0.186,0.558-0.274,0.893-0.274,1.029c0,0.149,0.063,0.223,0.361,0.248l0.409,0.038c0.087,0.061,0.087,0.26-0.025,0.31
		c-0.323-0.025-0.707-0.025-1.289-0.038c-0.411,0-0.857,0.025-1.192,0.038c-0.074-0.05-0.099-0.249-0.025-0.31l0.41-0.038
		c0.297-0.025,0.57-0.161,0.744-0.608c0.223-0.57,0.57-1.377,1.092-2.766l1.265-3.35c0.174-0.446,0.249-0.681,0.211-0.881
		c0.297-0.087,0.508-0.309,0.645-0.47c0.074,0,0.161,0.025,0.185,0.111c0.163,0.546,0.361,1.116,0.547,1.662l1.7,4.987
		c0.359,1.067,0.521,1.253,1.054,1.315l0.334,0.038c0.088,0.061,0.063,0.26,0,0.31c-0.508-0.025-0.942-0.038-1.5-0.038
		c-0.595,0-1.067,0.025-1.427,0.038c-0.099-0.05-0.112-0.249-0.025-0.31l0.36-0.038c0.26-0.025,0.434-0.099,0.434-0.223
		c0-0.136-0.062-0.36-0.161-0.657L210.877,82.819z M208.421,81.714c-0.099,0.285-0.087,0.298,0.261,0.298h1.525
		c0.359,0,0.385-0.05,0.274-0.385l-0.67-2.021c-0.1-0.298-0.211-0.633-0.286-0.783H209.5c-0.037,0.063-0.161,0.361-0.298,0.733
		L208.421,81.714z"/>
	<path style="clip-path:url(#SVGID_00000129905342731369328170000004715208907981435056_);fill:#002361;" d="M222.436,83.587
		c0,0.373,0,1.849,0.037,2.172c-0.025,0.074-0.099,0.136-0.236,0.136c-0.149-0.211-0.508-0.645-1.588-1.873l-2.877-3.276
		c-0.336-0.384-1.18-1.401-1.439-1.674h-0.026c-0.049,0.149-0.061,0.434-0.061,0.806v2.705c0,0.583,0.012,2.195,0.223,2.567
		c0.075,0.137,0.323,0.211,0.633,0.236l0.384,0.038c0.075,0.099,0.062,0.248-0.025,0.309c-0.558-0.024-0.992-0.037-1.451-0.037
		c-0.521,0-0.856,0.013-1.291,0.037c-0.086-0.061-0.098-0.235-0.024-0.309l0.335-0.038c0.285-0.037,0.484-0.112,0.546-0.248
		c0.174-0.447,0.161-1.96,0.161-2.555v-3.586c0-0.347-0.012-0.607-0.274-0.892c-0.172-0.174-0.47-0.261-0.768-0.298l-0.211-0.026
		c-0.074-0.074-0.074-0.259,0.024-0.309c0.522,0.037,1.18,0.037,1.403,0.037c0.198,0,0.409-0.013,0.57-0.037
		c0.248,0.633,1.713,2.27,2.121,2.729l1.203,1.352c0.857,0.955,1.465,1.65,2.047,2.245h0.026c0.049-0.062,0.049-0.26,0.049-0.521
		v-2.655c0-0.583-0.012-2.195-0.248-2.567c-0.075-0.112-0.272-0.187-0.768-0.248l-0.211-0.026c-0.088-0.074-0.075-0.272,0.024-0.309
		c0.57,0.024,0.992,0.037,1.464,0.037c0.533,0,0.856-0.013,1.277-0.037c0.1,0.061,0.1,0.235,0.026,0.309l-0.174,0.026
		c-0.398,0.061-0.646,0.161-0.695,0.26c-0.211,0.447-0.186,1.985-0.186,2.555V83.587z"/>
	<path style="clip-path:url(#SVGID_00000129905342731369328170000004715208907981435056_);fill:#002361;" d="M226.611,78.364
		c0.906-0.707,2.06-1.054,3.35-1.054c0.67,0,1.613,0.136,2.195,0.298c0.149,0.037,0.236,0.062,0.348,0.049
		c0.011,0.286,0.074,1.067,0.173,1.824c-0.062,0.087-0.248,0.099-0.335,0.025c-0.186-0.844-0.745-1.812-2.543-1.812
		c-1.898,0-3.51,1.204-3.51,3.772c0,2.605,1.65,4.043,3.683,4.043c1.602,0,2.309-1.041,2.594-1.773
		c0.086-0.063,0.273-0.037,0.322,0.05c-0.087,0.644-0.41,1.464-0.595,1.699c-0.149,0.024-0.298,0.074-0.434,0.124
		c-0.273,0.1-1.166,0.285-1.961,0.285c-1.116,0-2.183-0.222-3.088-0.831c-0.993-0.682-1.761-1.811-1.761-3.411
		C225.049,80.275,225.668,79.096,226.611,78.364"/>
	<path style="clip-path:url(#SVGID_00000129905342731369328170000004715208907981435056_);fill:#002361;" d="M235.304,79.369
		c0-1.29-0.024-1.475-0.757-1.562l-0.198-0.026c-0.075-0.049-0.05-0.272,0.024-0.309c0.534,0.024,0.955,0.037,1.464,0.037h2.333
		c0.793,0,1.526,0,1.674-0.037c0.074,0.211,0.149,1.103,0.199,1.649c-0.05,0.075-0.248,0.1-0.31,0.025
		c-0.186-0.583-0.298-1.017-0.944-1.178c-0.259-0.063-0.656-0.074-1.203-0.074h-0.892c-0.373,0-0.373,0.024-0.373,0.496v2.48
		c0,0.348,0.038,0.348,0.41,0.348h0.718c0.522,0,0.907-0.025,1.055-0.074c0.15-0.05,0.236-0.125,0.299-0.435l0.099-0.508
		c0.061-0.074,0.272-0.074,0.322,0.012c0,0.298-0.05,0.782-0.05,1.253c0,0.447,0.05,0.918,0.05,1.191
		c-0.05,0.087-0.261,0.087-0.322,0.012l-0.113-0.484c-0.049-0.223-0.135-0.409-0.383-0.471c-0.174-0.05-0.472-0.062-0.957-0.062
		h-0.718c-0.372,0-0.41,0.012-0.41,0.335v1.749c0,0.658,0.038,1.079,0.236,1.29c0.148,0.149,0.409,0.285,1.501,0.285
		c0.955,0,1.315-0.049,1.588-0.184c0.223-0.125,0.557-0.56,0.881-1.205c0.087-0.062,0.26-0.025,0.309,0.087
		c-0.086,0.434-0.396,1.389-0.557,1.724c-1.117-0.024-2.221-0.037-3.326-0.037h-1.116c-0.533,0-0.955,0.013-1.686,0.037
		c-0.075-0.037-0.1-0.235-0.026-0.309l0.41-0.038c0.707-0.062,0.769-0.248,0.769-1.55V79.369z"/>
	<path style="clip-path:url(#SVGID_00000129905342731369328170000004715208907981435056_);fill:#002361;" d="M243.165,79.121
		c0-0.868-0.061-1.129-0.583-1.203l-0.273-0.037c-0.099-0.062-0.111-0.261,0.013-0.311c1.054-0.061,2.059-0.098,3.114-0.098
		c1.041,0,1.922,0.074,2.728,0.372c1.676,0.607,2.519,2.022,2.519,3.659c0,1.576-0.757,2.928-2.171,3.697
		c-0.807,0.434-1.824,0.596-2.779,0.596c-0.793,0-1.588-0.1-2.022-0.1c-0.521,0-0.967,0.013-1.55,0.038
		c-0.075-0.038-0.1-0.236-0.026-0.31l0.286-0.038c0.72-0.099,0.744-0.248,0.744-1.55V79.121z M244.182,83.55
		c0,0.658,0.038,1.055,0.248,1.352c0.273,0.385,0.745,0.509,1.526,0.509c2.408,0,3.487-1.575,3.487-3.882
		c0-1.366-0.657-3.672-3.907-3.672c-0.733,0-1.129,0.098-1.229,0.172c-0.1,0.076-0.125,0.385-0.125,0.944V83.55z"/>
	<path style="clip-path:url(#SVGID_00000129905342731369328170000004715208907981435056_);fill:#002361;" d="M98.787,92.885
		c0-1.315-0.025-1.526-0.757-1.588l-0.309-0.025c-0.075-0.049-0.051-0.273,0.024-0.31c0.62,0.025,1.042,0.037,1.563,0.037
		c0.497,0,0.918-0.012,1.538-0.037c0.075,0.037,0.099,0.261,0.025,0.31l-0.311,0.025c-0.731,0.062-0.755,0.273-0.755,1.588v4.416
		c0,1.315,0.024,1.488,0.755,1.576l0.311,0.037c0.074,0.049,0.05,0.273-0.025,0.31c-0.62-0.025-1.041-0.037-1.538-0.037
		c-0.521,0-0.943,0.012-1.563,0.037c-0.075-0.037-0.099-0.235-0.024-0.31l0.309-0.037c0.732-0.088,0.757-0.261,0.757-1.576V92.885z"
		/>
	<path style="clip-path:url(#SVGID_00000129905342731369328170000004715208907981435056_);fill:#002361;" d="M110.285,97.077
		c0,0.373,0,1.849,0.037,2.172c-0.025,0.074-0.099,0.136-0.236,0.136c-0.149-0.211-0.508-0.645-1.588-1.873l-2.877-3.276
		c-0.336-0.384-1.18-1.4-1.44-1.674h-0.025c-0.049,0.149-0.062,0.434-0.062,0.806v2.705c0,0.583,0.013,2.195,0.224,2.567
		c0.074,0.137,0.322,0.211,0.633,0.237l0.384,0.037c0.075,0.099,0.062,0.248-0.025,0.309c-0.558-0.024-0.992-0.037-1.451-0.037
		c-0.521,0-0.856,0.013-1.291,0.037c-0.086-0.061-0.099-0.235-0.024-0.309l0.335-0.037c0.285-0.038,0.484-0.113,0.546-0.249
		c0.173-0.447,0.161-1.96,0.161-2.555v-3.586c0-0.347-0.012-0.607-0.274-0.892c-0.173-0.174-0.47-0.261-0.768-0.298l-0.211-0.026
		c-0.074-0.074-0.074-0.259,0.024-0.309c0.522,0.037,1.18,0.037,1.403,0.037c0.198,0,0.409-0.013,0.57-0.037
		c0.248,0.633,1.713,2.27,2.121,2.729l1.203,1.352c0.856,0.955,1.465,1.65,2.047,2.245h0.025c0.05-0.062,0.05-0.26,0.05-0.521
		v-2.655c0-0.583-0.012-2.195-0.248-2.567c-0.075-0.112-0.272-0.187-0.768-0.248l-0.211-0.026c-0.088-0.074-0.076-0.272,0.024-0.309
		c0.57,0.024,0.992,0.037,1.464,0.037c0.533,0,0.855-0.013,1.277-0.037c0.1,0.061,0.1,0.235,0.026,0.309l-0.174,0.026
		c-0.398,0.061-0.646,0.161-0.695,0.26c-0.211,0.447-0.186,1.985-0.186,2.555V97.077z"/>
	<path style="clip-path:url(#SVGID_00000129905342731369328170000004715208907981435056_);fill:#002361;" d="M116.917,97.326
		c0,1.302,0.024,1.488,0.745,1.551l0.397,0.037c0.074,0.049,0.049,0.272-0.026,0.309c-0.707-0.024-1.129-0.037-1.625-0.037
		s-0.93,0.013-1.724,0.037c-0.075-0.037-0.099-0.248,0-0.309l0.447-0.037c0.707-0.063,0.769-0.249,0.769-1.551V91.78
		c0-0.385,0-0.396-0.373-0.396h-0.681c-0.534,0-1.216,0.024-1.526,0.309c-0.299,0.274-0.422,0.546-0.558,0.857
		c-0.1,0.074-0.274,0.012-0.323-0.087c0.198-0.559,0.384-1.353,0.471-1.849c0.037-0.024,0.199-0.037,0.236,0
		c0.075,0.398,0.484,0.385,1.055,0.385h5.024c0.669,0,0.781-0.025,0.967-0.348c0.062-0.024,0.199-0.012,0.224,0.037
		c-0.137,0.509-0.224,1.514-0.187,1.886c-0.049,0.1-0.26,0.1-0.323,0.025c-0.037-0.31-0.123-0.769-0.309-0.906
		c-0.286-0.211-0.757-0.309-1.439-0.309h-0.881c-0.373,0-0.36,0.011-0.36,0.421V97.326z"/>
	<path style="clip-path:url(#SVGID_00000129905342731369328170000004715208907981435056_);fill:#002361;" d="M122.73,92.859
		c0-1.29-0.024-1.476-0.756-1.562l-0.199-0.026c-0.074-0.049-0.049-0.272,0.025-0.31c0.534,0.025,0.955,0.038,1.463,0.038h2.333
		c0.794,0,1.527,0,1.675-0.038c0.074,0.211,0.148,1.104,0.198,1.65c-0.05,0.075-0.248,0.099-0.309,0.025
		c-0.187-0.583-0.299-1.017-0.944-1.178c-0.259-0.063-0.657-0.075-1.203-0.075h-0.893c-0.372,0-0.372,0.025-0.372,0.496v2.481
		c0,0.348,0.037,0.348,0.41,0.348h0.719c0.521,0,0.906-0.025,1.054-0.075c0.149-0.049,0.237-0.124,0.298-0.434l0.099-0.508
		c0.062-0.075,0.273-0.075,0.322,0.012c0,0.299-0.049,0.782-0.049,1.253c0,0.447,0.049,0.918,0.049,1.191
		c-0.049,0.087-0.26,0.087-0.322,0.012l-0.112-0.484c-0.048-0.223-0.136-0.409-0.384-0.471c-0.174-0.05-0.471-0.062-0.955-0.062
		h-0.719c-0.373,0-0.41,0.012-0.41,0.335v1.749c0,0.657,0.037,1.079,0.236,1.29c0.148,0.149,0.408,0.285,1.5,0.285
		c0.955,0,1.315-0.049,1.588-0.185c0.223-0.124,0.558-0.559,0.881-1.204c0.088-0.062,0.261-0.025,0.31,0.087
		c-0.087,0.434-0.396,1.389-0.558,1.724c-1.117-0.024-2.221-0.037-3.325-0.037h-1.117c-0.533,0-0.955,0.013-1.686,0.037
		c-0.075-0.037-0.099-0.235-0.025-0.309l0.409-0.037c0.707-0.063,0.769-0.25,0.769-1.551V92.859z"/>
	<path style="clip-path:url(#SVGID_00000129905342731369328170000004715208907981435056_);fill:#002361;" d="M130.592,92.872
		c0-1.179-0.037-1.39-0.545-1.452l-0.397-0.049c-0.088-0.062-0.088-0.261,0.012-0.311c0.695-0.062,1.551-0.099,2.766-0.099
		c0.769,0,1.501,0.062,2.072,0.372c0.595,0.311,1.03,0.869,1.03,1.737c0,1.178-0.931,1.824-1.551,2.072
		c-0.061,0.074,0,0.198,0.062,0.298c0.992,1.599,1.65,2.593,2.494,3.3c0.211,0.185,0.521,0.322,0.855,0.346
		c0.063,0.026,0.074,0.124,0.013,0.174c-0.112,0.037-0.31,0.063-0.546,0.063c-1.055,0-1.687-0.311-2.568-1.564
		c-0.323-0.459-0.83-1.314-1.215-1.873c-0.187-0.273-0.385-0.397-0.881-0.397c-0.559,0-0.584,0.012-0.584,0.273v1.564
		c0,1.301,0.025,1.451,0.745,1.55l0.261,0.038c0.074,0.061,0.049,0.272-0.026,0.309c-0.558-0.024-0.98-0.037-1.476-0.037
		c-0.521,0-0.967,0.013-1.551,0.037c-0.074-0.037-0.098-0.223-0.024-0.309l0.31-0.038c0.72-0.087,0.744-0.249,0.744-1.55V92.872z
		 M131.609,94.646c0,0.223,0,0.359,0.038,0.409c0.037,0.037,0.224,0.062,0.857,0.062c0.445,0,0.917-0.049,1.277-0.323
		c0.334-0.26,0.62-0.694,0.62-1.538c0-0.98-0.608-1.91-1.985-1.91c-0.769,0-0.807,0.049-0.807,0.397V94.646z"/>
	<path style="clip-path:url(#SVGID_00000129905342731369328170000004715208907981435056_);fill:#002361;" d="M145.873,97.077
		c0,0.373,0,1.849,0.037,2.172c-0.025,0.074-0.1,0.136-0.236,0.136c-0.149-0.211-0.509-0.645-1.588-1.873l-2.878-3.276
		c-0.335-0.384-1.179-1.4-1.439-1.674h-0.025c-0.05,0.149-0.062,0.434-0.062,0.806v2.705c0,0.583,0.012,2.195,0.223,2.567
		c0.075,0.137,0.323,0.211,0.633,0.237l0.384,0.037c0.075,0.099,0.062,0.248-0.024,0.309c-0.558-0.024-0.993-0.037-1.452-0.037
		c-0.52,0-0.856,0.013-1.29,0.037c-0.087-0.061-0.099-0.235-0.025-0.309l0.336-0.037c0.285-0.038,0.483-0.113,0.545-0.249
		c0.173-0.447,0.162-1.96,0.162-2.555v-3.586c0-0.347-0.013-0.607-0.274-0.892c-0.173-0.174-0.47-0.261-0.769-0.298l-0.211-0.026
		c-0.074-0.074-0.074-0.259,0.025-0.309c0.522,0.037,1.179,0.037,1.403,0.037c0.197,0,0.408-0.013,0.57-0.037
		c0.248,0.633,1.712,2.27,2.121,2.729l1.203,1.352c0.856,0.955,1.464,1.65,2.047,2.245h0.025c0.049-0.062,0.049-0.26,0.049-0.521
		v-2.655c0-0.583-0.011-2.195-0.248-2.567c-0.074-0.112-0.272-0.187-0.768-0.248l-0.211-0.026c-0.087-0.074-0.076-0.272,0.024-0.309
		c0.57,0.024,0.992,0.037,1.464,0.037c0.534,0,0.856-0.013,1.278-0.037c0.1,0.061,0.1,0.235,0.025,0.309l-0.174,0.026
		c-0.398,0.061-0.646,0.161-0.694,0.26c-0.211,0.447-0.186,1.985-0.186,2.555V97.077z"/>
	<path style="clip-path:url(#SVGID_00000129905342731369328170000004715208907981435056_);fill:#002361;" d="M152.678,96.308
		c-0.086-0.273-0.136-0.31-0.508-0.31h-1.873c-0.31,0-0.385,0.037-0.472,0.298l-0.434,1.303c-0.186,0.558-0.273,0.893-0.273,1.029
		c0,0.149,0.062,0.223,0.361,0.249l0.408,0.037c0.088,0.061,0.088,0.26-0.024,0.31c-0.323-0.025-0.707-0.025-1.29-0.038
		c-0.411,0-0.856,0.025-1.192,0.038c-0.074-0.05-0.099-0.249-0.024-0.31l0.409-0.037c0.298-0.026,0.57-0.162,0.744-0.609
		c0.224-0.57,0.571-1.377,1.092-2.766l1.265-3.35c0.174-0.446,0.248-0.681,0.211-0.881c0.298-0.087,0.509-0.309,0.645-0.47
		c0.075,0,0.162,0.024,0.186,0.111c0.162,0.546,0.361,1.116,0.546,1.662l1.7,4.987c0.359,1.067,0.521,1.253,1.054,1.316l0.335,0.037
		c0.087,0.061,0.062,0.26,0,0.31c-0.509-0.025-0.942-0.038-1.501-0.038c-0.595,0-1.066,0.025-1.427,0.038
		c-0.098-0.05-0.111-0.249-0.024-0.31l0.36-0.037c0.26-0.026,0.434-0.1,0.434-0.224c0-0.136-0.063-0.36-0.161-0.657L152.678,96.308z
		 M150.223,95.204c-0.1,0.285-0.088,0.298,0.26,0.298h1.525c0.36,0,0.385-0.05,0.274-0.385l-0.67-2.021
		c-0.1-0.298-0.211-0.633-0.285-0.783h-0.026c-0.037,0.064-0.16,0.361-0.297,0.733L150.223,95.204z"/>
	<path style="clip-path:url(#SVGID_00000129905342731369328170000004715208907981435056_);fill:#002361;" d="M159.659,97.326
		c0,1.302,0.024,1.488,0.745,1.551l0.397,0.037c0.074,0.049,0.049,0.272-0.026,0.309c-0.707-0.024-1.129-0.037-1.625-0.037
		s-0.93,0.013-1.724,0.037c-0.075-0.037-0.099-0.248,0-0.309l0.447-0.037c0.707-0.063,0.769-0.249,0.769-1.551V91.78
		c0-0.385,0-0.396-0.373-0.396h-0.681c-0.534,0-1.216,0.024-1.526,0.309c-0.298,0.274-0.422,0.546-0.558,0.857
		c-0.1,0.074-0.274,0.012-0.323-0.087c0.198-0.559,0.384-1.353,0.471-1.849c0.037-0.024,0.199-0.037,0.237,0
		c0.074,0.398,0.483,0.385,1.054,0.385h5.024c0.669,0,0.781-0.025,0.967-0.348c0.062-0.024,0.199-0.012,0.224,0.037
		c-0.137,0.509-0.224,1.514-0.186,1.886c-0.05,0.1-0.261,0.1-0.324,0.025c-0.037-0.31-0.123-0.769-0.309-0.906
		c-0.285-0.211-0.757-0.309-1.439-0.309h-0.881c-0.373,0-0.36,0.011-0.36,0.421V97.326z"/>
	<path style="clip-path:url(#SVGID_00000129905342731369328170000004715208907981435056_);fill:#002361;" d="M165.486,92.885
		c0-1.315-0.025-1.526-0.758-1.588l-0.309-0.025c-0.075-0.049-0.05-0.273,0.024-0.31c0.621,0.025,1.043,0.037,1.563,0.037
		c0.497,0,0.918-0.012,1.539-0.037c0.074,0.037,0.099,0.261,0.025,0.31l-0.311,0.025c-0.732,0.062-0.756,0.273-0.756,1.588v4.416
		c0,1.315,0.024,1.488,0.756,1.576l0.311,0.037c0.074,0.049,0.049,0.273-0.025,0.31c-0.621-0.025-1.042-0.037-1.539-0.037
		c-0.52,0-0.942,0.012-1.563,0.037c-0.074-0.037-0.099-0.235-0.024-0.31l0.309-0.037c0.733-0.088,0.758-0.261,0.758-1.576V92.885z"
		/>
	<path style="clip-path:url(#SVGID_00000129905342731369328170000004715208907981435056_);fill:#002361;" d="M169.281,95.179
		c0-2.481,1.86-4.379,4.416-4.379c2.866,0,4.304,2.072,4.304,4.255c0,2.506-1.91,4.329-4.304,4.329
		C170.943,99.384,169.281,97.412,169.281,95.179 M176.761,95.44c0-2.047-0.905-4.256-3.275-4.256c-1.29,0-2.965,0.881-2.965,3.598
		c0,1.836,0.893,4.218,3.337,4.218C175.346,99,176.761,97.883,176.761,95.44"/>
	<path style="clip-path:url(#SVGID_00000129905342731369328170000004715208907981435056_);fill:#002361;" d="M187.127,97.077
		c0,0.373,0,1.849,0.037,2.172c-0.025,0.074-0.1,0.136-0.236,0.136c-0.149-0.211-0.508-0.645-1.588-1.873l-2.877-3.276
		c-0.336-0.384-1.18-1.4-1.44-1.674h-0.025c-0.049,0.149-0.062,0.434-0.062,0.806v2.705c0,0.583,0.013,2.195,0.224,2.567
		c0.074,0.137,0.322,0.211,0.633,0.237l0.384,0.037c0.075,0.099,0.062,0.248-0.025,0.309c-0.558-0.024-0.992-0.037-1.451-0.037
		c-0.521,0-0.856,0.013-1.291,0.037c-0.086-0.061-0.099-0.235-0.024-0.309l0.335-0.037c0.285-0.038,0.484-0.113,0.546-0.249
		c0.173-0.447,0.161-1.96,0.161-2.555v-3.586c0-0.347-0.012-0.607-0.274-0.892c-0.173-0.174-0.47-0.261-0.768-0.298l-0.211-0.026
		c-0.074-0.074-0.074-0.259,0.024-0.309c0.522,0.037,1.18,0.037,1.403,0.037c0.198,0,0.409-0.013,0.57-0.037
		c0.248,0.633,1.713,2.27,2.121,2.729l1.203,1.352c0.856,0.955,1.465,1.65,2.047,2.245h0.025c0.05-0.062,0.05-0.26,0.05-0.521
		v-2.655c0-0.583-0.013-2.195-0.248-2.567c-0.075-0.112-0.272-0.187-0.768-0.248l-0.211-0.026c-0.088-0.074-0.076-0.272,0.024-0.309
		c0.57,0.024,0.992,0.037,1.464,0.037c0.533,0,0.855-0.013,1.277-0.037c0.1,0.061,0.1,0.235,0.026,0.309l-0.174,0.026
		c-0.398,0.061-0.646,0.161-0.696,0.26c-0.21,0.447-0.185,1.985-0.185,2.555V97.077z"/>
	<path style="clip-path:url(#SVGID_00000129905342731369328170000004715208907981435056_);fill:#002361;" d="M194.242,96.308
		c-0.086-0.273-0.136-0.31-0.508-0.31h-1.873c-0.31,0-0.385,0.037-0.472,0.298l-0.434,1.303c-0.186,0.558-0.273,0.893-0.273,1.029
		c0,0.149,0.062,0.223,0.361,0.249l0.408,0.037c0.088,0.061,0.088,0.26-0.024,0.31c-0.323-0.025-0.707-0.025-1.29-0.038
		c-0.411,0-0.856,0.025-1.192,0.038c-0.074-0.05-0.098-0.249-0.024-0.31l0.409-0.037c0.298-0.026,0.57-0.162,0.744-0.609
		c0.224-0.57,0.571-1.377,1.092-2.766l1.266-3.35c0.173-0.446,0.248-0.681,0.21-0.881c0.298-0.087,0.509-0.309,0.645-0.47
		c0.075,0,0.162,0.024,0.186,0.111c0.162,0.546,0.361,1.116,0.546,1.662l1.7,4.987c0.359,1.067,0.521,1.253,1.054,1.316l0.335,0.037
		c0.087,0.061,0.062,0.26,0,0.31c-0.509-0.025-0.942-0.038-1.501-0.038c-0.595,0-1.066,0.025-1.426,0.038
		c-0.099-0.05-0.112-0.249-0.025-0.31l0.36-0.037c0.26-0.026,0.434-0.1,0.434-0.224c0-0.136-0.062-0.36-0.161-0.657L194.242,96.308z
		 M191.787,95.204c-0.1,0.285-0.088,0.298,0.26,0.298h1.525c0.36,0,0.385-0.05,0.274-0.385l-0.67-2.021
		c-0.1-0.298-0.211-0.633-0.285-0.783h-0.026c-0.037,0.064-0.16,0.361-0.297,0.733L191.787,95.204z"/>
	<path style="clip-path:url(#SVGID_00000129905342731369328170000004715208907981435056_);fill:#002361;" d="M199.102,92.859
		c0-1.302-0.025-1.501-0.806-1.562l-0.31-0.026c-0.075-0.049-0.05-0.272,0.024-0.31c0.696,0.025,1.117,0.038,1.613,0.038
		c0.485,0,0.907-0.013,1.526-0.038c0.074,0.038,0.099,0.261,0.025,0.31l-0.298,0.026c-0.731,0.061-0.756,0.26-0.756,1.562v4.317
		c0,0.782,0.037,1.105,0.26,1.34c0.136,0.137,0.372,0.285,1.353,0.285c1.055,0,1.314-0.049,1.514-0.161
		c0.248-0.148,0.57-0.596,0.818-1.228c0.074-0.062,0.31-0.012,0.31,0.075c0,0.136-0.347,1.401-0.521,1.736
		c-0.633-0.024-1.812-0.037-3.09-0.037h-1.141c-0.521,0-0.917,0.013-1.613,0.037c-0.074-0.037-0.099-0.235-0.024-0.309l0.372-0.037
		c0.719-0.076,0.744-0.25,0.744-1.551V92.859z"/>
	<path style="clip-path:url(#SVGID_00000129905342731369328170000004715208907981435056_);fill:#002361;" d="M211.49,99.385
		c-1.043,0-1.7-0.322-1.936-0.459c-0.148-0.272-0.31-1.153-0.334-1.736c0.061-0.087,0.248-0.113,0.297-0.037
		c0.186,0.632,0.695,1.847,2.133,1.847c1.043,0,1.551-0.681,1.551-1.426c0-0.545-0.111-1.154-1.017-1.737l-1.178-0.768
		c-0.62-0.411-1.34-1.118-1.34-2.134c0-1.179,0.918-2.134,2.531-2.134c0.385,0,0.83,0.074,1.153,0.161
		c0.161,0.05,0.335,0.074,0.435,0.074c0.111,0.298,0.223,0.993,0.223,1.514c-0.049,0.074-0.248,0.111-0.311,0.037
		c-0.16-0.596-0.496-1.402-1.686-1.402c-1.216,0-1.476,0.806-1.476,1.378c0,0.718,0.595,1.24,1.054,1.525l0.993,0.62
		c0.781,0.485,1.551,1.203,1.551,2.382C214.133,98.455,213.102,99.385,211.49,99.385"/>
	<path style="clip-path:url(#SVGID_00000129905342731369328170000004715208907981435056_);fill:#002361;" d="M219.96,97.326
		c0,1.302,0.024,1.488,0.744,1.551l0.398,0.037c0.074,0.049,0.048,0.272-0.026,0.309c-0.707-0.024-1.129-0.037-1.625-0.037
		s-0.931,0.013-1.724,0.037c-0.075-0.037-0.1-0.248,0-0.309l0.447-0.037c0.707-0.063,0.768-0.249,0.768-1.551V91.78
		c0-0.385,0-0.396-0.372-0.396h-0.681c-0.535,0-1.217,0.024-1.527,0.309c-0.298,0.274-0.422,0.546-0.558,0.857
		c-0.099,0.074-0.273,0.012-0.323-0.087c0.199-0.559,0.384-1.353,0.472-1.849c0.037-0.024,0.198-0.037,0.235,0
		c0.075,0.398,0.484,0.385,1.055,0.385h5.025c0.669,0,0.781-0.025,0.966-0.348c0.063-0.024,0.2-0.012,0.224,0.037
		c-0.136,0.509-0.224,1.514-0.187,1.886c-0.048,0.1-0.259,0.1-0.322,0.025c-0.037-0.31-0.124-0.769-0.31-0.906
		c-0.286-0.211-0.756-0.309-1.439-0.309h-0.881c-0.372,0-0.359,0.011-0.359,0.421V97.326z"/>
	<path style="clip-path:url(#SVGID_00000129905342731369328170000004715208907981435056_);fill:#002361;" d="M231.703,94.112
		c0-0.769-0.024-2.195-0.235-2.567c-0.087-0.15-0.31-0.236-0.62-0.261l-0.311-0.025c-0.074-0.086-0.049-0.248,0.025-0.297
		c0.471,0.024,0.93,0.037,1.414,0.037c0.522,0,0.856-0.013,1.303-0.037c0.1,0.061,0.086,0.222,0.025,0.297l-0.298,0.025
		c-0.311,0.025-0.545,0.137-0.62,0.298c-0.174,0.409-0.174,1.836-0.174,2.53v1.402c0,1.079-0.173,2.221-0.868,2.965
		c-0.534,0.583-1.452,0.905-2.37,0.905c-0.856,0-1.712-0.161-2.32-0.681c-0.657-0.546-0.967-1.451-0.967-2.928v-2.928
		c0-1.29-0.025-1.501-0.745-1.563l-0.309-0.025c-0.075-0.049-0.05-0.26,0.024-0.297c0.62,0.024,1.042,0.037,1.538,0.037
		c0.509,0,0.918-0.013,1.526-0.037c0.075,0.037,0.099,0.248,0.025,0.297l-0.298,0.025c-0.72,0.062-0.744,0.273-0.744,1.563v2.68
		c0,1.997,0.62,3.312,2.519,3.312c1.798,0,2.48-1.414,2.48-3.3V94.112z"/>
	<path style="clip-path:url(#SVGID_00000129905342731369328170000004715208907981435056_);fill:#002361;" d="M235.63,92.611
		c0-0.868-0.061-1.129-0.582-1.203l-0.273-0.037c-0.1-0.061-0.111-0.261,0.012-0.31c1.054-0.062,2.06-0.099,3.114-0.099
		c1.042,0,1.923,0.074,2.729,0.372c1.675,0.607,2.518,2.022,2.518,3.659c0,1.576-0.756,2.928-2.17,3.697
		c-0.807,0.434-1.824,0.596-2.779,0.596c-0.794,0-1.588-0.1-2.022-0.1c-0.521,0-0.968,0.013-1.55,0.038
		c-0.075-0.038-0.1-0.236-0.026-0.31l0.285-0.037c0.72-0.1,0.744-0.249,0.744-1.551V92.611z M236.648,97.04
		c0,0.658,0.037,1.055,0.248,1.353c0.273,0.384,0.744,0.508,1.525,0.508c2.408,0,3.487-1.575,3.487-3.882
		c0-1.366-0.657-3.672-3.907-3.672c-0.732,0-1.129,0.098-1.229,0.173c-0.099,0.075-0.124,0.384-0.124,0.943V97.04z"/>
	<path style="clip-path:url(#SVGID_00000129905342731369328170000004715208907981435056_);fill:#002361;" d="M245.588,92.885
		c0-1.315-0.024-1.526-0.756-1.588l-0.31-0.025c-0.075-0.049-0.05-0.273,0.025-0.31c0.619,0.025,1.041,0.037,1.562,0.037
		c0.497,0,0.918-0.012,1.539-0.037c0.075,0.037,0.099,0.261,0.024,0.31l-0.31,0.025c-0.731,0.062-0.756,0.273-0.756,1.588v4.416
		c0,1.315,0.025,1.488,0.756,1.576l0.31,0.037c0.075,0.049,0.051,0.273-0.024,0.31c-0.621-0.025-1.042-0.037-1.539-0.037
		c-0.521,0-0.943,0.012-1.562,0.037c-0.075-0.037-0.1-0.235-0.025-0.31l0.31-0.037c0.732-0.088,0.756-0.261,0.756-1.576V92.885z"/>
	<path style="clip-path:url(#SVGID_00000129905342731369328170000004715208907981435056_);fill:#002361;" d="M250.4,92.859
		c0-1.29-0.025-1.476-0.758-1.562l-0.197-0.026c-0.075-0.049-0.051-0.272,0.024-0.31c0.534,0.025,0.955,0.038,1.464,0.038h2.332
		c0.794,0,1.526,0,1.675-0.038c0.074,0.211,0.149,1.104,0.198,1.65c-0.049,0.075-0.248,0.099-0.31,0.025
		c-0.186-0.583-0.297-1.017-0.943-1.178c-0.26-0.063-0.657-0.075-1.203-0.075h-0.893c-0.372,0-0.372,0.025-0.372,0.496v2.481
		c0,0.348,0.038,0.348,0.409,0.348h0.72c0.52,0,0.905-0.025,1.054-0.075c0.15-0.049,0.236-0.124,0.298-0.434l0.1-0.508
		c0.061-0.075,0.272-0.075,0.322,0.012c0,0.299-0.05,0.782-0.05,1.253c0,0.447,0.05,0.918,0.05,1.191
		c-0.05,0.087-0.261,0.087-0.322,0.012l-0.113-0.484c-0.049-0.223-0.135-0.409-0.383-0.471c-0.174-0.05-0.473-0.062-0.956-0.062
		h-0.72c-0.371,0-0.409,0.012-0.409,0.335v1.749c0,0.657,0.038,1.079,0.235,1.29c0.149,0.149,0.41,0.285,1.502,0.285
		c0.955,0,1.314-0.049,1.588-0.185c0.222-0.124,0.557-0.559,0.881-1.204c0.086-0.062,0.259-0.025,0.309,0.087
		c-0.087,0.434-0.397,1.389-0.557,1.724c-1.118-0.024-2.221-0.037-3.326-0.037h-1.116c-0.533,0-0.955,0.013-1.687,0.037
		c-0.075-0.037-0.1-0.235-0.026-0.309l0.41-0.037c0.708-0.063,0.77-0.25,0.77-1.551V92.859z"/>
	<path style="clip-path:url(#SVGID_00000129905342731369328170000004715208907981435056_);fill:#002361;" d="M259.452,99.385
		c-1.042,0-1.7-0.322-1.935-0.459c-0.149-0.272-0.31-1.153-0.336-1.736c0.063-0.087,0.249-0.113,0.298-0.037
		c0.187,0.632,0.695,1.847,2.134,1.847c1.042,0,1.551-0.681,1.551-1.426c0-0.545-0.111-1.154-1.018-1.737l-1.177-0.768
		c-0.621-0.411-1.34-1.118-1.34-2.134c0-1.179,0.918-2.134,2.53-2.134c0.385,0,0.831,0.074,1.153,0.161
		c0.162,0.05,0.336,0.074,0.435,0.074c0.112,0.298,0.224,0.993,0.224,1.514c-0.05,0.074-0.248,0.111-0.311,0.037
		c-0.161-0.596-0.496-1.402-1.687-1.402c-1.215,0-1.476,0.806-1.476,1.378c0,0.718,0.595,1.24,1.054,1.525l0.993,0.62
		c0.781,0.485,1.551,1.203,1.551,2.382C262.095,98.455,261.064,99.385,259.452,99.385"/>
</g>
</svg>
