<?xml version="1.0" encoding="iso-8859-1"?>
<!-- Generator: Adobe Illustrator 25.4.1, SVG Export Plug-In . SVG Version: 6.00 Build 0)  -->
<svg version="1.1" id="Layer_1" xmlns="http://www.w3.org/2000/svg" xmlns:xlink="http://www.w3.org/1999/xlink" x="0px" y="0px"
	 viewBox="0 0 313 142" style="enable-background:new 0 0 313 142;" xml:space="preserve">
<g>
	<defs>
		<rect id="SVGID_1_" x="43.266" y="43.392" width="40.255" height="43.376"/>
	</defs>
	<clipPath id="SVGID_00000073720252348548147500000004726083459288166811_">
		<use xlink:href="#SVGID_1_"  style="overflow:visible;"/>
	</clipPath>
	<path style="clip-path:url(#SVGID_00000073720252348548147500000004726083459288166811_);fill:#FFFFFF;" d="M75.065,56.052
		l-1.722-0.787c-1.554-0.711-2.117-1.479-2.117-2.564c0-1.218,0.991-2.211,2.545-2.211c2.827,0,2.979,2.342,2.995,2.941h0.638
		v-3.146c-1.158-0.224-2.322-0.507-3.5-0.507c-2.529,0-4.177,1.742-4.177,3.672c0,1.536,0.995,2.547,2.417,3.221l2.022,0.955
		c1.048,0.504,2.34,1.141,2.34,2.787c0,1.574-1.387,2.548-2.995,2.548c-1.592,0-3.035-1.18-3.182-2.903h-0.563l0.065,2.733h-0.1
		c-0.863,0-1.237-0.316-1.237-1.535v-9.135c0-1.218,0.374-1.535,1.237-1.535h0.334v-0.562c-0.785,0.019-1.571,0.056-2.394,0.056
		c-0.844,0-1.741-0.037-2.396-0.056v0.562h0.338c0.858,0,1.233,0.317,1.233,1.535v8.661l-5.58-11.284h-0.419l-4.265,9.509
		c-0.25-1.525-1.534-2.4-2.743-2.955l-1.723-0.787c-1.554-0.711-2.115-1.479-2.115-2.564c0-1.218,0.992-2.211,2.545-2.211
		c2.828,0,2.979,2.342,2.997,2.941h0.635v-3.146c-1.159-0.224-2.321-0.507-3.5-0.507c-2.528,0-4.175,1.742-4.175,3.672
		c0,1.536,0.993,2.547,2.416,3.221l2.019,0.955c1.05,0.504,2.343,1.141,2.343,2.787c0,1.574-1.387,2.548-2.997,2.548
		c-1.268,0-2.441-0.748-2.942-1.926c-0.111-0.286-0.422-0.977-0.612-0.977h-0.19l0.076,3.071c1.422,0.447,3.051,0.469,3.349,0.469
		c0.749,0,1.403-0.1,1.971-0.281c0.421-0.012,0.902-0.018,1.392-0.018c1.038,0,1.941,0.018,2.717,0.055v-0.563h-0.488
		c-0.683,0-0.905-0.261-0.905-0.597c0-0.413,0.222-0.973,0.375-1.349l1.17-2.959h5.146l1.612,3.37
		c0.089,0.17,0.309,0.676,0.309,0.938c0,0.392-0.418,0.597-1.125,0.597h-0.552v0.563c0.818-0.037,1.877-0.055,3.046-0.055
		c1.148,0,2.165,0.018,3.002,0.055v-0.012c0.143,0.004,0.287,0.01,0.43,0.012l0.728,0.013c1.124,0.217,2.166,0.231,2.398,0.231
		c3.127,0,4.665-1.703,4.665-4.044C77.856,57.681,76.416,56.671,75.065,56.052 M58.486,57.175l2.052-5.13l2.474,5.13H58.486z"/>
	<path style="clip-path:url(#SVGID_00000073720252348548147500000004726083459288166811_);fill:#FFFFFF;" d="M81.971,45.396
		l-0.036-0.022l-0.217-0.05c-5.996-1.282-12.162-1.932-18.325-1.932c-6.172,0-12.345,0.652-18.346,1.939l-0.025,0.006l-0.049,0.01
		c-1.005,0.256-1.708,1.158-1.708,2.196l0.002,3.264c0,23.546,14.572,33.1,19.037,35.468c0.362,0.191,0.731,0.287,1.098,0.287
		c0.373,0,0.742-0.1,1.097-0.295c4.445-2.356,19.021-11.906,19.021-35.46v-3.264C83.52,46.56,82.883,45.697,81.971,45.396
		 M50.746,73.572c0.145-0.149,0.287-0.305,0.438-0.448c1.645,0.614,3.327,1.098,5.033,1.454c-0.678,1.263-1.237,2.576-1.681,3.926
		C53.235,77.089,51.945,75.453,50.746,73.572 M52.641,71.876c2.344-1.796,5.141-3.02,8.193-3.465
		c-1.439,1.423-2.688,2.981-3.735,4.643C55.59,72.765,54.102,72.374,52.641,71.876 M62.568,84.918
		c-1.479-0.816-3.402-2.082-5.444-3.88c1.794,0.255,3.61,0.406,5.444,0.437V84.918z M62.568,79.807
		c-2.195-0.041-4.363-0.25-6.503-0.623c0.474-1.482,1.099-2.919,1.872-4.29c1.53,0.24,3.075,0.379,4.631,0.414V79.807z
		 M62.568,73.628c-1.225-0.029-2.447-0.119-3.661-0.281c1.036-1.539,2.259-2.98,3.661-4.288V73.628z M64.239,84.909v-3.434
		c1.824-0.031,3.633-0.18,5.42-0.435C67.628,82.831,65.714,84.09,64.239,84.909 M64.239,79.807v-4.499
		c1.551-0.035,3.09-0.172,4.607-0.408c0.777,1.371,1.4,2.807,1.877,4.288C68.591,79.559,66.427,79.766,64.239,79.807 M67.88,73.351
		c-1.206,0.158-2.424,0.248-3.641,0.277v-4.546C65.632,70.386,66.849,71.816,67.88,73.351 M65.946,68.405
		c3.063,0.443,5.87,1.669,8.22,3.471c-1.466,0.5-2.964,0.891-4.478,1.18C68.639,71.392,67.386,69.832,65.946,68.405 M72.248,78.504
		c-0.442-1.346-1.002-2.659-1.679-3.921c1.716-0.357,3.405-0.843,5.057-1.459c0.146,0.139,0.282,0.291,0.425,0.436
		C74.848,75.445,73.554,77.087,72.248,78.504 M82.204,50.807c0,9.046-2.242,16.004-5.255,21.263
		c-3.496-3.421-8.276-5.538-13.544-5.538c-5.275,0-10.062,2.123-13.56,5.553c-3.015-5.262-5.262-12.226-5.262-21.278l-0.001-3.264
		c0-0.445,0.304-0.817,0.717-0.919l0.023-0.005c5.828-1.25,11.872-1.911,18.071-1.911c6.19,0,12.228,0.659,18.048,1.905l0.011,0.006
		c0.431,0.085,0.752,0.467,0.752,0.924V50.807z"/>
</g>
<g>
	<defs>
		<rect id="SVGID_00000085222655084135472470000005767461386652147883_" x="89.875" y="47.917" width="180" height="24.581"/>
	</defs>
	<clipPath id="SVGID_00000015312715151953087360000003578444108979443119_">
		<use xlink:href="#SVGID_00000085222655084135472470000005767461386652147883_"  style="overflow:visible;"/>
	</clipPath>
	<path style="clip-path:url(#SVGID_00000015312715151953087360000003578444108979443119_);fill:#FFFFFF;" d="M95.023,52.328
		c0-3.159-0.283-3.5-1.963-3.643l-0.71-0.056c-0.171-0.114-0.114-0.626,0.057-0.711c1.649,0.056,2.616,0.085,3.811,0.085
		c1.139,0,2.106-0.029,3.244-0.085c0.17,0.085,0.227,0.597,0.057,0.711l-0.427,0.056c-1.678,0.229-1.735,0.625-1.735,3.643v10.555
		c0,2.246-0.115,4.209-0.654,5.517c-0.94,2.278-2.959,4.098-5.606,4.098c-0.34,0-1.222-0.029-1.222-0.598
		c0-0.484,0.425-1.31,1.023-1.31c0.342,0,0.684,0.056,1.054,0.172c0.398,0.113,0.796,0.199,1.194,0.199
		c0.598,0,0.94-0.342,1.139-0.74c0.654-1.338,0.738-5.604,0.738-7.141V52.328z"/>
	<path style="clip-path:url(#SVGID_00000015312715151953087360000003578444108979443119_);fill:#FFFFFF;" d="M99.459,59.027
		c0-4.799,3.601-8.472,8.544-8.472c5.544,0,8.328,4.008,8.328,8.232c0,4.848-3.696,8.375-8.328,8.375
		C102.676,67.162,99.459,63.347,99.459,59.027 M113.931,59.531c0-3.959-1.751-8.232-6.335-8.232c-2.497,0-5.736,1.705-5.736,6.961
		c0,3.55,1.728,8.16,6.455,8.16C111.196,66.42,113.931,64.26,113.931,59.531"/>
	<path style="clip-path:url(#SVGID_00000015312715151953087360000003578444108979443119_);fill:#FFFFFF;" d="M121.783,59.027
		c-1.152,0-1.2,0.049-1.2,0.77v3.382c0,2.52,0.12,2.856,1.464,3l0.695,0.073c0.145,0.095,0.096,0.527-0.047,0.599
		c-1.297-0.049-2.112-0.072-3.049-0.072c-1.031,0-1.847,0.049-2.783,0.072c-0.144-0.072-0.191-0.457-0.049-0.599l0.408-0.073
		c1.344-0.24,1.393-0.48,1.393-3v-8.64c0-2.52-0.168-2.927-1.416-3.024l-0.625-0.048c-0.144-0.096-0.095-0.528,0.049-0.6
		c1.176,0.023,1.992,0.072,3.023,0.072c0.937,0,1.752-0.023,2.784-0.072c0.144,0.072,0.193,0.504,0.048,0.6l-0.456,0.048
		c-1.391,0.144-1.439,0.504-1.439,3.024V57.3c0,0.743,0.048,0.768,1.2,0.768h6.864c1.152,0,1.201-0.025,1.201-0.768v-2.761
		c0-2.52-0.049-2.88-1.465-3.024l-0.455-0.048c-0.145-0.096-0.098-0.528,0.047-0.6c1.103,0.049,1.92,0.072,2.904,0.072
		c0.936,0,1.752-0.023,2.832-0.072c0.142,0.072,0.191,0.504,0.049,0.6l-0.506,0.048c-1.39,0.144-1.439,0.504-1.439,3.024v8.64
		c0,2.52,0.049,2.832,1.439,3l0.576,0.073c0.144,0.095,0.096,0.527-0.049,0.599c-1.15-0.049-1.966-0.072-2.902-0.072
		c-0.984,0-1.847,0.023-2.904,0.072c-0.145-0.072-0.192-0.457-0.047-0.599l0.455-0.073c1.465-0.24,1.465-0.48,1.465-3v-3.382
		c0-0.721-0.049-0.77-1.201-0.77H121.783z"/>
	<path style="clip-path:url(#SVGID_00000015312715151953087360000003578444108979443119_);fill:#FFFFFF;" d="M150.225,62.699
		c0,0.721,0,3.576,0.07,4.199c-0.047,0.145-0.191,0.264-0.455,0.264c-0.287-0.406-0.984-1.246-3.072-3.623l-5.568-6.336
		c-0.647-0.744-2.28-2.712-2.784-3.238h-0.046c-0.098,0.287-0.122,0.838-0.122,1.558v5.233c0,1.127,0.024,4.248,0.432,4.966
		c0.145,0.266,0.625,0.409,1.225,0.457l0.744,0.073c0.144,0.191,0.119,0.48-0.049,0.599c-1.08-0.048-1.92-0.072-2.807-0.072
		c-1.009,0-1.656,0.024-2.496,0.072c-0.168-0.119-0.191-0.457-0.049-0.599l0.649-0.073c0.551-0.072,0.935-0.216,1.057-0.48
		c0.333-0.863,0.31-3.791,0.31-4.943V53.82c0-0.673-0.023-1.178-0.527-1.728c-0.336-0.336-0.912-0.505-1.489-0.577l-0.408-0.047
		c-0.144-0.144-0.144-0.503,0.049-0.601c1.008,0.072,2.279,0.072,2.711,0.072c0.385,0,0.793-0.023,1.105-0.072
		c0.479,1.225,3.311,4.393,4.104,5.281l2.328,2.615c1.654,1.848,2.83,3.192,3.959,4.344h0.049c0.096-0.119,0.096-0.504,0.096-1.008
		v-5.136c0-1.128-0.024-4.247-0.481-4.968c-0.144-0.216-0.527-0.36-1.488-0.48l-0.408-0.047c-0.168-0.144-0.143-0.529,0.048-0.601
		c1.104,0.049,1.92,0.072,2.833,0.072c1.031,0,1.654-0.023,2.47-0.072c0.194,0.121,0.194,0.457,0.049,0.601l-0.336,0.047
		c-0.767,0.12-1.248,0.313-1.344,0.504c-0.408,0.864-0.359,3.84-0.359,4.944V62.699z"/>
	<path style="clip-path:url(#SVGID_00000015312715151953087360000003578444108979443119_);fill:#FFFFFF;" d="M156.568,67.162
		c-2.018,0-3.289-0.623-3.744-0.887c-0.289-0.529-0.602-2.232-0.649-3.359c0.12-0.17,0.481-0.217,0.577-0.072
		c0.359,1.222,1.343,3.576,4.127,3.576c2.015,0,3-1.321,3-2.76c0-1.057-0.215-2.232-1.969-3.361l-2.279-1.489
		c-1.2-0.791-2.592-2.16-2.592-4.127c0-2.28,1.777-4.127,4.896-4.127c0.744,0,1.608,0.144,2.233,0.311
		c0.31,0.098,0.646,0.145,0.837,0.145c0.217,0.575,0.434,1.92,0.434,2.927c-0.096,0.145-0.48,0.216-0.601,0.073
		c-0.311-1.153-0.959-2.713-3.264-2.713c-2.352,0-2.856,1.56-2.856,2.666c0,1.39,1.153,2.398,2.041,2.951l1.92,1.199
		c1.512,0.936,3,2.328,3,4.608C161.679,65.363,159.687,67.162,156.568,67.162"/>
	<path style="clip-path:url(#SVGID_00000015312715151953087360000003578444108979443119_);fill:#FFFFFF;" d="M175.924,57.592
		c-1.365,0-1.422,0.055-1.422,0.908v4.012c0,2.986,0.141,3.385,1.734,3.557l0.827,0.086c0.17,0.113,0.113,0.625-0.059,0.708
		c-1.535-0.056-2.502-0.083-3.611-0.083c-1.225,0-2.192,0.056-3.301,0.083c-0.172-0.083-0.229-0.539-0.057-0.708l0.483-0.086
		c1.593-0.286,1.65-0.571,1.65-3.557V52.27c0-2.987-0.199-3.471-1.678-3.584l-0.74-0.057c-0.17-0.113-0.113-0.626,0.057-0.711
		c1.394,0.028,2.361,0.085,3.586,0.085c1.109,0,2.076-0.028,3.299-0.085c0.171,0.085,0.228,0.598,0.056,0.711l-0.541,0.057
		c-1.648,0.172-1.705,0.597-1.705,3.584v3.272c0,0.882,0.057,0.909,1.422,0.909h8.137c1.365,0,1.422-0.027,1.422-0.909V52.27
		c0-2.987-0.057-3.412-1.737-3.584l-0.541-0.057c-0.17-0.113-0.113-0.626,0.059-0.711c1.306,0.057,2.275,0.085,3.441,0.085
		c1.11,0,2.078-0.028,3.358-0.085c0.17,0.085,0.228,0.598,0.056,0.711l-0.597,0.057c-1.649,0.172-1.707,0.597-1.707,3.584v10.242
		c0,2.986,0.058,3.357,1.707,3.557l0.683,0.086c0.17,0.113,0.114,0.625-0.058,0.708c-1.364-0.056-2.332-0.083-3.442-0.083
		c-1.166,0-2.189,0.027-3.441,0.083c-0.172-0.083-0.229-0.539-0.059-0.708l0.541-0.086c1.737-0.286,1.737-0.571,1.737-3.557V58.5
		c0-0.853-0.057-0.908-1.422-0.908H175.924z"/>
	<path style="clip-path:url(#SVGID_00000015312715151953087360000003578444108979443119_);fill:#FFFFFF;" d="M190.025,59.027
		c0-4.799,3.602-8.472,8.543-8.472c5.545,0,8.328,4.008,8.328,8.232c0,4.848-3.695,8.375-8.328,8.375
		C193.242,67.162,190.025,63.347,190.025,59.027 M204.496,59.531c0-3.959-1.75-8.232-6.336-8.232c-2.494,0-5.734,1.705-5.734,6.961
		c0,3.55,1.728,8.16,6.455,8.16C201.762,66.42,204.496,64.26,204.496,59.531"/>
	<path style="clip-path:url(#SVGID_00000015312715151953087360000003578444108979443119_);fill:#FFFFFF;" d="M211.24,63.18
		c0,2.52,0.049,2.832,1.584,3l0.648,0.072c0.145,0.119,0.098,0.528-0.048,0.6c-1.368-0.049-2.159-0.072-3.12-0.072
		c-1.007,0-1.871,0.023-2.927,0.072c-0.145-0.072-0.192-0.457-0.047-0.6l0.504-0.072c1.39-0.191,1.439-0.48,1.439-3v-8.855
		c0-2.041-0.049-2.449-1.129-2.569l-0.863-0.097c-0.168-0.143-0.145-0.503,0.049-0.599c1.271-0.169,2.76-0.193,4.75-0.193
		c1.992,0,3.48,0.264,4.609,0.961c1.104,0.696,1.92,1.944,1.92,3.599c0,2.208-1.367,3.314-2.4,3.817
		c-1.057,0.504-2.328,0.719-3.313,0.719c-0.168-0.07-0.168-0.431-0.023-0.478c2.592-0.481,3.527-1.946,3.527-4.033
		c0-2.329-1.367-3.839-3.863-3.839c-1.272,0-1.297,0.094-1.297,0.864V63.18z"/>
	<path style="clip-path:url(#SVGID_00000015312715151953087360000003578444108979443119_);fill:#FFFFFF;" d="M221.227,54.539
		c0-2.52-0.049-2.904-1.439-3.023l-0.602-0.048c-0.143-0.097-0.094-0.529,0.049-0.601c1.176,0.049,1.943,0.072,3.023,0.072
		c0.936,0,1.752-0.023,2.785-0.072c0.143,0.072,0.192,0.504,0.047,0.601l-0.455,0.048c-1.392,0.143-1.441,0.503-1.441,3.023v2.762
		c0,0.455,0.049,0.91,0.314,0.91c0.215,0,0.502-0.143,0.67-0.264c0.336-0.287,0.961-0.912,1.225-1.152l2.592-2.567
		c0.455-0.433,1.632-1.657,1.871-1.992c0.121-0.169,0.17-0.289,0.17-0.385c0-0.095-0.096-0.167-0.409-0.239l-0.648-0.144
		c-0.168-0.169-0.145-0.48,0.047-0.601c0.84,0.049,1.801,0.072,2.64,0.072c0.84,0,1.657-0.023,2.375-0.072
		c0.17,0.121,0.194,0.457,0.049,0.601c-0.623,0.048-1.558,0.288-2.23,0.672c-0.672,0.383-2.018,1.511-3.362,2.784l-2.16,2.039
		c-0.336,0.338-0.552,0.553-0.552,0.744c0,0.17,0.144,0.361,0.457,0.744c2.279,2.615,4.127,4.776,6,6.744
		c0.576,0.576,1.013,0.889,1.828,0.985l0.463,0.072c0.17,0.119,0.121,0.527-0.049,0.6c-0.623-0.049-1.281-0.073-2.41-0.073
		c-0.983,0-1.825,0.024-2.928,0.073c-0.168-0.049-0.24-0.458-0.096-0.6l0.551-0.098c0.338-0.047,0.576-0.119,0.576-0.238
		c0-0.145-0.168-0.336-0.336-0.553c-0.457-0.576-1.08-1.224-1.992-2.256l-1.92-2.16c-1.367-1.535-1.752-2.015-2.328-2.015
		c-0.359,0-0.408,0.312-0.408,1.152v3.096c0,2.519,0.049,2.855,1.392,3l0.649,0.072c0.142,0.096,0.096,0.527-0.049,0.6
		c-1.176-0.049-1.992-0.073-2.928-0.073c-0.984,0-1.799,0.024-2.783,0.073c-0.144-0.073-0.193-0.432-0.049-0.6l0.481-0.072
		c1.271-0.192,1.32-0.481,1.32-3V54.539z"/>
	<path style="clip-path:url(#SVGID_00000015312715151953087360000003578444108979443119_);fill:#FFFFFF;" d="M237.699,54.588
		c0-2.544-0.047-2.953-1.465-3.072l-0.598-0.048c-0.144-0.097-0.097-0.528,0.047-0.601c1.2,0.049,2.016,0.073,3.024,0.073
		c0.961,0,1.777-0.024,2.976-0.073c0.145,0.073,0.192,0.504,0.049,0.601l-0.601,0.048c-1.416,0.119-1.463,0.528-1.463,3.072v8.543
		c0,2.545,0.047,2.881,1.463,3.049l0.601,0.072c0.143,0.096,0.096,0.527-0.049,0.6c-1.199-0.049-2.015-0.073-2.976-0.073
		c-1.008,0-1.733,0.024-2.932,0.073c-0.144-0.073-0.191-0.457-0.047-0.6l0.506-0.072c1.418-0.168,1.465-0.504,1.465-3.049V54.588z"
		/>
	<path style="clip-path:url(#SVGID_00000015312715151953087360000003578444108979443119_);fill:#FFFFFF;" d="M258.459,62.699
		c0,0.721,0,3.576,0.074,4.199c-0.049,0.145-0.193,0.264-0.457,0.264c-0.287-0.406-0.984-1.246-3.072-3.623l-5.568-6.336
		c-0.647-0.744-2.28-2.712-2.784-3.238h-0.047c-0.097,0.287-0.121,0.838-0.121,1.558v5.233c0,1.127,0.024,4.248,0.432,4.966
		c0.145,0.266,0.625,0.409,1.225,0.457l0.744,0.073c0.142,0.191,0.119,0.48-0.049,0.599c-1.08-0.048-1.92-0.072-2.807-0.072
		c-1.008,0-1.656,0.024-2.496,0.072c-0.168-0.119-0.193-0.457-0.049-0.599l0.649-0.073c0.551-0.072,0.935-0.216,1.056-0.48
		c0.336-0.863,0.311-3.791,0.311-4.943V53.82c0-0.673-0.023-1.178-0.527-1.728c-0.336-0.336-0.912-0.505-1.489-0.577l-0.408-0.047
		c-0.144-0.144-0.144-0.503,0.049-0.601c1.008,0.072,2.279,0.072,2.711,0.072c0.385,0,0.793-0.023,1.105-0.072
		c0.481,1.225,3.311,4.393,4.102,5.281l2.33,2.615c1.656,1.848,2.83,3.192,3.959,4.344h0.049c0.096-0.119,0.096-0.504,0.096-1.008
		v-5.136c0-1.128-0.024-4.247-0.481-4.968c-0.144-0.216-0.527-0.36-1.486-0.48l-0.408-0.047c-0.17-0.144-0.145-0.529,0.046-0.601
		c1.104,0.049,1.92,0.072,2.832,0.072c1.034,0,1.657-0.023,2.471-0.072c0.194,0.121,0.194,0.457,0.049,0.601l-0.336,0.047
		c-0.768,0.12-1.248,0.313-1.344,0.504c-0.408,0.864-0.361,3.84-0.361,4.944V62.699z"/>
	<path style="clip-path:url(#SVGID_00000015312715151953087360000003578444108979443119_);fill:#FFFFFF;" d="M264.764,67.162
		c-2.018,0-3.289-0.623-3.746-0.887c-0.287-0.529-0.6-2.232-0.649-3.359c0.122-0.17,0.483-0.217,0.577-0.072
		c0.361,1.222,1.345,3.576,4.129,3.576c2.015,0,3-1.321,3-2.76c0-1.057-0.217-2.232-1.969-3.361l-2.278-1.489
		c-1.201-0.791-2.593-2.16-2.593-4.127c0-2.28,1.775-4.127,4.896-4.127c0.744,0,1.608,0.144,2.233,0.311
		c0.312,0.098,0.646,0.145,0.837,0.145c0.217,0.575,0.434,1.92,0.434,2.927c-0.098,0.145-0.48,0.216-0.601,0.073
		c-0.311-1.153-0.959-2.713-3.262-2.713c-2.354,0-2.858,1.56-2.858,2.666c0,1.39,1.153,2.398,2.039,2.951l1.922,1.199
		c1.512,0.936,3,2.328,3,4.608C269.875,65.363,267.883,67.162,264.764,67.162"/>
</g>
<g>
	<defs>
		<rect id="SVGID_00000162327684071525214330000001373934703903059106_" width="313" height="142"/>
	</defs>
	<clipPath id="SVGID_00000086683220296436000120000000406611689065365133_">
		<use xlink:href="#SVGID_00000162327684071525214330000001373934703903059106_"  style="overflow:visible;"/>
	</clipPath>
	<path style="clip-path:url(#SVGID_00000086683220296436000120000000406611689065365133_);fill:#FFFFFF;" d="M111.33,85.895
		c-1.043,0-1.7-0.322-1.936-0.459c-0.148-0.272-0.31-1.153-0.334-1.736c0.061-0.087,0.248-0.113,0.297-0.037
		c0.186,0.632,0.695,1.847,2.133,1.847c1.043,0,1.551-0.681,1.551-1.426c0-0.545-0.111-1.154-1.017-1.737l-1.178-0.768
		c-0.62-0.411-1.34-1.118-1.34-2.134c0-1.179,0.918-2.134,2.531-2.134c0.385,0,0.83,0.074,1.153,0.161
		c0.161,0.05,0.335,0.074,0.435,0.074c0.111,0.298,0.223,0.993,0.223,1.514c-0.049,0.074-0.248,0.111-0.311,0.037
		c-0.16-0.595-0.496-1.402-1.686-1.402c-1.216,0-1.476,0.807-1.476,1.378c0,0.718,0.595,1.24,1.054,1.525l0.993,0.62
		c0.781,0.485,1.551,1.203,1.551,2.382C113.973,84.965,112.942,85.895,111.33,85.895"/>
	<path style="clip-path:url(#SVGID_00000086683220296436000120000000406611689065365133_);fill:#FFFFFF;" d="M117.033,78.364
		c0.906-0.707,2.06-1.054,3.35-1.054c0.67,0,1.613,0.136,2.195,0.298c0.149,0.037,0.236,0.062,0.348,0.049
		c0.011,0.286,0.074,1.067,0.173,1.824c-0.062,0.087-0.248,0.099-0.335,0.025c-0.186-0.844-0.745-1.812-2.543-1.812
		c-1.898,0-3.51,1.204-3.51,3.772c0,2.605,1.65,4.043,3.683,4.043c1.602,0,2.309-1.041,2.594-1.773
		c0.086-0.063,0.272-0.037,0.322,0.05c-0.087,0.644-0.41,1.464-0.595,1.699c-0.149,0.024-0.298,0.074-0.434,0.124
		c-0.273,0.1-1.166,0.285-1.961,0.285c-1.116,0-2.183-0.222-3.088-0.831c-0.993-0.682-1.761-1.811-1.761-3.411
		C115.471,80.275,116.09,79.096,117.033,78.364"/>
	<path style="clip-path:url(#SVGID_00000086683220296436000120000000406611689065365133_);fill:#FFFFFF;" d="M127.4,81.689
		c-0.596,0-0.621,0.024-0.621,0.396v1.75c0,1.302,0.062,1.476,0.758,1.55l0.359,0.038c0.074,0.049,0.05,0.273-0.025,0.31
		c-0.67-0.024-1.092-0.037-1.576-0.037c-0.533,0-0.955,0.024-1.438,0.037c-0.074-0.037-0.1-0.235-0.025-0.31l0.211-0.038
		c0.695-0.124,0.719-0.248,0.719-1.55v-4.466c0-1.302-0.087-1.513-0.731-1.563l-0.323-0.025c-0.075-0.049-0.05-0.273,0.024-0.31
		c0.608,0.013,1.03,0.037,1.563,0.037c0.484,0,0.906-0.012,1.44-0.037c0.074,0.037,0.099,0.261,0.024,0.31l-0.235,0.025
		c-0.72,0.074-0.745,0.261-0.745,1.563v1.426c0,0.385,0.025,0.398,0.621,0.398h3.548c0.595,0,0.62-0.013,0.62-0.398v-1.426
		c0-1.302-0.025-1.489-0.757-1.563l-0.235-0.025c-0.074-0.049-0.05-0.273,0.024-0.31c0.571,0.025,0.993,0.037,1.501,0.037
		c0.484,0,0.906-0.012,1.465-0.037c0.074,0.037,0.099,0.261,0.023,0.31l-0.259,0.025c-0.72,0.074-0.745,0.261-0.745,1.563v4.466
		c0,1.302,0.025,1.463,0.745,1.55l0.297,0.038c0.075,0.049,0.05,0.273-0.024,0.31c-0.596-0.024-1.018-0.037-1.502-0.037
		c-0.508,0-0.955,0.013-1.501,0.037c-0.074-0.037-0.098-0.235-0.024-0.31l0.235-0.038c0.757-0.124,0.757-0.248,0.757-1.55v-1.75
		c0-0.372-0.025-0.396-0.62-0.396H127.4z"/>
	<path style="clip-path:url(#SVGID_00000086683220296436000120000000406611689065365133_);fill:#FFFFFF;" d="M135.038,81.689
		c0-2.481,1.861-4.379,4.416-4.379c2.866,0,4.304,2.072,4.304,4.255c0,2.506-1.91,4.329-4.304,4.329
		C136.7,85.894,135.038,83.922,135.038,81.689 M142.518,81.95c0-2.047-0.905-4.256-3.275-4.256c-1.289,0-2.965,0.881-2.965,3.598
		c0,1.836,0.894,4.218,3.338,4.218C141.104,85.51,142.518,84.393,142.518,81.95"/>
	<path style="clip-path:url(#SVGID_00000086683220296436000120000000406611689065365133_);fill:#FFFFFF;" d="M145.516,81.689
		c0-2.481,1.861-4.379,4.416-4.379c2.865,0,4.304,2.072,4.304,4.255c0,2.506-1.91,4.329-4.304,4.329
		C147.178,85.894,145.516,83.922,145.516,81.689 M152.996,81.95c0-2.047-0.906-4.256-3.275-4.256c-1.29,0-2.965,0.881-2.965,3.598
		c0,1.836,0.893,4.218,3.338,4.218C151.582,85.51,152.996,84.393,152.996,81.95"/>
	<path style="clip-path:url(#SVGID_00000086683220296436000120000000406611689065365133_);fill:#FFFFFF;" d="M156.924,79.369
		c0-1.302-0.025-1.501-0.807-1.562l-0.31-0.026c-0.074-0.049-0.049-0.272,0.025-0.309c0.696,0.024,1.117,0.037,1.613,0.037
		c0.484,0,0.906-0.013,1.526-0.037c0.074,0.037,0.099,0.26,0.025,0.309l-0.299,0.026c-0.731,0.061-0.755,0.26-0.755,1.562v4.317
		c0,0.782,0.037,1.105,0.259,1.34c0.137,0.137,0.373,0.285,1.353,0.285c1.055,0,1.315-0.049,1.514-0.161
		c0.248-0.148,0.57-0.595,0.818-1.228c0.075-0.062,0.31-0.012,0.31,0.075c0,0.136-0.347,1.401-0.52,1.736
		c-0.633-0.024-1.813-0.037-3.09-0.037h-1.141c-0.521,0-0.917,0.013-1.613,0.037c-0.074-0.037-0.099-0.235-0.025-0.309l0.373-0.038
		c0.719-0.075,0.744-0.248,0.744-1.55V79.369z"/>
	<path style="clip-path:url(#SVGID_00000086683220296436000120000000406611689065365133_);fill:#FFFFFF;" d="M170.516,82.199
		c-0.037,0.681-0.397,1.873-1.315,2.815c-0.769,0.794-1.439,0.857-1.774,0.857c-0.794,0-1.315-0.583-1.241-1.651
		c0.051-0.768,0.51-1.971,1.352-2.778c0.646-0.62,1.204-0.807,1.712-0.807C170.131,80.635,170.566,81.292,170.516,82.199
		 M168.258,81.603c-0.72,0.968-1.203,2.443-1.24,3.102c-0.026,0.433,0.148,0.794,0.508,0.794c0.273,0,0.584-0.113,0.98-0.646
		c0.546-0.731,1.129-2.369,1.154-3.026c0.012-0.385-0.062-0.82-0.496-0.82C168.915,81.007,168.617,81.12,168.258,81.603"/>
	<path style="clip-path:url(#SVGID_00000086683220296436000120000000406611689065365133_);fill:#FFFFFF;" d="M174.11,81.268
		c-0.074,0.211-0.173,0.607-0.322,1.153c-0.372,1.39-0.707,2.581-1.105,3.946c-0.322,1.116-0.731,1.749-0.979,1.997
		c-0.187,0.174-0.757,0.67-1.49,0.67c-0.67,0-0.905-0.422-0.905-0.608c0-0.248,0.15-0.459,0.286-0.558
		c0.099-0.075,0.21-0.038,0.285,0.049c0.297,0.31,0.67,0.509,0.943,0.509c0.248,0,0.509-0.087,0.794-1.042
		c0.57-1.96,1.005-4.094,1.599-6.116h-1.029c-0.124-0.111-0.074-0.348,0.087-0.459h1.067c0.323-1.116,0.658-2.084,1.389-2.952
		c0.621-0.733,1.266-1.03,1.985-1.03c0.459,0,0.956,0.323,0.956,0.819c0,0.322-0.336,0.707-0.534,0.707
		c-0.112,0-0.161-0.112-0.173-0.198c-0.038-0.683-0.385-0.907-0.695-0.907c-0.273,0-0.608,0.249-0.893,0.67
		c-0.572,0.831-0.82,1.712-1.154,2.891h1.551c0.086,0.137,0.062,0.322-0.125,0.459H174.11z"/>
	<path style="clip-path:url(#SVGID_00000086683220296436000120000000406611689065365133_);fill:#FFFFFF;" d="M185.11,82.819
		c-0.087-0.274-0.136-0.311-0.509-0.311h-1.873c-0.31,0-0.385,0.037-0.47,0.298l-0.435,1.303c-0.187,0.558-0.273,0.893-0.273,1.029
		c0,0.149,0.062,0.223,0.36,0.248l0.409,0.038c0.087,0.061,0.087,0.26-0.024,0.31c-0.323-0.025-0.707-0.025-1.291-0.038
		c-0.41,0-0.856,0.025-1.191,0.038c-0.075-0.05-0.098-0.249-0.024-0.31l0.408-0.038c0.299-0.025,0.571-0.161,0.745-0.608
		c0.224-0.57,0.571-1.377,1.092-2.766l1.265-3.35c0.173-0.446,0.248-0.681,0.21-0.881c0.299-0.087,0.51-0.309,0.646-0.47
		c0.074,0,0.161,0.025,0.186,0.111c0.161,0.546,0.36,1.116,0.545,1.662l1.701,4.987c0.359,1.067,0.52,1.253,1.053,1.315l0.336,0.038
		c0.086,0.061,0.062,0.26,0,0.31c-0.509-0.025-0.943-0.038-1.502-0.038c-0.594,0-1.066,0.025-1.425,0.038
		c-0.1-0.05-0.112-0.249-0.026-0.31l0.36-0.038c0.261-0.025,0.434-0.099,0.434-0.223c0-0.136-0.061-0.36-0.161-0.657L185.11,82.819z
		 M182.654,81.714c-0.1,0.285-0.087,0.298,0.26,0.298h1.526c0.36,0,0.385-0.05,0.273-0.385l-0.67-2.021
		c-0.099-0.298-0.21-0.633-0.285-0.783h-0.025c-0.037,0.063-0.161,0.361-0.298,0.733L182.654,81.714z"/>
	<path style="clip-path:url(#SVGID_00000086683220296436000120000000406611689065365133_);fill:#FFFFFF;" d="M189.994,79.121
		c0-0.868-0.061-1.129-0.582-1.203l-0.273-0.037c-0.1-0.062-0.111-0.261,0.012-0.311c1.054-0.061,2.06-0.098,3.114-0.098
		c1.042,0,1.923,0.074,2.729,0.372c1.675,0.607,2.518,2.022,2.518,3.659c0,1.576-0.756,2.928-2.17,3.697
		c-0.807,0.434-1.824,0.596-2.779,0.596c-0.794,0-1.588-0.1-2.022-0.1c-0.521,0-0.968,0.013-1.55,0.038
		c-0.075-0.038-0.1-0.236-0.026-0.31l0.285-0.038c0.72-0.099,0.744-0.248,0.744-1.55V79.121z M191.012,83.55
		c0,0.658,0.037,1.055,0.248,1.352c0.273,0.385,0.744,0.509,1.525,0.509c2.408,0,3.487-1.575,3.487-3.882
		c0-1.366-0.657-3.672-3.907-3.672c-0.732,0-1.129,0.098-1.229,0.172c-0.099,0.076-0.124,0.385-0.124,0.944V83.55z"/>
	<path style="clip-path:url(#SVGID_00000086683220296436000120000000406611689065365133_);fill:#FFFFFF;" d="M199.319,78.823
		c-0.286-0.694-0.472-0.955-1.005-1.017l-0.224-0.025c-0.086-0.074-0.074-0.248,0.025-0.31c0.36,0.025,0.758,0.038,1.291,0.038
		c0.545,0,0.98-0.013,1.501-0.038c0.087,0.05,0.111,0.236,0.024,0.31l-0.185,0.025c-0.472,0.062-0.57,0.137-0.584,0.236
		c0.025,0.124,0.236,0.794,0.621,1.737c0.57,1.439,1.141,2.865,1.762,4.279c0.384-0.818,0.905-2.096,1.19-2.753
		c0.36-0.844,0.942-2.246,1.153-2.779c0.1-0.261,0.113-0.397,0.113-0.484s-0.124-0.186-0.559-0.236l-0.223-0.025
		c-0.086-0.074-0.062-0.26,0.025-0.31c0.348,0.025,0.818,0.038,1.29,0.038c0.409,0,0.794-0.013,1.204-0.038
		c0.086,0.05,0.086,0.248,0.023,0.31l-0.371,0.025c-0.298,0.025-0.484,0.174-0.645,0.434c-0.347,0.583-0.831,1.588-1.39,2.854
		l-0.67,1.526c-0.496,1.14-1.079,2.58-1.29,3.237c-0.037,0.026-0.087,0.037-0.135,0.037c-0.063,0-0.125-0.011-0.187-0.037
		c-0.137-0.52-0.36-1.129-0.571-1.649L199.319,78.823z"/>
	<path style="clip-path:url(#SVGID_00000086683220296436000120000000406611689065365133_);fill:#FFFFFF;" d="M210.877,82.819
		c-0.087-0.274-0.137-0.311-0.508-0.311h-1.874c-0.309,0-0.384,0.037-0.472,0.298l-0.433,1.303
		c-0.186,0.558-0.274,0.893-0.274,1.029c0,0.149,0.063,0.223,0.361,0.248l0.409,0.038c0.087,0.061,0.087,0.26-0.025,0.31
		c-0.323-0.025-0.707-0.025-1.289-0.038c-0.411,0-0.857,0.025-1.192,0.038c-0.074-0.05-0.099-0.249-0.025-0.31l0.41-0.038
		c0.297-0.025,0.57-0.161,0.744-0.608c0.223-0.57,0.57-1.377,1.092-2.766l1.265-3.35c0.174-0.446,0.249-0.681,0.211-0.881
		c0.297-0.087,0.508-0.309,0.645-0.47c0.074,0,0.161,0.025,0.185,0.111c0.163,0.546,0.361,1.116,0.547,1.662l1.7,4.987
		c0.359,1.067,0.521,1.253,1.054,1.315l0.334,0.038c0.088,0.061,0.063,0.26,0,0.31c-0.508-0.025-0.942-0.038-1.5-0.038
		c-0.595,0-1.067,0.025-1.427,0.038c-0.099-0.05-0.112-0.249-0.025-0.31l0.36-0.038c0.26-0.025,0.434-0.099,0.434-0.223
		c0-0.136-0.062-0.36-0.161-0.657L210.877,82.819z M208.421,81.714c-0.099,0.285-0.087,0.298,0.261,0.298h1.525
		c0.359,0,0.385-0.05,0.274-0.385l-0.67-2.021c-0.1-0.298-0.211-0.633-0.286-0.783H209.5c-0.037,0.063-0.161,0.361-0.298,0.733
		L208.421,81.714z"/>
	<path style="clip-path:url(#SVGID_00000086683220296436000120000000406611689065365133_);fill:#FFFFFF;" d="M222.436,83.587
		c0,0.373,0,1.849,0.037,2.172c-0.025,0.074-0.099,0.136-0.236,0.136c-0.149-0.211-0.508-0.645-1.588-1.873l-2.877-3.276
		c-0.336-0.384-1.18-1.401-1.439-1.674h-0.026c-0.049,0.149-0.061,0.434-0.061,0.806v2.705c0,0.583,0.012,2.195,0.223,2.567
		c0.075,0.137,0.323,0.211,0.633,0.236l0.384,0.038c0.075,0.099,0.062,0.248-0.025,0.309c-0.558-0.024-0.992-0.037-1.451-0.037
		c-0.521,0-0.856,0.013-1.291,0.037c-0.086-0.061-0.098-0.235-0.024-0.309l0.335-0.038c0.285-0.037,0.484-0.112,0.546-0.248
		c0.174-0.447,0.161-1.96,0.161-2.555v-3.586c0-0.347-0.012-0.607-0.274-0.892c-0.172-0.174-0.47-0.261-0.768-0.298l-0.211-0.026
		c-0.074-0.074-0.074-0.259,0.024-0.309c0.522,0.037,1.18,0.037,1.403,0.037c0.198,0,0.409-0.013,0.57-0.037
		c0.248,0.633,1.713,2.27,2.121,2.729l1.203,1.352c0.857,0.955,1.465,1.65,2.047,2.245h0.026c0.049-0.062,0.049-0.26,0.049-0.521
		v-2.655c0-0.583-0.012-2.195-0.248-2.567c-0.075-0.112-0.272-0.187-0.768-0.248l-0.211-0.026c-0.088-0.074-0.075-0.272,0.024-0.309
		c0.57,0.024,0.992,0.037,1.464,0.037c0.533,0,0.856-0.013,1.277-0.037c0.1,0.061,0.1,0.235,0.026,0.309l-0.174,0.026
		c-0.398,0.061-0.646,0.161-0.695,0.26c-0.211,0.447-0.186,1.985-0.186,2.555V83.587z"/>
	<path style="clip-path:url(#SVGID_00000086683220296436000120000000406611689065365133_);fill:#FFFFFF;" d="M226.611,78.364
		c0.906-0.707,2.06-1.054,3.35-1.054c0.67,0,1.613,0.136,2.195,0.298c0.149,0.037,0.236,0.062,0.348,0.049
		c0.011,0.286,0.074,1.067,0.173,1.824c-0.062,0.087-0.248,0.099-0.335,0.025c-0.186-0.844-0.745-1.812-2.543-1.812
		c-1.898,0-3.51,1.204-3.51,3.772c0,2.605,1.65,4.043,3.683,4.043c1.602,0,2.309-1.041,2.594-1.773
		c0.086-0.063,0.273-0.037,0.322,0.05c-0.087,0.644-0.41,1.464-0.595,1.699c-0.149,0.024-0.298,0.074-0.434,0.124
		c-0.273,0.1-1.166,0.285-1.961,0.285c-1.116,0-2.183-0.222-3.088-0.831c-0.993-0.682-1.761-1.811-1.761-3.411
		C225.049,80.275,225.668,79.096,226.611,78.364"/>
	<path style="clip-path:url(#SVGID_00000086683220296436000120000000406611689065365133_);fill:#FFFFFF;" d="M235.304,79.369
		c0-1.29-0.024-1.475-0.757-1.562l-0.198-0.026c-0.075-0.049-0.05-0.272,0.024-0.309c0.534,0.024,0.955,0.037,1.464,0.037h2.333
		c0.793,0,1.526,0,1.674-0.037c0.074,0.211,0.149,1.103,0.199,1.649c-0.05,0.075-0.248,0.1-0.31,0.025
		c-0.186-0.583-0.298-1.017-0.944-1.178c-0.259-0.063-0.656-0.074-1.203-0.074h-0.892c-0.373,0-0.373,0.024-0.373,0.496v2.48
		c0,0.348,0.038,0.348,0.41,0.348h0.718c0.522,0,0.907-0.025,1.055-0.074c0.15-0.05,0.236-0.125,0.299-0.435l0.099-0.508
		c0.061-0.074,0.272-0.074,0.322,0.012c0,0.298-0.05,0.782-0.05,1.253c0,0.447,0.05,0.918,0.05,1.191
		c-0.05,0.087-0.261,0.087-0.322,0.012l-0.113-0.484c-0.049-0.223-0.135-0.409-0.383-0.471c-0.174-0.05-0.472-0.062-0.957-0.062
		h-0.718c-0.372,0-0.41,0.012-0.41,0.335v1.749c0,0.658,0.038,1.079,0.236,1.29c0.148,0.149,0.409,0.285,1.501,0.285
		c0.955,0,1.315-0.049,1.588-0.184c0.223-0.125,0.557-0.56,0.881-1.205c0.087-0.062,0.26-0.025,0.309,0.087
		c-0.086,0.434-0.396,1.389-0.557,1.724c-1.117-0.024-2.221-0.037-3.326-0.037h-1.116c-0.533,0-0.955,0.013-1.686,0.037
		c-0.075-0.037-0.1-0.235-0.026-0.309l0.41-0.038c0.707-0.062,0.769-0.248,0.769-1.55V79.369z"/>
	<path style="clip-path:url(#SVGID_00000086683220296436000120000000406611689065365133_);fill:#FFFFFF;" d="M243.165,79.121
		c0-0.868-0.061-1.129-0.583-1.203l-0.273-0.037c-0.099-0.062-0.111-0.261,0.013-0.311c1.054-0.061,2.059-0.098,3.114-0.098
		c1.041,0,1.922,0.074,2.728,0.372c1.676,0.607,2.519,2.022,2.519,3.659c0,1.576-0.757,2.928-2.171,3.697
		c-0.807,0.434-1.824,0.596-2.779,0.596c-0.793,0-1.588-0.1-2.022-0.1c-0.521,0-0.967,0.013-1.55,0.038
		c-0.075-0.038-0.1-0.236-0.026-0.31l0.286-0.038c0.72-0.099,0.744-0.248,0.744-1.55V79.121z M244.182,83.55
		c0,0.658,0.038,1.055,0.248,1.352c0.273,0.385,0.745,0.509,1.526,0.509c2.408,0,3.487-1.575,3.487-3.882
		c0-1.366-0.657-3.672-3.907-3.672c-0.733,0-1.129,0.098-1.229,0.172c-0.1,0.076-0.125,0.385-0.125,0.944V83.55z"/>
	<path style="clip-path:url(#SVGID_00000086683220296436000120000000406611689065365133_);fill:#FFFFFF;" d="M98.787,92.885
		c0-1.315-0.025-1.526-0.757-1.588l-0.309-0.025c-0.075-0.049-0.051-0.273,0.024-0.31c0.62,0.025,1.042,0.037,1.563,0.037
		c0.497,0,0.918-0.012,1.538-0.037c0.075,0.037,0.099,0.261,0.025,0.31l-0.311,0.025c-0.731,0.062-0.755,0.273-0.755,1.588v4.416
		c0,1.315,0.024,1.488,0.755,1.576l0.311,0.037c0.074,0.049,0.05,0.273-0.025,0.31c-0.62-0.025-1.041-0.037-1.538-0.037
		c-0.521,0-0.943,0.012-1.563,0.037c-0.075-0.037-0.099-0.235-0.024-0.31l0.309-0.037c0.732-0.088,0.757-0.261,0.757-1.576V92.885z"
		/>
	<path style="clip-path:url(#SVGID_00000086683220296436000120000000406611689065365133_);fill:#FFFFFF;" d="M110.285,97.077
		c0,0.373,0,1.849,0.037,2.172c-0.025,0.074-0.099,0.136-0.236,0.136c-0.149-0.211-0.508-0.645-1.588-1.873l-2.877-3.276
		c-0.336-0.384-1.18-1.4-1.44-1.674h-0.025c-0.049,0.149-0.062,0.434-0.062,0.806v2.705c0,0.583,0.013,2.195,0.224,2.567
		c0.074,0.137,0.322,0.211,0.633,0.237l0.384,0.037c0.075,0.099,0.062,0.248-0.025,0.309c-0.558-0.024-0.992-0.037-1.451-0.037
		c-0.521,0-0.856,0.013-1.291,0.037c-0.086-0.061-0.099-0.235-0.024-0.309l0.335-0.037c0.285-0.038,0.484-0.113,0.546-0.249
		c0.173-0.447,0.161-1.96,0.161-2.555v-3.586c0-0.347-0.012-0.607-0.274-0.892c-0.173-0.174-0.47-0.261-0.768-0.298l-0.211-0.026
		c-0.074-0.074-0.074-0.259,0.024-0.309c0.522,0.037,1.18,0.037,1.403,0.037c0.198,0,0.409-0.013,0.57-0.037
		c0.248,0.633,1.713,2.27,2.121,2.729l1.203,1.352c0.856,0.955,1.465,1.65,2.047,2.245h0.025c0.05-0.062,0.05-0.26,0.05-0.521
		v-2.655c0-0.583-0.012-2.195-0.248-2.567c-0.075-0.112-0.272-0.187-0.768-0.248l-0.211-0.026c-0.088-0.074-0.076-0.272,0.024-0.309
		c0.57,0.024,0.992,0.037,1.464,0.037c0.533,0,0.855-0.013,1.277-0.037c0.1,0.061,0.1,0.235,0.026,0.309l-0.174,0.026
		c-0.398,0.061-0.646,0.161-0.695,0.26c-0.211,0.447-0.186,1.985-0.186,2.555V97.077z"/>
	<path style="clip-path:url(#SVGID_00000086683220296436000120000000406611689065365133_);fill:#FFFFFF;" d="M116.917,97.326
		c0,1.302,0.024,1.488,0.745,1.551l0.397,0.037c0.074,0.049,0.049,0.272-0.026,0.309c-0.707-0.024-1.129-0.037-1.625-0.037
		s-0.93,0.013-1.724,0.037c-0.075-0.037-0.099-0.248,0-0.309l0.447-0.037c0.707-0.063,0.769-0.249,0.769-1.551V91.78
		c0-0.385,0-0.396-0.373-0.396h-0.681c-0.534,0-1.216,0.024-1.526,0.309c-0.299,0.274-0.422,0.546-0.558,0.857
		c-0.1,0.074-0.274,0.012-0.323-0.087c0.198-0.559,0.384-1.353,0.471-1.849c0.037-0.024,0.199-0.037,0.236,0
		c0.075,0.398,0.484,0.385,1.055,0.385h5.024c0.669,0,0.781-0.025,0.967-0.348c0.062-0.024,0.199-0.012,0.224,0.037
		c-0.137,0.509-0.224,1.514-0.187,1.886c-0.049,0.1-0.26,0.1-0.323,0.025c-0.037-0.31-0.123-0.769-0.309-0.906
		c-0.286-0.211-0.757-0.309-1.439-0.309h-0.881c-0.373,0-0.36,0.011-0.36,0.421V97.326z"/>
	<path style="clip-path:url(#SVGID_00000086683220296436000120000000406611689065365133_);fill:#FFFFFF;" d="M122.73,92.859
		c0-1.29-0.024-1.476-0.756-1.562l-0.199-0.026c-0.074-0.049-0.049-0.272,0.025-0.31c0.534,0.025,0.955,0.038,1.463,0.038h2.333
		c0.794,0,1.527,0,1.675-0.038c0.074,0.211,0.148,1.104,0.198,1.65c-0.05,0.075-0.248,0.099-0.309,0.025
		c-0.187-0.583-0.299-1.017-0.944-1.178c-0.259-0.063-0.657-0.075-1.203-0.075h-0.893c-0.372,0-0.372,0.025-0.372,0.496v2.481
		c0,0.348,0.037,0.348,0.41,0.348h0.719c0.521,0,0.906-0.025,1.054-0.075c0.149-0.049,0.237-0.124,0.298-0.434l0.099-0.508
		c0.062-0.075,0.273-0.075,0.322,0.012c0,0.299-0.049,0.782-0.049,1.253c0,0.447,0.049,0.918,0.049,1.191
		c-0.049,0.087-0.26,0.087-0.322,0.012l-0.112-0.484c-0.048-0.223-0.136-0.409-0.384-0.471c-0.174-0.05-0.471-0.062-0.955-0.062
		h-0.719c-0.373,0-0.41,0.012-0.41,0.335v1.749c0,0.657,0.037,1.079,0.236,1.29c0.148,0.149,0.408,0.285,1.5,0.285
		c0.955,0,1.315-0.049,1.588-0.185c0.223-0.124,0.558-0.559,0.881-1.204c0.088-0.062,0.261-0.025,0.31,0.087
		c-0.087,0.434-0.396,1.389-0.558,1.724c-1.117-0.024-2.221-0.037-3.325-0.037h-1.117c-0.533,0-0.955,0.013-1.686,0.037
		c-0.075-0.037-0.099-0.235-0.025-0.309l0.409-0.037c0.707-0.063,0.769-0.25,0.769-1.551V92.859z"/>
	<path style="clip-path:url(#SVGID_00000086683220296436000120000000406611689065365133_);fill:#FFFFFF;" d="M130.592,92.872
		c0-1.179-0.037-1.39-0.545-1.452l-0.397-0.049c-0.088-0.062-0.088-0.261,0.012-0.311c0.695-0.062,1.551-0.099,2.766-0.099
		c0.769,0,1.501,0.062,2.072,0.372c0.595,0.311,1.03,0.869,1.03,1.737c0,1.178-0.931,1.824-1.551,2.072
		c-0.061,0.074,0,0.198,0.062,0.298c0.992,1.599,1.65,2.593,2.494,3.3c0.211,0.185,0.521,0.322,0.855,0.346
		c0.063,0.026,0.074,0.124,0.013,0.174c-0.112,0.037-0.31,0.063-0.546,0.063c-1.055,0-1.687-0.311-2.568-1.564
		c-0.323-0.459-0.83-1.314-1.215-1.873c-0.187-0.273-0.385-0.397-0.881-0.397c-0.559,0-0.584,0.012-0.584,0.273v1.564
		c0,1.301,0.025,1.451,0.745,1.55l0.261,0.038c0.074,0.061,0.049,0.272-0.026,0.309c-0.558-0.024-0.98-0.037-1.476-0.037
		c-0.521,0-0.967,0.013-1.551,0.037c-0.074-0.037-0.098-0.223-0.024-0.309l0.31-0.038c0.72-0.087,0.744-0.249,0.744-1.55V92.872z
		 M131.609,94.646c0,0.223,0,0.359,0.038,0.409c0.037,0.037,0.224,0.062,0.857,0.062c0.445,0,0.917-0.049,1.277-0.323
		c0.334-0.26,0.62-0.694,0.62-1.538c0-0.98-0.608-1.91-1.985-1.91c-0.769,0-0.807,0.049-0.807,0.397V94.646z"/>
	<path style="clip-path:url(#SVGID_00000086683220296436000120000000406611689065365133_);fill:#FFFFFF;" d="M145.873,97.077
		c0,0.373,0,1.849,0.037,2.172c-0.025,0.074-0.1,0.136-0.236,0.136c-0.149-0.211-0.509-0.645-1.588-1.873l-2.878-3.276
		c-0.335-0.384-1.179-1.4-1.439-1.674h-0.025c-0.05,0.149-0.062,0.434-0.062,0.806v2.705c0,0.583,0.012,2.195,0.223,2.567
		c0.075,0.137,0.323,0.211,0.633,0.237l0.384,0.037c0.075,0.099,0.062,0.248-0.024,0.309c-0.558-0.024-0.993-0.037-1.452-0.037
		c-0.52,0-0.856,0.013-1.29,0.037c-0.087-0.061-0.099-0.235-0.025-0.309l0.336-0.037c0.285-0.038,0.483-0.113,0.545-0.249
		c0.173-0.447,0.162-1.96,0.162-2.555v-3.586c0-0.347-0.013-0.607-0.274-0.892c-0.173-0.174-0.47-0.261-0.769-0.298l-0.211-0.026
		c-0.074-0.074-0.074-0.259,0.025-0.309c0.522,0.037,1.179,0.037,1.403,0.037c0.197,0,0.408-0.013,0.57-0.037
		c0.248,0.633,1.712,2.27,2.121,2.729l1.203,1.352c0.856,0.955,1.464,1.65,2.047,2.245h0.025c0.049-0.062,0.049-0.26,0.049-0.521
		v-2.655c0-0.583-0.011-2.195-0.248-2.567c-0.074-0.112-0.272-0.187-0.768-0.248l-0.211-0.026c-0.087-0.074-0.076-0.272,0.024-0.309
		c0.57,0.024,0.992,0.037,1.464,0.037c0.534,0,0.856-0.013,1.278-0.037c0.1,0.061,0.1,0.235,0.025,0.309l-0.174,0.026
		c-0.398,0.061-0.646,0.161-0.694,0.26c-0.211,0.447-0.186,1.985-0.186,2.555V97.077z"/>
	<path style="clip-path:url(#SVGID_00000086683220296436000120000000406611689065365133_);fill:#FFFFFF;" d="M152.678,96.308
		c-0.086-0.273-0.136-0.31-0.508-0.31h-1.873c-0.31,0-0.385,0.037-0.472,0.298l-0.434,1.303c-0.186,0.558-0.273,0.893-0.273,1.029
		c0,0.149,0.062,0.223,0.361,0.249l0.408,0.037c0.088,0.061,0.088,0.26-0.024,0.31c-0.323-0.025-0.707-0.025-1.29-0.038
		c-0.411,0-0.856,0.025-1.192,0.038c-0.074-0.05-0.099-0.249-0.024-0.31l0.409-0.037c0.298-0.026,0.57-0.162,0.744-0.609
		c0.224-0.57,0.571-1.377,1.092-2.766l1.265-3.35c0.174-0.446,0.248-0.681,0.211-0.881c0.298-0.087,0.509-0.309,0.645-0.47
		c0.075,0,0.162,0.024,0.186,0.111c0.162,0.546,0.361,1.116,0.546,1.662l1.7,4.987c0.359,1.067,0.521,1.253,1.054,1.316l0.335,0.037
		c0.087,0.061,0.062,0.26,0,0.31c-0.509-0.025-0.942-0.038-1.501-0.038c-0.595,0-1.066,0.025-1.427,0.038
		c-0.098-0.05-0.111-0.249-0.024-0.31l0.36-0.037c0.26-0.026,0.434-0.1,0.434-0.224c0-0.136-0.063-0.36-0.161-0.657L152.678,96.308z
		 M150.223,95.204c-0.1,0.285-0.088,0.298,0.26,0.298h1.525c0.36,0,0.385-0.05,0.274-0.385l-0.67-2.021
		c-0.1-0.298-0.211-0.633-0.285-0.783h-0.026c-0.037,0.064-0.16,0.361-0.297,0.733L150.223,95.204z"/>
	<path style="clip-path:url(#SVGID_00000086683220296436000120000000406611689065365133_);fill:#FFFFFF;" d="M159.659,97.326
		c0,1.302,0.024,1.488,0.745,1.551l0.397,0.037c0.074,0.049,0.049,0.272-0.026,0.309c-0.707-0.024-1.129-0.037-1.625-0.037
		s-0.93,0.013-1.724,0.037c-0.075-0.037-0.099-0.248,0-0.309l0.447-0.037c0.707-0.063,0.769-0.249,0.769-1.551V91.78
		c0-0.385,0-0.396-0.373-0.396h-0.681c-0.534,0-1.216,0.024-1.526,0.309c-0.298,0.274-0.422,0.546-0.558,0.857
		c-0.1,0.074-0.274,0.012-0.323-0.087c0.198-0.559,0.384-1.353,0.471-1.849c0.037-0.024,0.199-0.037,0.237,0
		c0.074,0.398,0.483,0.385,1.054,0.385h5.024c0.669,0,0.781-0.025,0.967-0.348c0.062-0.024,0.199-0.012,0.224,0.037
		c-0.137,0.509-0.224,1.514-0.186,1.886c-0.05,0.1-0.261,0.1-0.324,0.025c-0.037-0.31-0.123-0.769-0.309-0.906
		c-0.285-0.211-0.757-0.309-1.439-0.309h-0.881c-0.373,0-0.36,0.011-0.36,0.421V97.326z"/>
	<path style="clip-path:url(#SVGID_00000086683220296436000120000000406611689065365133_);fill:#FFFFFF;" d="M165.486,92.885
		c0-1.315-0.025-1.526-0.758-1.588l-0.309-0.025c-0.075-0.049-0.05-0.273,0.024-0.31c0.621,0.025,1.043,0.037,1.563,0.037
		c0.497,0,0.918-0.012,1.539-0.037c0.074,0.037,0.099,0.261,0.025,0.31l-0.311,0.025c-0.732,0.062-0.756,0.273-0.756,1.588v4.416
		c0,1.315,0.024,1.488,0.756,1.576l0.311,0.037c0.074,0.049,0.049,0.273-0.025,0.31c-0.621-0.025-1.042-0.037-1.539-0.037
		c-0.52,0-0.942,0.012-1.563,0.037c-0.074-0.037-0.099-0.235-0.024-0.31l0.309-0.037c0.733-0.088,0.758-0.261,0.758-1.576V92.885z"
		/>
	<path style="clip-path:url(#SVGID_00000086683220296436000120000000406611689065365133_);fill:#FFFFFF;" d="M169.281,95.179
		c0-2.481,1.86-4.379,4.416-4.379c2.866,0,4.304,2.072,4.304,4.255c0,2.506-1.91,4.329-4.304,4.329
		C170.943,99.384,169.281,97.412,169.281,95.179 M176.761,95.44c0-2.047-0.905-4.256-3.275-4.256c-1.29,0-2.965,0.881-2.965,3.598
		c0,1.836,0.893,4.218,3.337,4.218C175.346,99,176.761,97.883,176.761,95.44"/>
	<path style="clip-path:url(#SVGID_00000086683220296436000120000000406611689065365133_);fill:#FFFFFF;" d="M187.127,97.077
		c0,0.373,0,1.849,0.037,2.172c-0.025,0.074-0.1,0.136-0.236,0.136c-0.149-0.211-0.508-0.645-1.588-1.873l-2.877-3.276
		c-0.336-0.384-1.18-1.4-1.44-1.674h-0.025c-0.049,0.149-0.062,0.434-0.062,0.806v2.705c0,0.583,0.013,2.195,0.224,2.567
		c0.074,0.137,0.322,0.211,0.633,0.237l0.384,0.037c0.075,0.099,0.062,0.248-0.025,0.309c-0.558-0.024-0.992-0.037-1.451-0.037
		c-0.521,0-0.856,0.013-1.291,0.037c-0.086-0.061-0.099-0.235-0.024-0.309l0.335-0.037c0.285-0.038,0.484-0.113,0.546-0.249
		c0.173-0.447,0.161-1.96,0.161-2.555v-3.586c0-0.347-0.012-0.607-0.274-0.892c-0.173-0.174-0.47-0.261-0.768-0.298l-0.211-0.026
		c-0.074-0.074-0.074-0.259,0.024-0.309c0.522,0.037,1.18,0.037,1.403,0.037c0.198,0,0.409-0.013,0.57-0.037
		c0.248,0.633,1.713,2.27,2.121,2.729l1.203,1.352c0.856,0.955,1.465,1.65,2.047,2.245h0.025c0.05-0.062,0.05-0.26,0.05-0.521
		v-2.655c0-0.583-0.013-2.195-0.248-2.567c-0.075-0.112-0.272-0.187-0.768-0.248l-0.211-0.026c-0.088-0.074-0.076-0.272,0.024-0.309
		c0.57,0.024,0.992,0.037,1.464,0.037c0.533,0,0.855-0.013,1.277-0.037c0.1,0.061,0.1,0.235,0.026,0.309l-0.174,0.026
		c-0.398,0.061-0.646,0.161-0.696,0.26c-0.21,0.447-0.185,1.985-0.185,2.555V97.077z"/>
	<path style="clip-path:url(#SVGID_00000086683220296436000120000000406611689065365133_);fill:#FFFFFF;" d="M194.242,96.308
		c-0.086-0.273-0.136-0.31-0.508-0.31h-1.873c-0.31,0-0.385,0.037-0.472,0.298l-0.434,1.303c-0.186,0.558-0.273,0.893-0.273,1.029
		c0,0.149,0.062,0.223,0.361,0.249l0.408,0.037c0.088,0.061,0.088,0.26-0.024,0.31c-0.323-0.025-0.707-0.025-1.29-0.038
		c-0.411,0-0.856,0.025-1.192,0.038c-0.074-0.05-0.098-0.249-0.024-0.31l0.409-0.037c0.298-0.026,0.57-0.162,0.744-0.609
		c0.224-0.57,0.571-1.377,1.092-2.766l1.266-3.35c0.173-0.446,0.248-0.681,0.21-0.881c0.298-0.087,0.509-0.309,0.645-0.47
		c0.075,0,0.162,0.024,0.186,0.111c0.162,0.546,0.361,1.116,0.546,1.662l1.7,4.987c0.359,1.067,0.521,1.253,1.054,1.316l0.335,0.037
		c0.087,0.061,0.062,0.26,0,0.31c-0.509-0.025-0.942-0.038-1.501-0.038c-0.595,0-1.066,0.025-1.426,0.038
		c-0.099-0.05-0.112-0.249-0.025-0.31l0.36-0.037c0.26-0.026,0.434-0.1,0.434-0.224c0-0.136-0.062-0.36-0.161-0.657L194.242,96.308z
		 M191.787,95.204c-0.1,0.285-0.088,0.298,0.26,0.298h1.525c0.36,0,0.385-0.05,0.274-0.385l-0.67-2.021
		c-0.1-0.298-0.211-0.633-0.285-0.783h-0.026c-0.037,0.064-0.16,0.361-0.297,0.733L191.787,95.204z"/>
	<path style="clip-path:url(#SVGID_00000086683220296436000120000000406611689065365133_);fill:#FFFFFF;" d="M199.102,92.859
		c0-1.302-0.025-1.501-0.806-1.562l-0.31-0.026c-0.075-0.049-0.05-0.272,0.024-0.31c0.696,0.025,1.117,0.038,1.613,0.038
		c0.485,0,0.907-0.013,1.526-0.038c0.074,0.038,0.099,0.261,0.025,0.31l-0.298,0.026c-0.731,0.061-0.756,0.26-0.756,1.562v4.317
		c0,0.782,0.037,1.105,0.26,1.34c0.136,0.137,0.372,0.285,1.353,0.285c1.055,0,1.314-0.049,1.514-0.161
		c0.248-0.148,0.57-0.596,0.818-1.228c0.074-0.062,0.31-0.012,0.31,0.075c0,0.136-0.347,1.401-0.521,1.736
		c-0.633-0.024-1.812-0.037-3.09-0.037h-1.141c-0.521,0-0.917,0.013-1.613,0.037c-0.074-0.037-0.099-0.235-0.024-0.309l0.372-0.037
		c0.719-0.076,0.744-0.25,0.744-1.551V92.859z"/>
	<path style="clip-path:url(#SVGID_00000086683220296436000120000000406611689065365133_);fill:#FFFFFF;" d="M211.49,99.385
		c-1.043,0-1.7-0.322-1.936-0.459c-0.148-0.272-0.31-1.153-0.334-1.736c0.061-0.087,0.248-0.113,0.297-0.037
		c0.186,0.632,0.695,1.847,2.133,1.847c1.043,0,1.551-0.681,1.551-1.426c0-0.545-0.111-1.154-1.017-1.737l-1.178-0.768
		c-0.62-0.411-1.34-1.118-1.34-2.134c0-1.179,0.918-2.134,2.531-2.134c0.385,0,0.83,0.074,1.153,0.161
		c0.161,0.05,0.335,0.074,0.435,0.074c0.111,0.298,0.223,0.993,0.223,1.514c-0.049,0.074-0.248,0.111-0.311,0.037
		c-0.16-0.596-0.496-1.402-1.686-1.402c-1.216,0-1.476,0.806-1.476,1.378c0,0.718,0.595,1.24,1.054,1.525l0.993,0.62
		c0.781,0.485,1.551,1.203,1.551,2.382C214.133,98.455,213.102,99.385,211.49,99.385"/>
	<path style="clip-path:url(#SVGID_00000086683220296436000120000000406611689065365133_);fill:#FFFFFF;" d="M219.96,97.326
		c0,1.302,0.024,1.488,0.744,1.551l0.398,0.037c0.074,0.049,0.048,0.272-0.026,0.309c-0.707-0.024-1.129-0.037-1.625-0.037
		s-0.931,0.013-1.724,0.037c-0.075-0.037-0.1-0.248,0-0.309l0.447-0.037c0.707-0.063,0.768-0.249,0.768-1.551V91.78
		c0-0.385,0-0.396-0.372-0.396h-0.681c-0.535,0-1.217,0.024-1.527,0.309c-0.298,0.274-0.422,0.546-0.558,0.857
		c-0.099,0.074-0.273,0.012-0.323-0.087c0.199-0.559,0.384-1.353,0.472-1.849c0.037-0.024,0.198-0.037,0.235,0
		c0.075,0.398,0.484,0.385,1.055,0.385h5.025c0.669,0,0.781-0.025,0.966-0.348c0.063-0.024,0.2-0.012,0.224,0.037
		c-0.136,0.509-0.224,1.514-0.187,1.886c-0.048,0.1-0.259,0.1-0.322,0.025c-0.037-0.31-0.124-0.769-0.31-0.906
		c-0.286-0.211-0.756-0.309-1.439-0.309h-0.881c-0.372,0-0.359,0.011-0.359,0.421V97.326z"/>
	<path style="clip-path:url(#SVGID_00000086683220296436000120000000406611689065365133_);fill:#FFFFFF;" d="M231.703,94.112
		c0-0.769-0.024-2.195-0.235-2.567c-0.087-0.15-0.31-0.236-0.62-0.261l-0.311-0.025c-0.074-0.086-0.049-0.248,0.025-0.297
		c0.471,0.024,0.93,0.037,1.414,0.037c0.522,0,0.856-0.013,1.303-0.037c0.1,0.061,0.086,0.222,0.025,0.297l-0.298,0.025
		c-0.311,0.025-0.545,0.137-0.62,0.298c-0.174,0.409-0.174,1.836-0.174,2.53v1.402c0,1.079-0.173,2.221-0.868,2.965
		c-0.534,0.583-1.452,0.905-2.37,0.905c-0.856,0-1.712-0.161-2.32-0.681c-0.657-0.546-0.967-1.451-0.967-2.928v-2.928
		c0-1.29-0.025-1.501-0.745-1.563l-0.309-0.025c-0.075-0.049-0.05-0.26,0.024-0.297c0.62,0.024,1.042,0.037,1.538,0.037
		c0.509,0,0.918-0.013,1.526-0.037c0.075,0.037,0.099,0.248,0.025,0.297l-0.298,0.025c-0.72,0.062-0.744,0.273-0.744,1.563v2.68
		c0,1.997,0.62,3.312,2.519,3.312c1.798,0,2.48-1.414,2.48-3.3V94.112z"/>
	<path style="clip-path:url(#SVGID_00000086683220296436000120000000406611689065365133_);fill:#FFFFFF;" d="M235.63,92.611
		c0-0.868-0.061-1.129-0.582-1.203l-0.273-0.037c-0.1-0.061-0.111-0.261,0.012-0.31c1.054-0.062,2.06-0.099,3.114-0.099
		c1.042,0,1.923,0.074,2.729,0.372c1.675,0.607,2.518,2.022,2.518,3.659c0,1.576-0.756,2.928-2.17,3.697
		c-0.807,0.434-1.824,0.596-2.779,0.596c-0.794,0-1.588-0.1-2.022-0.1c-0.521,0-0.968,0.013-1.55,0.038
		c-0.075-0.038-0.1-0.236-0.026-0.31l0.285-0.037c0.72-0.1,0.744-0.249,0.744-1.551V92.611z M236.648,97.04
		c0,0.658,0.037,1.055,0.248,1.353c0.273,0.384,0.744,0.508,1.525,0.508c2.408,0,3.487-1.575,3.487-3.882
		c0-1.366-0.657-3.672-3.907-3.672c-0.732,0-1.129,0.098-1.229,0.173c-0.099,0.075-0.124,0.384-0.124,0.943V97.04z"/>
	<path style="clip-path:url(#SVGID_00000086683220296436000120000000406611689065365133_);fill:#FFFFFF;" d="M245.588,92.885
		c0-1.315-0.024-1.526-0.756-1.588l-0.31-0.025c-0.075-0.049-0.05-0.273,0.025-0.31c0.619,0.025,1.041,0.037,1.562,0.037
		c0.497,0,0.918-0.012,1.539-0.037c0.075,0.037,0.099,0.261,0.024,0.31l-0.31,0.025c-0.731,0.062-0.756,0.273-0.756,1.588v4.416
		c0,1.315,0.025,1.488,0.756,1.576l0.31,0.037c0.075,0.049,0.051,0.273-0.024,0.31c-0.621-0.025-1.042-0.037-1.539-0.037
		c-0.521,0-0.943,0.012-1.562,0.037c-0.075-0.037-0.1-0.235-0.025-0.31l0.31-0.037c0.732-0.088,0.756-0.261,0.756-1.576V92.885z"/>
	<path style="clip-path:url(#SVGID_00000086683220296436000120000000406611689065365133_);fill:#FFFFFF;" d="M250.4,92.859
		c0-1.29-0.025-1.476-0.758-1.562l-0.197-0.026c-0.075-0.049-0.051-0.272,0.024-0.31c0.534,0.025,0.955,0.038,1.464,0.038h2.332
		c0.794,0,1.526,0,1.675-0.038c0.074,0.211,0.149,1.104,0.198,1.65c-0.049,0.075-0.248,0.099-0.31,0.025
		c-0.186-0.583-0.297-1.017-0.943-1.178c-0.26-0.063-0.657-0.075-1.203-0.075h-0.893c-0.372,0-0.372,0.025-0.372,0.496v2.481
		c0,0.348,0.038,0.348,0.409,0.348h0.72c0.52,0,0.905-0.025,1.054-0.075c0.15-0.049,0.236-0.124,0.298-0.434l0.1-0.508
		c0.061-0.075,0.272-0.075,0.322,0.012c0,0.299-0.05,0.782-0.05,1.253c0,0.447,0.05,0.918,0.05,1.191
		c-0.05,0.087-0.261,0.087-0.322,0.012l-0.113-0.484c-0.049-0.223-0.135-0.409-0.383-0.471c-0.174-0.05-0.473-0.062-0.956-0.062
		h-0.72c-0.371,0-0.409,0.012-0.409,0.335v1.749c0,0.657,0.038,1.079,0.235,1.29c0.149,0.149,0.41,0.285,1.502,0.285
		c0.955,0,1.314-0.049,1.588-0.185c0.222-0.124,0.557-0.559,0.881-1.204c0.086-0.062,0.259-0.025,0.309,0.087
		c-0.087,0.434-0.397,1.389-0.557,1.724c-1.118-0.024-2.221-0.037-3.326-0.037h-1.116c-0.533,0-0.955,0.013-1.687,0.037
		c-0.075-0.037-0.1-0.235-0.026-0.309l0.41-0.037c0.708-0.063,0.77-0.25,0.77-1.551V92.859z"/>
	<path style="clip-path:url(#SVGID_00000086683220296436000120000000406611689065365133_);fill:#FFFFFF;" d="M259.452,99.385
		c-1.042,0-1.7-0.322-1.935-0.459c-0.149-0.272-0.31-1.153-0.336-1.736c0.063-0.087,0.249-0.113,0.298-0.037
		c0.187,0.632,0.695,1.847,2.134,1.847c1.042,0,1.551-0.681,1.551-1.426c0-0.545-0.111-1.154-1.018-1.737l-1.177-0.768
		c-0.621-0.411-1.34-1.118-1.34-2.134c0-1.179,0.918-2.134,2.53-2.134c0.385,0,0.831,0.074,1.153,0.161
		c0.162,0.05,0.336,0.074,0.435,0.074c0.112,0.298,0.224,0.993,0.224,1.514c-0.05,0.074-0.248,0.111-0.311,0.037
		c-0.161-0.596-0.496-1.402-1.687-1.402c-1.215,0-1.476,0.806-1.476,1.378c0,0.718,0.595,1.24,1.054,1.525l0.993,0.62
		c0.781,0.485,1.551,1.203,1.551,2.382C262.095,98.455,261.064,99.385,259.452,99.385"/>
</g>
</svg>
