<?xml version="1.0" encoding="iso-8859-1"?>
<!-- Generator: Adobe Illustrator 25.4.1, SVG Export Plug-In . SVG Version: 6.00 Build 0)  -->
<svg version="1.1" id="Layer_1" xmlns="http://www.w3.org/2000/svg" xmlns:xlink="http://www.w3.org/1999/xlink" x="0px" y="0px"
	 viewBox="0 0 313 129" style="enable-background:new 0 0 313 129;" xml:space="preserve">
<g>
	<defs>
		<rect id="SVGID_1_" x="43.628" y="43.759" width="40.261" height="43.38"/>
	</defs>
	<clipPath id="SVGID_00000057133386667660171510000002981670983260412090_">
		<use xlink:href="#SVGID_1_"  style="overflow:visible;"/>
	</clipPath>
	<path style="clip-path:url(#SVGID_00000057133386667660171510000002981670983260412090_);fill:#FFFFFF;" d="M75.003,48.188
		c-0.032-0.061-1.956-1.013-1.956-1.013c-2.445-0.514-6.474-0.289-9.284,0.745h-0.01c-2.812-1.034-6.837-1.259-9.283-0.745
		c0,0-1.924,0.952-1.953,1.013l-2.981,6.576c-0.097,0.184,0.056,0.34,0.225,0.306c4.53-0.861,9.734-1.126,13.995-1.126h0.004
		c4.261,0,9.464,0.265,13.993,1.126c0.171,0.034,0.322-0.122,0.226-0.306L75.003,48.188z M63.054,52.923
		c-3.229-0.128-8.803-0.128-11.596,0.872l1.985-4.97l1.354-0.724l-1.438,4.094c2.912-0.55,6.133-0.755,9.703,0.413L63.054,52.923z
		 M64.416,52.923v-0.315c3.569-1.168,6.791-0.963,9.701-0.413l-1.444-4.094l1.355,0.724l1.986,4.97
		C73.363,52.795,67.79,52.795,64.416,52.923"/>
	<path style="clip-path:url(#SVGID_00000057133386667660171510000002981670983260412090_);fill:#FFFFFF;" d="M82.231,45.73
		l-0.02-0.008l-0.127-0.029c-5.999-1.284-12.164-1.934-18.327-1.934c-6.164,0-12.338,0.652-18.347,1.938l-0.059,0.012l-0.056,0.018
		c-0.962,0.237-1.668,1.139-1.668,2.181l0.002,3.266c0,23.551,14.573,33.105,19.04,35.472c0.357,0.19,0.727,0.287,1.095,0.287
		c0.37,0,0.737-0.097,1.092-0.29c4.455-2.361,19.031-11.918,19.031-35.469v-3.266C83.887,46.891,83.201,45.997,82.231,45.73
		 M62.937,85.292c-4.925-2.718-14.816-10.426-17.372-26.228l0.12-0.025c5.63-1.189,11.431-1.813,17.252-1.869V85.292z
		 M78.517,70.146c-0.003,0.004-0.006,0.012-0.009,0.017c-1.046,2.166-2.23,4.088-3.476,5.773c-0.003,0.003-0.003,0.004-0.004,0.004
		c-1.134,1.534-2.311,2.882-3.483,4.045v-6.37l-3.484-2.319v11.717c-1.295,0.977-2.488,1.731-3.481,2.279V68.977l3.481,2.319v-8.108
		l3.484,2.317V57.51c1.165,0.103,2.327,0.223,3.483,0.372v9.941l3.48,2.317V58.408c1.113,0.19,2.223,0.393,3.326,0.626l0.119,0.026
		C81.263,63.326,80.036,66.998,78.517,70.146 M64.58,60.868V57.17c1.162,0.011,2.323,0.04,3.481,0.098v5.919L64.58,60.868z
		 M82.57,51.174c0,2.146-0.13,4.169-0.363,6.085c-12.083-2.552-24.796-2.552-36.896,0.006c-0.234-1.919-0.364-3.944-0.364-6.091
		l-0.002-3.267c0-0.443,0.305-0.813,0.718-0.916l0.022-0.007c5.828-1.247,11.874-1.909,18.072-1.909
		c6.193,0,12.23,0.661,18.049,1.904l0.014,0.005c0.431,0.088,0.752,0.468,0.752,0.923L82.57,51.174z"/>
	<polygon style="clip-path:url(#SVGID_00000057133386667660171510000002981670983260412090_);fill:#FFFFFF;" points="75.028,67.822 
		71.545,65.504 71.545,73.613 75.028,75.931 	"/>
	<path style="clip-path:url(#SVGID_00000057133386667660171510000002981670983260412090_);fill:#FFFFFF;" d="M55.486,72.931
		c3.515,0,6.375-2.858,6.375-6.373c0-3.515-2.86-6.375-6.375-6.375c-3.514,0-6.373,2.86-6.373,6.375
		C49.113,70.073,51.972,72.931,55.486,72.931 M56.647,72.004c0.491-0.531,1.077-1.306,1.52-2.314
		c0.614,0.132,1.14,0.296,1.571,0.459C58.954,71.076,57.875,71.743,56.647,72.004 M60.221,69.478c-0.472-0.191-1.062-0.39-1.77-0.55
		c0.188-0.593,0.317-1.248,0.354-1.969h2.233C60.971,67.879,60.682,68.734,60.221,69.478 M60.221,63.637
		c0.461,0.744,0.75,1.599,0.817,2.519h-2.233c-0.037-0.719-0.166-1.378-0.354-1.969C59.162,64.026,59.749,63.828,60.221,63.637
		 M59.738,62.966c-0.431,0.164-0.957,0.327-1.571,0.46c-0.443-1.01-1.029-1.783-1.52-2.315
		C57.875,61.372,58.954,62.04,59.738,62.966 M55.887,61.483c0.435,0.446,1.011,1.15,1.456,2.087
		c-0.449,0.065-0.934,0.107-1.456,0.122V61.483z M55.887,64.497c0.636-0.018,1.227-0.074,1.764-0.159
		c0.182,0.545,0.309,1.152,0.349,1.818h-2.113V64.497z M55.887,66.959H58c-0.04,0.665-0.167,1.271-0.353,1.817
		c-0.534-0.087-1.124-0.14-1.76-0.159V66.959z M55.887,69.423c0.521,0.016,1.004,0.058,1.451,0.122
		c-0.443,0.935-1.017,1.638-1.451,2.082V69.423z M51.235,70.149c0.431-0.163,0.96-0.327,1.574-0.46
		c0.444,1.01,1.031,1.786,1.523,2.317C53.1,71.745,52.021,71.077,51.235,70.149 M55.083,71.623c-0.433-0.449-1.003-1.15-1.445-2.079
		c0.446-0.063,0.928-0.105,1.445-0.121V71.623z M55.083,68.617c-0.634,0.019-1.22,0.072-1.753,0.157
		c-0.186-0.544-0.314-1.15-0.352-1.815h2.105V68.617z M55.083,66.156h-2.105c0.038-0.665,0.166-1.272,0.352-1.818
		c0.533,0.085,1.119,0.141,1.753,0.159V66.156z M55.083,63.692c-0.517-0.015-0.999-0.057-1.445-0.121
		c0.442-0.929,1.012-1.632,1.445-2.079V63.692z M54.332,61.109c-0.492,0.532-1.079,1.306-1.523,2.317
		c-0.614-0.133-1.143-0.298-1.573-0.461C52.022,62.038,53.101,61.37,54.332,61.109 M50.752,63.637
		c0.472,0.191,1.061,0.389,1.775,0.55c-0.19,0.591-0.318,1.25-0.355,1.969h-2.236C50.001,65.236,50.292,64.38,50.752,63.637
		 M49.936,66.959h2.236c0.037,0.72,0.165,1.376,0.353,1.968c-0.712,0.161-1.301,0.36-1.773,0.551
		C50.291,68.734,50.001,67.879,49.936,66.959"/>
</g>
<g>
	<defs>
		<rect id="SVGID_00000175309669293883475720000016454109914421335202_" x="89.875" y="47.917" width="180" height="24.581"/>
	</defs>
	<clipPath id="SVGID_00000177459334559683079880000001286694401230601881_">
		<use xlink:href="#SVGID_00000175309669293883475720000016454109914421335202_"  style="overflow:visible;"/>
	</clipPath>
	<path style="clip-path:url(#SVGID_00000177459334559683079880000001286694401230601881_);fill:#FFFFFF;" d="M95.023,52.328
		c0-3.159-0.283-3.5-1.963-3.643l-0.71-0.056c-0.171-0.114-0.114-0.626,0.057-0.711c1.649,0.056,2.616,0.085,3.811,0.085
		c1.139,0,2.106-0.029,3.244-0.085c0.17,0.085,0.227,0.597,0.057,0.711l-0.427,0.056c-1.678,0.229-1.735,0.625-1.735,3.643v10.555
		c0,2.246-0.115,4.209-0.654,5.517c-0.94,2.278-2.959,4.098-5.606,4.098c-0.34,0-1.222-0.029-1.222-0.598
		c0-0.484,0.425-1.31,1.023-1.31c0.342,0,0.684,0.056,1.054,0.172c0.398,0.113,0.796,0.199,1.194,0.199
		c0.598,0,0.94-0.342,1.139-0.74c0.654-1.338,0.738-5.604,0.738-7.141V52.328z"/>
	<path style="clip-path:url(#SVGID_00000177459334559683079880000001286694401230601881_);fill:#FFFFFF;" d="M99.459,59.027
		c0-4.799,3.601-8.472,8.544-8.472c5.544,0,8.328,4.008,8.328,8.232c0,4.848-3.696,8.375-8.328,8.375
		C102.676,67.162,99.459,63.347,99.459,59.027 M113.931,59.531c0-3.959-1.751-8.232-6.335-8.232c-2.497,0-5.736,1.705-5.736,6.961
		c0,3.55,1.728,8.16,6.455,8.16C111.196,66.42,113.931,64.26,113.931,59.531"/>
	<path style="clip-path:url(#SVGID_00000177459334559683079880000001286694401230601881_);fill:#FFFFFF;" d="M121.783,59.027
		c-1.152,0-1.2,0.049-1.2,0.77v3.382c0,2.52,0.12,2.856,1.464,3l0.695,0.073c0.145,0.095,0.096,0.527-0.047,0.599
		c-1.297-0.049-2.112-0.072-3.049-0.072c-1.031,0-1.847,0.049-2.783,0.072c-0.144-0.072-0.191-0.457-0.049-0.599l0.408-0.073
		c1.344-0.24,1.393-0.48,1.393-3v-8.64c0-2.52-0.168-2.927-1.416-3.024l-0.625-0.048c-0.144-0.096-0.095-0.528,0.049-0.6
		c1.176,0.023,1.992,0.072,3.023,0.072c0.937,0,1.752-0.023,2.784-0.072c0.144,0.072,0.193,0.504,0.048,0.6l-0.456,0.048
		c-1.391,0.144-1.439,0.504-1.439,3.024V57.3c0,0.743,0.048,0.768,1.2,0.768h6.864c1.152,0,1.201-0.025,1.201-0.768v-2.761
		c0-2.52-0.049-2.88-1.465-3.024l-0.455-0.048c-0.145-0.096-0.098-0.528,0.047-0.6c1.103,0.049,1.92,0.072,2.904,0.072
		c0.936,0,1.752-0.023,2.832-0.072c0.142,0.072,0.191,0.504,0.049,0.6l-0.506,0.048c-1.39,0.144-1.439,0.504-1.439,3.024v8.64
		c0,2.52,0.049,2.832,1.439,3l0.576,0.073c0.144,0.095,0.096,0.527-0.049,0.599c-1.15-0.049-1.966-0.072-2.902-0.072
		c-0.984,0-1.847,0.023-2.904,0.072c-0.145-0.072-0.192-0.457-0.047-0.599l0.455-0.073c1.465-0.24,1.465-0.48,1.465-3v-3.382
		c0-0.721-0.049-0.77-1.201-0.77H121.783z"/>
	<path style="clip-path:url(#SVGID_00000177459334559683079880000001286694401230601881_);fill:#FFFFFF;" d="M150.225,62.699
		c0,0.721,0,3.576,0.07,4.199c-0.047,0.145-0.191,0.264-0.455,0.264c-0.287-0.406-0.984-1.246-3.072-3.623l-5.568-6.336
		c-0.647-0.744-2.28-2.712-2.784-3.238h-0.046c-0.098,0.287-0.122,0.838-0.122,1.558v5.233c0,1.127,0.024,4.248,0.432,4.966
		c0.145,0.266,0.625,0.409,1.225,0.457l0.744,0.073c0.144,0.191,0.119,0.48-0.049,0.599c-1.08-0.048-1.92-0.072-2.807-0.072
		c-1.009,0-1.656,0.024-2.496,0.072c-0.168-0.119-0.191-0.457-0.049-0.599l0.649-0.073c0.551-0.072,0.935-0.216,1.057-0.48
		c0.333-0.863,0.31-3.791,0.31-4.943V53.82c0-0.673-0.023-1.178-0.527-1.728c-0.336-0.336-0.912-0.505-1.489-0.577l-0.408-0.047
		c-0.144-0.144-0.144-0.503,0.049-0.601c1.008,0.072,2.279,0.072,2.711,0.072c0.385,0,0.793-0.023,1.105-0.072
		c0.479,1.225,3.311,4.393,4.104,5.281l2.328,2.615c1.654,1.848,2.83,3.192,3.959,4.344h0.049c0.096-0.119,0.096-0.504,0.096-1.008
		v-5.136c0-1.128-0.024-4.247-0.481-4.968c-0.144-0.216-0.527-0.36-1.488-0.48l-0.408-0.047c-0.168-0.144-0.143-0.529,0.048-0.601
		c1.104,0.049,1.92,0.072,2.833,0.072c1.031,0,1.654-0.023,2.47-0.072c0.194,0.121,0.194,0.457,0.049,0.601l-0.336,0.047
		c-0.767,0.12-1.248,0.313-1.344,0.504c-0.408,0.864-0.359,3.84-0.359,4.944V62.699z"/>
	<path style="clip-path:url(#SVGID_00000177459334559683079880000001286694401230601881_);fill:#FFFFFF;" d="M156.568,67.162
		c-2.018,0-3.289-0.623-3.744-0.887c-0.289-0.529-0.602-2.232-0.649-3.359c0.12-0.17,0.481-0.217,0.577-0.072
		c0.359,1.222,1.343,3.576,4.127,3.576c2.015,0,3-1.321,3-2.76c0-1.057-0.215-2.232-1.969-3.361l-2.279-1.489
		c-1.2-0.791-2.592-2.16-2.592-4.127c0-2.28,1.777-4.127,4.896-4.127c0.744,0,1.608,0.144,2.233,0.311
		c0.31,0.098,0.646,0.145,0.837,0.145c0.217,0.575,0.434,1.92,0.434,2.927c-0.096,0.145-0.48,0.216-0.601,0.073
		c-0.311-1.153-0.959-2.713-3.264-2.713c-2.352,0-2.856,1.56-2.856,2.666c0,1.39,1.153,2.398,2.041,2.951l1.92,1.199
		c1.512,0.936,3,2.328,3,4.608C161.679,65.363,159.687,67.162,156.568,67.162"/>
	<path style="clip-path:url(#SVGID_00000177459334559683079880000001286694401230601881_);fill:#FFFFFF;" d="M175.924,57.591
		c-1.365,0-1.422,0.055-1.422,0.908v4.012c0,2.986,0.141,3.385,1.734,3.557l0.827,0.086c0.17,0.113,0.113,0.625-0.059,0.708
		c-1.535-0.056-2.502-0.083-3.611-0.083c-1.225,0-2.192,0.056-3.301,0.083c-0.172-0.083-0.229-0.539-0.057-0.708l0.483-0.086
		c1.593-0.286,1.65-0.571,1.65-3.557V52.269c0-2.987-0.199-3.471-1.678-3.584l-0.74-0.057c-0.17-0.113-0.113-0.626,0.057-0.711
		c1.394,0.028,2.361,0.085,3.586,0.085c1.109,0,2.076-0.028,3.299-0.085c0.171,0.085,0.228,0.598,0.056,0.711l-0.541,0.057
		c-1.648,0.172-1.705,0.597-1.705,3.584v3.272c0,0.882,0.057,0.909,1.422,0.909h8.137c1.365,0,1.422-0.027,1.422-0.909v-3.272
		c0-2.987-0.057-3.412-1.737-3.584l-0.541-0.057c-0.17-0.113-0.113-0.626,0.059-0.711c1.306,0.057,2.275,0.085,3.441,0.085
		c1.11,0,2.078-0.028,3.358-0.085c0.17,0.085,0.228,0.598,0.056,0.711l-0.597,0.057c-1.649,0.172-1.707,0.597-1.707,3.584v10.242
		c0,2.986,0.058,3.357,1.707,3.557l0.683,0.086c0.17,0.113,0.114,0.625-0.058,0.708c-1.364-0.056-2.332-0.083-3.442-0.083
		c-1.166,0-2.189,0.027-3.441,0.083c-0.172-0.083-0.229-0.539-0.059-0.708l0.541-0.086c1.737-0.286,1.737-0.571,1.737-3.557v-4.012
		c0-0.853-0.057-0.908-1.422-0.908H175.924z"/>
	<path style="clip-path:url(#SVGID_00000177459334559683079880000001286694401230601881_);fill:#FFFFFF;" d="M190.025,59.027
		c0-4.799,3.602-8.472,8.543-8.472c5.545,0,8.328,4.008,8.328,8.232c0,4.848-3.695,8.375-8.328,8.375
		C193.242,67.162,190.025,63.347,190.025,59.027 M204.496,59.531c0-3.959-1.75-8.232-6.336-8.232c-2.494,0-5.734,1.705-5.734,6.961
		c0,3.55,1.728,8.16,6.455,8.16C201.762,66.42,204.496,64.26,204.496,59.531"/>
	<path style="clip-path:url(#SVGID_00000177459334559683079880000001286694401230601881_);fill:#FFFFFF;" d="M211.24,63.179
		c0,2.52,0.049,2.832,1.584,3l0.648,0.072c0.145,0.119,0.098,0.528-0.048,0.6c-1.368-0.049-2.159-0.072-3.12-0.072
		c-1.007,0-1.871,0.023-2.927,0.072c-0.145-0.072-0.192-0.457-0.047-0.6l0.504-0.072c1.39-0.191,1.439-0.48,1.439-3v-8.855
		c0-2.041-0.049-2.449-1.129-2.569l-0.863-0.097c-0.168-0.143-0.145-0.503,0.049-0.599c1.271-0.169,2.76-0.193,4.75-0.193
		c1.992,0,3.48,0.264,4.609,0.961c1.104,0.696,1.92,1.944,1.92,3.599c0,2.208-1.367,3.314-2.4,3.817
		c-1.057,0.504-2.328,0.719-3.313,0.719c-0.168-0.07-0.168-0.431-0.023-0.478c2.592-0.481,3.527-1.946,3.527-4.033
		c0-2.329-1.367-3.839-3.863-3.839c-1.272,0-1.297,0.094-1.297,0.864V63.179z"/>
	<path style="clip-path:url(#SVGID_00000177459334559683079880000001286694401230601881_);fill:#FFFFFF;" d="M221.227,54.539
		c0-2.52-0.049-2.904-1.439-3.023l-0.602-0.048c-0.143-0.097-0.094-0.529,0.049-0.601c1.176,0.049,1.943,0.072,3.023,0.072
		c0.936,0,1.752-0.023,2.785-0.072c0.143,0.072,0.192,0.504,0.047,0.601l-0.455,0.048c-1.392,0.143-1.441,0.503-1.441,3.023v2.762
		c0,0.455,0.049,0.91,0.314,0.91c0.215,0,0.502-0.143,0.67-0.264c0.336-0.287,0.961-0.912,1.225-1.152l2.592-2.567
		c0.455-0.433,1.632-1.657,1.871-1.992c0.121-0.169,0.17-0.289,0.17-0.385c0-0.095-0.096-0.167-0.409-0.239l-0.648-0.144
		c-0.168-0.169-0.145-0.48,0.047-0.601c0.84,0.049,1.801,0.072,2.64,0.072c0.84,0,1.657-0.023,2.375-0.072
		c0.17,0.121,0.194,0.457,0.049,0.601c-0.623,0.048-1.558,0.288-2.23,0.672c-0.672,0.383-2.018,1.511-3.362,2.784l-2.16,2.039
		c-0.336,0.338-0.552,0.553-0.552,0.744c0,0.17,0.144,0.361,0.457,0.744c2.279,2.615,4.127,4.776,6,6.744
		c0.576,0.576,1.013,0.889,1.828,0.985l0.463,0.072c0.17,0.119,0.121,0.527-0.049,0.6c-0.623-0.049-1.281-0.073-2.41-0.073
		c-0.983,0-1.825,0.024-2.928,0.073c-0.168-0.049-0.24-0.458-0.096-0.6l0.551-0.098c0.338-0.047,0.576-0.119,0.576-0.238
		c0-0.145-0.168-0.336-0.336-0.553c-0.457-0.576-1.08-1.224-1.992-2.256l-1.92-2.16c-1.367-1.535-1.752-2.015-2.328-2.015
		c-0.359,0-0.408,0.312-0.408,1.152v3.096c0,2.519,0.049,2.855,1.392,3l0.649,0.072c0.142,0.096,0.096,0.527-0.049,0.6
		c-1.176-0.049-1.992-0.073-2.928-0.073c-0.984,0-1.799,0.024-2.783,0.073c-0.144-0.073-0.193-0.432-0.049-0.6l0.481-0.072
		c1.271-0.192,1.32-0.481,1.32-3V54.539z"/>
	<path style="clip-path:url(#SVGID_00000177459334559683079880000001286694401230601881_);fill:#FFFFFF;" d="M237.699,54.587
		c0-2.544-0.047-2.953-1.465-3.072l-0.598-0.048c-0.144-0.097-0.097-0.528,0.047-0.601c1.2,0.049,2.016,0.073,3.024,0.073
		c0.961,0,1.777-0.024,2.976-0.073c0.145,0.073,0.192,0.504,0.049,0.601l-0.601,0.048c-1.416,0.119-1.463,0.528-1.463,3.072v8.543
		c0,2.545,0.047,2.881,1.463,3.049l0.601,0.072c0.143,0.096,0.096,0.527-0.049,0.6c-1.199-0.049-2.015-0.073-2.976-0.073
		c-1.008,0-1.733,0.024-2.932,0.073c-0.144-0.073-0.191-0.457-0.047-0.6l0.506-0.072c1.418-0.168,1.465-0.504,1.465-3.049V54.587z"
		/>
	<path style="clip-path:url(#SVGID_00000177459334559683079880000001286694401230601881_);fill:#FFFFFF;" d="M258.459,62.699
		c0,0.721,0,3.576,0.074,4.199c-0.049,0.145-0.193,0.264-0.457,0.264c-0.287-0.406-0.984-1.246-3.072-3.623l-5.568-6.336
		c-0.647-0.744-2.28-2.712-2.784-3.238h-0.047c-0.097,0.287-0.121,0.838-0.121,1.558v5.233c0,1.127,0.024,4.248,0.432,4.966
		c0.145,0.266,0.625,0.409,1.225,0.457l0.744,0.073c0.142,0.191,0.119,0.48-0.049,0.599c-1.08-0.048-1.92-0.072-2.807-0.072
		c-1.008,0-1.656,0.024-2.496,0.072c-0.168-0.119-0.193-0.457-0.049-0.599l0.649-0.073c0.551-0.072,0.935-0.216,1.056-0.48
		c0.336-0.863,0.311-3.791,0.311-4.943V53.82c0-0.673-0.023-1.178-0.527-1.728c-0.336-0.336-0.912-0.505-1.489-0.577l-0.408-0.047
		c-0.144-0.144-0.144-0.503,0.049-0.601c1.008,0.072,2.279,0.072,2.711,0.072c0.385,0,0.793-0.023,1.105-0.072
		c0.481,1.225,3.311,4.393,4.102,5.281l2.33,2.615c1.656,1.848,2.83,3.192,3.959,4.344h0.049c0.096-0.119,0.096-0.504,0.096-1.008
		v-5.136c0-1.128-0.024-4.247-0.481-4.968c-0.144-0.216-0.527-0.36-1.486-0.48l-0.408-0.047c-0.17-0.144-0.145-0.529,0.046-0.601
		c1.104,0.049,1.92,0.072,2.832,0.072c1.034,0,1.657-0.023,2.471-0.072c0.194,0.121,0.194,0.457,0.049,0.601l-0.336,0.047
		c-0.768,0.12-1.248,0.313-1.344,0.504c-0.408,0.864-0.361,3.84-0.361,4.944V62.699z"/>
	<path style="clip-path:url(#SVGID_00000177459334559683079880000001286694401230601881_);fill:#FFFFFF;" d="M264.764,67.162
		c-2.018,0-3.289-0.623-3.746-0.887c-0.287-0.529-0.6-2.232-0.649-3.359c0.122-0.17,0.483-0.217,0.577-0.072
		c0.361,1.222,1.345,3.576,4.129,3.576c2.015,0,3-1.321,3-2.76c0-1.057-0.217-2.232-1.969-3.361l-2.278-1.489
		c-1.201-0.791-2.593-2.16-2.593-4.127c0-2.28,1.775-4.127,4.896-4.127c0.744,0,1.608,0.144,2.233,0.311
		c0.312,0.098,0.646,0.145,0.837,0.145c0.217,0.575,0.434,1.92,0.434,2.927c-0.098,0.145-0.48,0.216-0.601,0.073
		c-0.311-1.153-0.959-2.713-3.262-2.713c-2.354,0-2.858,1.56-2.858,2.666c0,1.39,1.153,2.398,2.039,2.951l1.922,1.199
		c1.512,0.936,3,2.328,3,4.608C269.875,65.363,267.883,67.162,264.764,67.162"/>
</g>
<g>
	<defs>
		<rect id="SVGID_00000084508772808502224700000018024736859421518753_" width="313" height="129"/>
	</defs>
	<clipPath id="SVGID_00000121275324286566999600000013099402271476538283_">
		<use xlink:href="#SVGID_00000084508772808502224700000018024736859421518753_"  style="overflow:visible;"/>
	</clipPath>
	<path style="clip-path:url(#SVGID_00000121275324286566999600000013099402271476538283_);fill:#FFFFFF;" d="M114.08,80.622
		c0-0.769-0.025-2.195-0.236-2.567c-0.086-0.15-0.31-0.236-0.619-0.261l-0.311-0.025c-0.074-0.086-0.05-0.248,0.024-0.297
		c0.472,0.024,0.931,0.037,1.415,0.037c0.521,0,0.856-0.013,1.302-0.037c0.1,0.061,0.087,0.222,0.025,0.297l-0.297,0.025
		c-0.311,0.025-0.546,0.137-0.621,0.298c-0.174,0.409-0.174,1.836-0.174,2.53v1.402c0,1.079-0.173,2.221-0.867,2.965
		c-0.534,0.583-1.453,0.905-2.37,0.905c-0.857,0-1.712-0.161-2.32-0.681c-0.658-0.546-0.968-1.452-0.968-2.928v-2.928
		c0-1.29-0.024-1.501-0.745-1.563l-0.309-0.025c-0.075-0.049-0.05-0.26,0.024-0.297c0.621,0.024,1.043,0.037,1.539,0.037
		c0.508,0,0.918-0.013,1.526-0.037c0.074,0.037,0.099,0.248,0.025,0.297l-0.299,0.025c-0.719,0.062-0.744,0.273-0.744,1.563v2.68
		c0,1.997,0.621,3.312,2.52,3.312c1.797,0,2.48-1.414,2.48-3.3V80.622z"/>
	<path style="clip-path:url(#SVGID_00000121275324286566999600000013099402271476538283_);fill:#FFFFFF;" d="M124.707,83.587
		c0,0.373,0,1.849,0.037,2.172c-0.025,0.074-0.099,0.136-0.236,0.136c-0.149-0.211-0.508-0.645-1.588-1.873l-2.877-3.276
		c-0.336-0.384-1.18-1.401-1.44-1.674h-0.025c-0.049,0.149-0.061,0.434-0.061,0.806v2.705c0,0.583,0.012,2.195,0.223,2.567
		c0.074,0.137,0.322,0.211,0.633,0.236l0.384,0.038c0.075,0.099,0.061,0.248-0.025,0.309c-0.558-0.024-0.992-0.037-1.451-0.037
		c-0.521,0-0.856,0.013-1.291,0.037c-0.086-0.061-0.098-0.235-0.024-0.309l0.335-0.038c0.285-0.037,0.484-0.112,0.546-0.248
		c0.173-0.447,0.161-1.96,0.161-2.555v-3.586c0-0.347-0.012-0.607-0.274-0.892c-0.173-0.174-0.47-0.261-0.768-0.298l-0.211-0.026
		c-0.074-0.074-0.074-0.259,0.024-0.309c0.522,0.037,1.18,0.037,1.403,0.037c0.198,0,0.409-0.013,0.57-0.037
		c0.248,0.633,1.713,2.269,2.121,2.729l1.203,1.352c0.857,0.955,1.465,1.65,2.047,2.245h0.025c0.05-0.062,0.05-0.26,0.05-0.521
		v-2.655c0-0.583-0.012-2.195-0.248-2.567c-0.075-0.112-0.272-0.187-0.768-0.248l-0.211-0.026c-0.088-0.074-0.076-0.272,0.023-0.309
		c0.571,0.024,0.993,0.037,1.465,0.037c0.533,0,0.855-0.013,1.277-0.037c0.1,0.061,0.1,0.235,0.026,0.309l-0.174,0.026
		c-0.398,0.061-0.646,0.161-0.695,0.26c-0.211,0.447-0.186,1.985-0.186,2.555V83.587z"/>
	<path style="clip-path:url(#SVGID_00000121275324286566999600000013099402271476538283_);fill:#FFFFFF;" d="M128.361,79.395
		c0-1.315-0.024-1.526-0.756-1.588l-0.31-0.025c-0.075-0.049-0.05-0.273,0.025-0.31c0.619,0.025,1.041,0.037,1.562,0.037
		c0.497,0,0.918-0.012,1.539-0.037c0.075,0.037,0.099,0.261,0.024,0.31l-0.31,0.025c-0.731,0.062-0.756,0.273-0.756,1.588v4.416
		c0,1.315,0.025,1.489,0.756,1.575l0.31,0.038c0.075,0.049,0.051,0.273-0.024,0.31c-0.621-0.025-1.042-0.037-1.539-0.037
		c-0.521,0-0.943,0.012-1.562,0.037c-0.075-0.037-0.1-0.235-0.025-0.31l0.31-0.038c0.732-0.086,0.756-0.26,0.756-1.575V79.395z"/>
	<path style="clip-path:url(#SVGID_00000121275324286566999600000013099402271476538283_);fill:#FFFFFF;" d="M132.826,78.823
		c-0.286-0.694-0.473-0.955-1.006-1.017l-0.223-0.025c-0.086-0.074-0.074-0.248,0.025-0.31c0.36,0.025,0.757,0.038,1.29,0.038
		c0.546,0,0.98-0.013,1.502-0.038c0.086,0.05,0.111,0.236,0.023,0.31l-0.185,0.025c-0.471,0.062-0.571,0.137-0.583,0.236
		c0.024,0.124,0.235,0.794,0.62,1.737c0.57,1.439,1.141,2.865,1.762,4.279c0.384-0.818,0.906-2.096,1.191-2.754
		c0.359-0.843,0.942-2.245,1.153-2.778c0.099-0.261,0.113-0.397,0.113-0.484c0-0.087-0.125-0.186-0.559-0.236l-0.224-0.025
		c-0.087-0.074-0.061-0.26,0.025-0.31c0.347,0.025,0.819,0.038,1.291,0.038c0.409,0,0.793-0.013,1.203-0.038
		c0.086,0.05,0.086,0.248,0.024,0.31l-0.372,0.025c-0.298,0.025-0.484,0.174-0.644,0.434c-0.348,0.583-0.832,1.588-1.39,2.854
		l-0.67,1.526c-0.497,1.14-1.079,2.58-1.29,3.237c-0.037,0.026-0.087,0.037-0.137,0.037c-0.062,0-0.124-0.011-0.185-0.037
		c-0.137-0.52-0.36-1.129-0.571-1.649L132.826,78.823z"/>
	<path style="clip-path:url(#SVGID_00000121275324286566999600000013099402271476538283_);fill:#FFFFFF;" d="M142.176,79.369
		c0-1.29-0.025-1.476-0.758-1.562l-0.197-0.026c-0.075-0.049-0.051-0.272,0.024-0.309c0.534,0.024,0.955,0.037,1.464,0.037h2.332
		c0.794,0,1.526,0,1.675-0.037c0.074,0.21,0.149,1.103,0.198,1.649c-0.049,0.075-0.248,0.1-0.31,0.025
		c-0.186-0.583-0.297-1.017-0.943-1.178c-0.26-0.063-0.657-0.075-1.203-0.075h-0.893c-0.372,0-0.372,0.025-0.372,0.497v2.48
		c0,0.348,0.038,0.348,0.409,0.348h0.72c0.52,0,0.905-0.025,1.054-0.075c0.15-0.049,0.236-0.124,0.298-0.434l0.1-0.508
		c0.061-0.075,0.272-0.075,0.322,0.012c0,0.298-0.05,0.782-0.05,1.253c0,0.447,0.05,0.918,0.05,1.191
		c-0.05,0.087-0.261,0.087-0.322,0.012l-0.113-0.484c-0.049-0.223-0.135-0.409-0.383-0.471c-0.174-0.05-0.473-0.062-0.956-0.062
		h-0.72c-0.371,0-0.409,0.012-0.409,0.335v1.749c0,0.657,0.038,1.079,0.235,1.29c0.149,0.149,0.41,0.285,1.502,0.285
		c0.955,0,1.314-0.049,1.588-0.185c0.222-0.124,0.557-0.559,0.881-1.204c0.086-0.062,0.259-0.025,0.309,0.087
		c-0.087,0.434-0.397,1.389-0.557,1.724c-1.118-0.024-2.221-0.037-3.326-0.037h-1.116c-0.533,0-0.955,0.013-1.687,0.037
		c-0.075-0.037-0.1-0.235-0.026-0.309l0.41-0.038c0.708-0.062,0.77-0.248,0.77-1.55V79.369z"/>
	<path style="clip-path:url(#SVGID_00000121275324286566999600000013099402271476538283_);fill:#FFFFFF;" d="M150.037,79.382
		c0-1.179-0.037-1.39-0.545-1.452l-0.398-0.049c-0.086-0.062-0.086-0.261,0.014-0.311c0.693-0.061,1.55-0.099,2.765-0.099
		c0.77,0,1.501,0.062,2.073,0.372c0.594,0.31,1.029,0.869,1.029,1.737c0,1.179-0.931,1.824-1.551,2.072
		c-0.062,0.074,0,0.198,0.063,0.298c0.992,1.6,1.649,2.593,2.493,3.3c0.21,0.185,0.52,0.322,0.856,0.346
		c0.062,0.026,0.074,0.124,0.012,0.174c-0.111,0.037-0.311,0.063-0.546,0.063c-1.054,0-1.686-0.311-2.567-1.564
		c-0.323-0.459-0.832-1.314-1.217-1.873c-0.186-0.272-0.384-0.397-0.881-0.397c-0.558,0-0.582,0.012-0.582,0.273v1.564
		c0,1.301,0.024,1.451,0.744,1.549l0.26,0.039c0.075,0.061,0.051,0.272-0.025,0.309c-0.557-0.024-0.979-0.037-1.475-0.037
		c-0.522,0-0.969,0.013-1.551,0.037c-0.074-0.037-0.099-0.223-0.025-0.309l0.31-0.039c0.719-0.085,0.744-0.248,0.744-1.549V79.382z
		 M151.055,81.156c0,0.223,0,0.359,0.037,0.409c0.037,0.037,0.223,0.062,0.856,0.062c0.447,0,0.918-0.049,1.277-0.323
		c0.336-0.26,0.621-0.694,0.621-1.538c0-0.98-0.607-1.91-1.984-1.91c-0.77,0-0.807,0.049-0.807,0.397V81.156z"/>
	<path style="clip-path:url(#SVGID_00000121275324286566999600000013099402271476538283_);fill:#FFFFFF;" d="M159.846,85.895
		c-1.041,0-1.699-0.322-1.935-0.459c-0.149-0.272-0.31-1.153-0.335-1.736c0.063-0.087,0.249-0.113,0.297-0.037
		c0.188,0.632,0.696,1.847,2.135,1.847c1.041,0,1.551-0.681,1.551-1.426c0-0.545-0.112-1.154-1.018-1.737l-1.178-0.768
		c-0.621-0.411-1.34-1.118-1.34-2.134c0-1.179,0.918-2.134,2.53-2.134c0.385,0,0.832,0.074,1.154,0.161
		c0.161,0.05,0.335,0.074,0.434,0.074c0.112,0.298,0.224,0.993,0.224,1.514c-0.05,0.074-0.248,0.111-0.31,0.037
		c-0.162-0.596-0.496-1.402-1.688-1.402c-1.215,0-1.476,0.806-1.476,1.378c0,0.718,0.596,1.24,1.055,1.525l0.992,0.62
		c0.781,0.485,1.551,1.203,1.551,2.382C162.489,84.965,161.459,85.895,159.846,85.895"/>
	<path style="clip-path:url(#SVGID_00000121275324286566999600000013099402271476538283_);fill:#FFFFFF;" d="M165.338,79.395
		c0-1.315-0.024-1.526-0.756-1.588l-0.31-0.025c-0.075-0.049-0.05-0.273,0.025-0.31c0.619,0.025,1.041,0.037,1.562,0.037
		c0.497,0,0.918-0.012,1.539-0.037c0.075,0.037,0.099,0.261,0.024,0.31l-0.31,0.025c-0.731,0.062-0.756,0.273-0.756,1.588v4.416
		c0,1.315,0.025,1.489,0.756,1.575l0.31,0.038c0.075,0.049,0.051,0.273-0.024,0.31c-0.621-0.025-1.042-0.037-1.539-0.037
		c-0.521,0-0.943,0.012-1.562,0.037c-0.075-0.037-0.1-0.235-0.025-0.31l0.31-0.038c0.732-0.086,0.756-0.26,0.756-1.575V79.395z"/>
	<path style="clip-path:url(#SVGID_00000121275324286566999600000013099402271476538283_);fill:#FFFFFF;" d="M173.127,83.836
		c0,1.302,0.025,1.488,0.744,1.55l0.398,0.038c0.074,0.049,0.049,0.272-0.025,0.309c-0.707-0.024-1.129-0.037-1.625-0.037
		s-0.931,0.013-1.724,0.037c-0.075-0.037-0.1-0.248,0-0.309l0.446-0.038c0.707-0.062,0.768-0.248,0.768-1.55V78.29
		c0-0.385,0-0.396-0.371-0.396h-0.682c-0.534,0-1.216,0.024-1.527,0.309c-0.297,0.274-0.422,0.546-0.558,0.857
		c-0.099,0.074-0.273,0.012-0.323-0.087c0.2-0.559,0.385-1.353,0.472-1.849c0.038-0.024,0.198-0.037,0.236,0
		c0.074,0.398,0.484,0.385,1.054,0.385h5.025c0.67,0,0.782-0.025,0.967-0.348c0.063-0.024,0.199-0.012,0.223,0.037
		c-0.136,0.509-0.223,1.514-0.185,1.886c-0.05,0.1-0.261,0.1-0.323,0.025c-0.037-0.31-0.125-0.769-0.31-0.906
		c-0.285-0.211-0.757-0.309-1.44-0.309h-0.881c-0.371,0-0.359,0.011-0.359,0.421V83.836z"/>
	<path style="clip-path:url(#SVGID_00000121275324286566999600000013099402271476538283_);fill:#FFFFFF;" d="M181.684,83.811
		c0,1.327,0.074,1.526,0.744,1.575l0.471,0.038c0.074,0.074,0.05,0.273-0.026,0.31c-0.768-0.025-1.189-0.037-1.686-0.037
		c-0.521,0-0.968,0.012-1.625,0.037c-0.074-0.037-0.099-0.236-0.024-0.31l0.384-0.038c0.719-0.074,0.744-0.248,0.744-1.575v-0.633
		c0-0.681-0.037-0.844-0.397-1.538l-1.464-2.853c-0.422-0.819-0.607-0.881-0.98-0.943l-0.347-0.062
		c-0.075-0.087-0.062-0.26,0.024-0.31c0.398,0.025,0.844,0.037,1.44,0.037c0.57,0,1.017-0.012,1.327-0.037
		c0.112,0.037,0.112,0.235,0.037,0.31l-0.161,0.025c-0.434,0.062-0.522,0.124-0.522,0.223c0,0.124,0.324,0.832,0.385,0.956
		c0.459,0.918,0.918,1.897,1.403,2.754c0.384-0.658,0.794-1.377,1.166-2.097c0.347-0.645,0.806-1.489,0.806-1.638
		c0-0.074-0.223-0.161-0.521-0.198l-0.223-0.025c-0.088-0.087-0.075-0.26,0.024-0.31c0.447,0.025,0.806,0.037,1.191,0.037
		c0.385,0,0.732-0.012,1.154-0.037c0.1,0.062,0.112,0.235,0.025,0.31l-0.347,0.062c-0.646,0.112-1.018,0.894-1.639,1.96
		l-0.781,1.353c-0.545,0.942-0.582,1.053-0.582,2.009V83.811z"/>
	<path style="clip-path:url(#SVGID_00000121275324286566999600000013099402271476538283_);fill:#FFFFFF;" d="M193.798,82.384
		c0.285,0.583,0.558,1.154,0.856,1.7h0.025c0.335-0.583,0.645-1.228,0.955-1.861l1.166-2.369c0.559-1.129,0.918-1.812,0.942-2.382
		c0.422,0.037,0.684,0.037,0.932,0.037c0.31,0,0.719-0.013,1.103-0.037c0.075,0.05,0.075,0.261,0.012,0.309l-0.26,0.026
		c-0.781,0.074-0.88,0.309-0.869,1.179c0.026,1.314,0.037,3.609,0.137,5.395c0.037,0.621,0.025,0.956,0.608,1.005l0.398,0.038
		c0.074,0.074,0.061,0.26-0.026,0.31c-0.508-0.025-1.017-0.037-1.463-0.037c-0.435,0-0.994,0.012-1.501,0.037
		c-0.087-0.062-0.1-0.236-0.026-0.31l0.361-0.038c0.608-0.062,0.608-0.26,0.608-1.054l-0.038-5.174h-0.024
		c-0.087,0.137-0.559,1.129-0.807,1.614l-1.104,2.171c-0.558,1.091-1.117,2.257-1.339,2.828c-0.026,0.037-0.075,0.05-0.125,0.05
		c-0.025,0-0.086-0.013-0.112-0.05c-0.211-0.658-0.806-1.873-1.092-2.481l-1.116-2.394c-0.261-0.571-0.52-1.216-0.794-1.786h-0.025
		c-0.049,0.768-0.086,1.488-0.123,2.208c-0.037,0.756-0.088,1.86-0.088,2.915c0,0.918,0.075,1.116,0.558,1.153l0.472,0.038
		c0.087,0.074,0.075,0.273-0.013,0.31c-0.421-0.025-0.905-0.037-1.376-0.037c-0.397,0-0.844,0.012-1.266,0.037
		c-0.074-0.062-0.099-0.248-0.025-0.31l0.273-0.038c0.521-0.074,0.695-0.148,0.769-1.017c0.075-0.819,0.137-1.501,0.211-2.729
		c0.063-1.029,0.112-2.084,0.137-2.767c0.026-0.781-0.074-0.968-0.831-1.066l-0.198-0.026c-0.063-0.074-0.05-0.259,0.049-0.309
		c0.373,0.024,0.67,0.037,0.98,0.037c0.285,0,0.62,0,1.029-0.037c-0.048,0.483,0.261,1.253,0.646,2.047L193.798,82.384z"/>
	<path style="clip-path:url(#SVGID_00000121275324286566999600000013099402271476538283_);fill:#FFFFFF;" d="M208.406,80.622
		c0-0.769-0.025-2.195-0.236-2.567c-0.086-0.15-0.31-0.236-0.619-0.261l-0.311-0.025c-0.074-0.086-0.05-0.248,0.024-0.297
		c0.472,0.024,0.931,0.037,1.415,0.037c0.521,0,0.856-0.013,1.302-0.037c0.1,0.061,0.087,0.222,0.025,0.297l-0.297,0.025
		c-0.311,0.025-0.546,0.137-0.621,0.298c-0.174,0.409-0.174,1.836-0.174,2.53v1.402c0,1.079-0.173,2.221-0.867,2.965
		c-0.534,0.583-1.453,0.905-2.37,0.905c-0.857,0-1.712-0.161-2.32-0.681c-0.658-0.546-0.968-1.452-0.968-2.928v-2.928
		c0-1.29-0.024-1.501-0.745-1.563l-0.309-0.025c-0.075-0.049-0.05-0.26,0.024-0.297c0.621,0.024,1.043,0.037,1.539,0.037
		c0.508,0,0.918-0.013,1.526-0.037c0.074,0.037,0.099,0.248,0.025,0.297l-0.299,0.025c-0.719,0.062-0.744,0.273-0.744,1.563v2.68
		c0,1.997,0.621,3.312,2.52,3.312c1.797,0,2.48-1.414,2.48-3.3V80.622z"/>
	<path style="clip-path:url(#SVGID_00000121275324286566999600000013099402271476538283_);fill:#FFFFFF;" d="M213.55,85.895
		c-1.042,0-1.7-0.322-1.935-0.459c-0.149-0.272-0.31-1.153-0.336-1.736c0.063-0.087,0.249-0.113,0.298-0.037
		c0.187,0.632,0.695,1.847,2.134,1.847c1.042,0,1.551-0.681,1.551-1.426c0-0.545-0.111-1.154-1.018-1.737l-1.177-0.768
		c-0.621-0.411-1.34-1.118-1.34-2.134c0-1.179,0.918-2.134,2.53-2.134c0.385,0,0.831,0.074,1.153,0.161
		c0.162,0.05,0.336,0.074,0.435,0.074c0.112,0.298,0.224,0.993,0.224,1.514c-0.05,0.074-0.248,0.111-0.311,0.037
		c-0.161-0.596-0.496-1.402-1.687-1.402c-1.215,0-1.476,0.806-1.476,1.378c0,0.718,0.595,1.24,1.054,1.525l0.993,0.62
		c0.781,0.485,1.551,1.203,1.551,2.382C216.193,84.965,215.162,85.895,213.55,85.895"/>
	<path style="clip-path:url(#SVGID_00000121275324286566999600000013099402271476538283_);fill:#FFFFFF;" d="M219.043,79.369
		c0-1.29-0.025-1.476-0.758-1.562l-0.197-0.026c-0.075-0.049-0.051-0.272,0.024-0.309c0.534,0.024,0.955,0.037,1.464,0.037h2.332
		c0.794,0,1.526,0,1.675-0.037c0.074,0.21,0.149,1.103,0.198,1.649c-0.049,0.075-0.248,0.1-0.31,0.025
		c-0.186-0.583-0.297-1.017-0.943-1.178c-0.26-0.063-0.657-0.075-1.203-0.075h-0.893c-0.372,0-0.372,0.025-0.372,0.497v2.48
		c0,0.348,0.038,0.348,0.409,0.348h0.72c0.52,0,0.905-0.025,1.054-0.075c0.15-0.049,0.236-0.124,0.298-0.434l0.1-0.508
		c0.061-0.075,0.272-0.075,0.322,0.012c0,0.298-0.05,0.782-0.05,1.253c0,0.447,0.05,0.918,0.05,1.191
		c-0.05,0.087-0.261,0.087-0.322,0.012l-0.113-0.484c-0.049-0.223-0.135-0.409-0.383-0.471c-0.174-0.05-0.473-0.062-0.956-0.062
		h-0.72c-0.371,0-0.409,0.012-0.409,0.335v1.749c0,0.657,0.038,1.079,0.235,1.29c0.149,0.149,0.41,0.285,1.502,0.285
		c0.955,0,1.314-0.049,1.588-0.185c0.222-0.124,0.557-0.559,0.881-1.204c0.086-0.062,0.259-0.025,0.309,0.087
		c-0.087,0.434-0.397,1.389-0.557,1.724c-1.118-0.024-2.221-0.037-3.326-0.037h-1.116c-0.533,0-0.955,0.013-1.687,0.037
		c-0.075-0.037-0.1-0.235-0.026-0.309l0.41-0.038c0.708-0.062,0.77-0.248,0.77-1.55V79.369z"/>
	<path style="clip-path:url(#SVGID_00000121275324286566999600000013099402271476538283_);fill:#FFFFFF;" d="M232.821,80.622
		c0-0.769-0.024-2.195-0.235-2.567c-0.088-0.15-0.311-0.236-0.621-0.261l-0.31-0.025c-0.075-0.086-0.05-0.248,0.024-0.297
		c0.472,0.024,0.931,0.037,1.414,0.037c0.522,0,0.857-0.013,1.303-0.037c0.1,0.061,0.087,0.222,0.026,0.297l-0.299,0.025
		c-0.31,0.025-0.545,0.137-0.619,0.298c-0.174,0.409-0.174,1.836-0.174,2.53v1.402c0,1.079-0.174,2.221-0.869,2.965
		c-0.534,0.583-1.452,0.905-2.369,0.905c-0.856,0-1.712-0.161-2.321-0.681c-0.656-0.546-0.967-1.452-0.967-2.928v-2.928
		c0-1.29-0.025-1.501-0.744-1.563l-0.31-0.025c-0.075-0.049-0.049-0.26,0.025-0.297c0.619,0.024,1.041,0.037,1.537,0.037
		c0.51,0,0.918-0.013,1.527-0.037c0.075,0.037,0.099,0.248,0.024,0.297l-0.297,0.025c-0.72,0.062-0.744,0.273-0.744,1.563v2.68
		c0,1.997,0.619,3.312,2.518,3.312c1.798,0,2.481-1.414,2.481-3.3V80.622z"/>
	<path style="clip-path:url(#SVGID_00000121275324286566999600000013099402271476538283_);fill:#FFFFFF;" d="M240.012,82.384
		c0.285,0.583,0.559,1.154,0.855,1.7h0.026c0.335-0.583,0.644-1.228,0.955-1.861l1.166-2.369c0.559-1.129,0.918-1.812,0.943-2.382
		c0.422,0.037,0.682,0.037,0.93,0.037c0.311,0,0.72-0.013,1.104-0.037c0.075,0.05,0.075,0.261,0.013,0.309l-0.261,0.026
		c-0.782,0.074-0.88,0.309-0.868,1.179c0.025,1.314,0.037,3.609,0.137,5.395c0.037,0.621,0.024,0.956,0.607,1.005l0.397,0.038
		c0.074,0.074,0.062,0.26-0.025,0.31c-0.508-0.025-1.016-0.037-1.463-0.037c-0.434,0-0.993,0.012-1.501,0.037
		c-0.087-0.062-0.099-0.236-0.025-0.31l0.36-0.038c0.607-0.062,0.607-0.26,0.607-1.054l-0.037-5.174h-0.024
		c-0.087,0.137-0.559,1.129-0.807,1.614l-1.105,2.171c-0.557,1.091-1.116,2.257-1.339,2.828c-0.025,0.037-0.075,0.05-0.124,0.05
		c-0.025,0-0.087-0.013-0.112-0.05c-0.21-0.658-0.805-1.873-1.091-2.481l-1.117-2.394c-0.26-0.571-0.521-1.216-0.794-1.786h-0.024
		c-0.05,0.768-0.088,1.488-0.125,2.208c-0.037,0.756-0.086,1.86-0.086,2.915c0,0.918,0.074,1.116,0.558,1.153l0.471,0.038
		c0.087,0.074,0.074,0.273-0.012,0.31c-0.421-0.025-0.906-0.037-1.377-0.037c-0.397,0-0.843,0.012-1.265,0.037
		c-0.074-0.062-0.1-0.248-0.026-0.31l0.274-0.038c0.52-0.074,0.694-0.148,0.769-1.017c0.075-0.819,0.136-1.501,0.21-2.729
		c0.062-1.029,0.113-2.084,0.137-2.767c0.025-0.781-0.075-0.968-0.831-1.066l-0.199-0.026c-0.062-0.074-0.049-0.259,0.051-0.309
		c0.371,0.024,0.67,0.037,0.979,0.037c0.285,0,0.62,0,1.03-0.037c-0.05,0.483,0.26,1.253,0.645,2.047L240.012,82.384z"/>
	<path style="clip-path:url(#SVGID_00000121275324286566999600000013099402271476538283_);fill:#FFFFFF;" d="M249.894,85.895
		c-1.042,0-1.7-0.322-1.935-0.459c-0.149-0.272-0.31-1.153-0.336-1.736c0.063-0.087,0.249-0.113,0.298-0.037
		c0.187,0.632,0.695,1.847,2.134,1.847c1.042,0,1.551-0.681,1.551-1.426c0-0.545-0.111-1.154-1.018-1.737l-1.177-0.768
		c-0.621-0.411-1.34-1.118-1.34-2.134c0-1.179,0.918-2.134,2.53-2.134c0.385,0,0.831,0.074,1.153,0.161
		c0.162,0.05,0.336,0.074,0.435,0.074c0.112,0.298,0.224,0.993,0.224,1.514c-0.05,0.074-0.248,0.111-0.311,0.037
		c-0.161-0.596-0.496-1.402-1.687-1.402c-1.215,0-1.476,0.806-1.476,1.378c0,0.718,0.595,1.24,1.054,1.525l0.993,0.62
		c0.781,0.485,1.551,1.203,1.551,2.382C252.537,84.965,251.506,85.895,249.894,85.895"/>
</g>
</svg>
